<svg xmlns="http://www.w3.org/2000/svg" width="400" height="600" viewBox="0 0 400 600">
  <rect width="400" height="600" fill="#FAFAF9" rx="4"/>
  <rect x="20" y="20" width="360" height="560" fill="white" stroke="#E7E5E4" rx="4"/>
  <text x="200" y="60" text-anchor="middle" font-family="Arial" font-size="18" font-weight="bold" fill="#292524">RECEIPT</text>
  <line x1="40" y1="75" x2="360" y2="75" stroke="#E7E5E4"/>
  <text x="40" y="100" font-family="Arial" font-size="12" fill="#78716C">Al Futtaim Motors</text>
  <text x="40" y="118" font-family="Arial" font-size="11" fill="#A8A29E">Dubai, UAE</text>
  <text x="40" y="136" font-family="Arial" font-size="11" fill="#A8A29E">TRN: 100987654300003</text>
  <line x1="40" y1="150" x2="360" y2="150" stroke="#E7E5E4"/>
  <text x="40" y="175" font-family="Arial" font-size="12" fill="#78716C">Receipt #: REC-88412</text>
  <text x="40" y="193" font-family="Arial" font-size="12" fill="#78716C">Date: 14/02/2026</text>
  <line x1="40" y1="210" x2="360" y2="210" stroke="#E7E5E4"/>
  <text x="40" y="240" font-family="Arial" font-size="13" fill="#292524">Full vehicle service</text>
  <text x="360" y="240" text-anchor="end" font-family="Arial" font-size="13" fill="#292524">AED 4,285.71</text>
  <line x1="40" y1="260" x2="360" y2="260" stroke="#E7E5E4" stroke-dasharray="4"/>
  <text x="40" y="285" font-family="Arial" font-size="12" fill="#78716C">VAT (5%)</text>
  <text x="360" y="285" text-anchor="end" font-family="Arial" font-size="12" fill="#78716C">AED 214.29</text>
  <line x1="40" y1="300" x2="360" y2="300" stroke="#292524" stroke-width="1.5"/>
  <text x="40" y="325" font-family="Arial" font-size="14" font-weight="bold" fill="#292524">TOTAL</text>
  <text x="360" y="325" text-anchor="end" font-family="Arial" font-size="14" font-weight="bold" fill="#292524">AED 4,500.00</text>
  <text x="200" y="400" text-anchor="middle" font-family="Arial" font-size="10" fill="#D6D3D1">[ Low quality scan - some fields illegible ]</text>
  <rect x="60" y="420" width="280" height="80" fill="#F5F5F4" rx="4" stroke="#E7E5E4" stroke-dasharray="6"/>
  <text x="200" y="465" text-anchor="middle" font-family="Arial" font-size="11" fill="#A8A29E">Signature area</text>
</svg>