<svg version="1.1" id="svg8" xmlns:cc="http://creativecommons.org/ns#" xmlns:dc="http://purl.org/dc/elements/1.1/" xmlns:inkscape="http://www.inkscape.org/namespaces/inkscape" xmlns:rdf="http://www.w3.org/1999/02/22-rdf-syntax-ns#" xmlns:sodipodi="http://sodipodi.sourceforge.net/DTD/sodipodi-0.dtd" xmlns:svg="http://www.w3.org/2000/svg" xmlns="http://www.w3.org/2000/svg" xmlns:xlink="http://www.w3.org/1999/xlink" x="0px" y="0px" viewBox="0 0 98.42 108.36" style="enable-background:new 0 0 98.42 108.36;" xml:space="preserve">
 <style type="text/css">
  .st0{fill:#B01E28;}
	.st1{fill:#E1261E;}
 </style>
 <sodipodi:namedview bordercolor="#666666" borderopacity="1.0" fit-margin-bottom="0.5" fit-margin-left="0.5" fit-margin-right="0.5" fit-margin-top="0.5" id="base" inkscape:current-layer="layer1" inkscape:cx="243.0159" inkscape:cy="251.14536" inkscape:document-units="px" inkscape:pageopacity="0" inkscape:pageshadow="2" inkscape:window-height="1001" inkscape:window-maximized="1" inkscape:window-width="1920" inkscape:window-x="-9" inkscape:window-y="-9" inkscape:zoom="0.35" pagecolor="#00ffff" showgrid="false" units="px">
 </sodipodi:namedview>
 <g id="layer1" transform="translate(-41.535377,-202.60852)" inkscape:groupmode="layer" inkscape:label="Layer 1">
  <path id="path45" inkscape:connector-curvature="0" class="st0" d="M139.95,256.79c0-6.7-4.83-9.99-12.14-15.45
		c-7.12-5.32-19.24-13.15-26.46-17.45c-7.22-4.29-18.95-10.92-27.06-14.78c-8.17-3.91-14.7-6.51-18.65-6.51
		c-3.94,0-6.69,1.26-8.62,3.83c-1.95,2.57-3.09,6.36-3.87,11.13c-0.78,4.78-1.18,10.56-1.4,17.16c-0.2,6.6-0.21,22.07-0.21,22.07
		s0.01,15.46,0.21,22.07c0.22,6.6,0.63,12.38,1.4,17.15c0.78,4.78,1.92,8.55,3.87,11.14c1.93,2.57,4.68,3.82,8.62,3.82
		c3.95,0,10.48-2.59,18.65-6.49c8.11-3.87,19.84-10.5,27.06-14.78c7.22-4.3,19.34-12.12,26.46-17.46
		C135.12,266.79,139.95,263.5,139.95,256.79">
  </path>
  <path id="path47" inkscape:connector-curvature="0" class="st1" d="M128.75,248.69h-1.5c-0.69,0-1.27,0.58-1.27,1.28v13.65
		c0,0.7,0.58,1.28,1.27,1.28h1.5c0.7,0,1.28-0.58,1.28-1.28v-13.65C130.03,249.27,129.45,248.69,128.75,248.69">
  </path>
  <path id="path49" inkscape:connector-curvature="0" class="st1" d="M82.69,244.65h1.5c0.7,0,1.28-0.58,1.28-1.28v-21.76
		c0-0.7-0.58-1.27-1.28-1.27h-1.5c-0.7,0-1.28,0.57-1.28,1.27v21.76C81.4,244.07,81.98,244.65,82.69,244.65">
  </path>
  <path id="path51" inkscape:connector-curvature="0" class="st1" d="M96.34,281.11h-1.49c-0.71,0-1.28,0.57-1.28,1.27v1.5
		c0,0.7,0.57,1.27,1.28,1.27h1.49c0.71,0,1.28-0.57,1.28-1.27v-1.5C97.62,281.68,97.05,281.11,96.34,281.11">
  </path>
  <path id="path53" inkscape:connector-curvature="0" class="st1" d="M50.27,236.54h17.7c0.7,0,1.28-0.58,1.28-1.28v-6.83h6.83
		c0.7,0,1.28-0.58,1.28-1.27v-9.61c0-0.7-0.58-1.28-1.28-1.28h-1.5c-0.7,0-1.27,0.58-1.27,1.28v6.83h-4.05v-10.89
		c0-0.69-0.58-1.26-1.28-1.26h-9.61c-0.7,0-1.26,0.57-1.26,1.27v13.66c0,0.69,0.57,1.27,1.27,1.27h6.83v4.05H53.05v-14.93
		c0-0.7-0.58-1.28-1.28-1.28h-1.5c-0.7,0-1.27,0.58-1.27,1.28v17.7C49,235.96,49.57,236.54,50.27,236.54 M65.2,224.38h-4.05v-8.11
		h4.05V224.38z">
  </path>
  <path id="path55" inkscape:connector-curvature="0" class="st1" d="M120.66,244.65h-1.5c-0.7,0-1.27,0.58-1.27,1.27v18.99h-6.84
		c-0.7,0-1.27,0.58-1.27,1.27v6.84h-4.05v-6.84c0-0.7-0.58-1.27-1.28-1.27H90.78c-0.69,0-1.27,0.57-1.27,1.27v1.52
		c0,0.69,0.58,1.27,1.27,1.27h10.89v4.05h-16.2v-12.16h10.87c0.71,0,1.28-0.58,1.28-1.28v-1.49c0-0.7-0.57-1.28-1.28-1.28H82.69
		c-0.7,0-1.28,0.58-1.28,1.28v17.7c0,0.7,0.58,1.28,1.28,1.28h18.99v2.77c0,0.7,0.57,1.28,1.28,1.28h1.49c0.7,0,1.28-0.58,1.28-1.28
		v-2.77h6.81c0.7,0,1.28-0.59,1.28-1.29v-6.81h6.84c0.7,0,1.27-0.58,1.27-1.27v-21.77C121.93,245.22,121.36,244.65,120.66,244.65">
  </path>
  <path id="path57" inkscape:connector-curvature="0" class="st1" d="M88.24,281.11h-9.62c-0.69,0-1.26,0.57-1.26,1.27v6.83H53.05
		v-4.05h18.97c0.7,0,1.28-0.57,1.28-1.27v-1.5c0-0.7-0.58-1.27-1.28-1.27H50.26c-0.7,0-1.26,0.57-1.26,1.26v9.62
		c0,0.7,0.58,1.27,1.28,1.27h29.85c0.7,0,1.27-0.57,1.27-1.27v-6.83h4.07v2.77c0,0.7,0.55,1.27,1.26,1.27h1.52
		c0.7,0,1.27-0.57,1.27-1.27v-5.56C89.51,281.68,88.94,281.11,88.24,281.11">
  </path>
  <path id="path59" inkscape:connector-curvature="0" class="st1" d="M55.79,297.32h-1.43c-0.73,0-1.31,0.59-1.31,1.31v1.44
		c0,0.73,0.58,1.31,1.31,1.31h1.43c0.71,0,1.31-0.58,1.31-1.31v-1.44C57.1,297.91,56.5,297.32,55.79,297.32">
  </path>
  <path id="path61" inkscape:connector-curvature="0" class="st1" d="M63.9,297.32h-1.44c-0.71,0-1.31,0.59-1.31,1.31v1.44
		c0,0.73,0.59,1.31,1.31,1.31h1.44c0.73,0,1.31-0.58,1.31-1.31v-1.44C65.2,297.91,64.62,297.32,63.9,297.32">
  </path>
  <path id="path63" inkscape:connector-curvature="0" class="st1" d="M50.31,273.01c-0.73,0-1.31,0.59-1.31,1.31v1.43
		c0,0.73,0.58,1.32,1.31,1.32h1.43c0.73,0,1.31-0.59,1.31-1.32v-1.43c0-0.71-0.58-1.31-1.31-1.31H50.31z">
  </path>
  <path id="path65" inkscape:connector-curvature="0" class="st1" d="M58.4,273.01c-0.71,0-1.31,0.59-1.31,1.31v1.43
		c0,0.73,0.59,1.32,1.31,1.32h1.43c0.73,0,1.32-0.59,1.32-1.32v-1.43c0-0.71-0.59-1.31-1.32-1.31H58.4z">
  </path>
  <path id="path67" inkscape:connector-curvature="0" class="st1" d="M65.2,274.31v1.43c0,0.73,0.59,1.32,1.31,1.32h9.57
		c0.71,0,1.28-0.58,1.28-1.28v-17.7c0-0.7-0.57-1.28-1.28-1.28h-1.5c-0.7,0-1.28,0.58-1.28,1.28v14.93h-6.79
		C65.79,273.01,65.2,273.59,65.2,274.31">
  </path>
  <path id="path69" inkscape:connector-curvature="0" class="st1" d="M102.98,256.79c-0.73,0-1.31,0.59-1.31,1.31v1.44
		c0,0.73,0.58,1.31,1.31,1.31h1.43c0.73,0,1.31-0.58,1.31-1.31v-1.44c0-0.71-0.58-1.31-1.31-1.31H102.98z">
  </path>
  <path id="path71" inkscape:connector-curvature="0" class="st1" d="M98.92,232.49h1.43c0.73,0,1.32-0.59,1.32-1.31v-1.43
		c0-0.73-0.59-1.32-1.32-1.32h-1.43c-0.71,0-1.31,0.59-1.31,1.32v1.43C97.62,231.89,98.21,232.49,98.92,232.49">
  </path>
  <path id="path73" inkscape:connector-curvature="0" class="st1" d="M76.04,232.49h-1.43c-0.73,0-1.31,0.59-1.31,1.32v1.43
		c0,0.71,0.58,1.31,1.31,1.31h1.43c0.73,0,1.31-0.59,1.31-1.31v-1.43C77.35,233.08,76.77,232.49,76.04,232.49">
  </path>
  <path id="path75" inkscape:connector-curvature="0" class="st1" d="M67.95,248.7h-1.43c-0.73,0-1.32,0.59-1.32,1.31v1.43
		c0,0.73,0.59,1.31,1.32,1.31h1.43c0.71,0,1.31-0.58,1.31-1.31V250C69.26,249.29,68.66,248.7,67.95,248.7">
  </path>
  <path id="path77" inkscape:connector-curvature="0" class="st1" d="M112.51,256.79h-1.43c-0.73,0-1.31,0.59-1.31,1.31v1.44
		c0,0.73,0.58,1.31,1.31,1.31h1.43c0.73,0,1.31-0.58,1.31-1.31v-1.44C113.82,257.39,113.24,256.79,112.51,256.79">
  </path>
  <path id="path79" inkscape:connector-curvature="0" class="st1" d="M50.27,268.95h17.7c0.7,0,1.28-0.58,1.28-1.28v-9.6
		c0-0.7-0.57-1.28-1.28-1.28h-6.83v-12.15h12.16v6.79c0,0.73,0.58,1.31,1.31,1.31h37.93c0.7,0,1.27-0.57,1.27-1.27v-13.66
		c0-0.7-0.57-1.27-1.27-1.27h-9.6c-0.7,0-1.28,0.57-1.28,1.27v2.78h-8.11v-14.93c0-0.7-0.57-1.28-1.28-1.28h-1.49
		c-0.7,0-1.28,0.58-1.28,1.28v23.03H77.36v-6.83c0-0.7-0.58-1.27-1.28-1.27h-17.7c-0.7,0-1.27,0.57-1.27,1.27v17.72
		c0,0.7,0.57,1.27,1.27,1.27h6.83v4.05H53.06l-0.01-23.04c0-0.7-0.58-1.27-1.27-1.27h-1.5c-0.7,0-1.27,0.57-1.27,1.27v25.81
		C49,268.37,49.57,268.95,50.27,268.95 M93.56,244.65h12.15v-4.05h4.05v8.09h-16.2V244.65z">
  </path>
 </g>
</svg>