<svg version="1.2" xmlns="http://www.w3.org/2000/svg" viewBox="0 0 1538 1539" width="1538" height="1539">
	<title>AJMANBANK</title>

	<style>
		.s0 { fill: #ffc58b } 
		.s1 { fill: #fa8c54 } 
		.s2 { fill: #ffdebf } 
		.s3 { fill: #fa8953 } 
		.s4 { fill: #fda553 } 
		.s5 { fill: #fcdec9 } 
		.s6 { fill: #fc8f55 } 
		.s7 { fill: #fbd6b2 } 
		.s8 { fill: #ff692d } 
		.s9 { fill: #fbbe81 } 
		.s10 { fill: #fe9338 } 
		.s11 { fill: #ffb06b } 
		.s12 { fill: #fe7e30 } 
	</style>
	<g id="Clip-Path: Clip-Path: Page 1" clip-path="url(#cp1)">
		<g id="Clip-Path: Page 1">
			<g id="Page 1">
				<path id="Path 6" class="s0" d="m920.3 416.7q41.9-11.5 89.3-11.5c36.7 0 72.4 6.3 106.9 16.6-21.7-71.6-66.2-134-123.5-180-80.4 2.6-156.8 23.1-224.4 58.8 57.3 29.4 108.3 69 151.7 116.1z"/>
				<path id="Path 7" class="s1" d="m535.6 1003.3c21.4 44.5 49.6 85.3 81.3 120.9 49.9-12.5 95.8-35.6 135.1-66.2-77.5-2.5-150.3-21.6-216.4-54.7z"/>
				<path id="Path 8" class="s0" d="m920.3 1124.2c-43.4 47.3-94.4 86.7-151.7 116.1 67.6 34.5 144 55 224.4 57.3 57.3-44.5 101.8-107 123.5-178.2q-51.6 15.1-106.9 15.1-47.4 0-89.3-10.3z"/>
				<path id="Path 9" class="s1" d="m616.9 416.7c-33.1 35.6-59.9 76.4-81.3 119.7 66.1-31.9 138.9-51 216.4-53.6-39.3-30.5-85.2-53.3-135.1-66.1z"/>
				<path id="Path 10" class="s2" d="m1537.1 769.7c0-207.6-121.2-387.6-295.7-472.8 35.7 70.1 54.8 149.1 54.8 233.3q0 7.7 0 15.4c48.4 62.4 77.8 140 77.8 224.1 0 85.6-29.4 163.4-77.8 225.9q0 7.7 0 15.4c0 84.1-19.1 163.1-54.8 233.3 174.5-86.7 295.7-266.7 295.7-474.6z"/>
				<path id="Path 11" class="s3" d="m660.2 662.8c-64.7 20.2-122.3 57.3-165.4 106.9 43.1 49.9 100.7 88.1 165.4 108.7-10-34.5-15.1-70.2-15.1-108.7 0-36.8 5.1-73.8 15.1-106.9z"/>
				<path id="Path 12" class="s4" d="m875.8 662.8c11.4 33.1 16.5 70.1 16.5 106.9 0 38.5-5.1 74.2-16.5 108.7 64.7-20.6 122.1-58.8 166.8-108.7-44.7-49.6-102.1-86.7-166.8-106.9z"/>
				<path id="Path 13" class="s0" d="m616.9 416.7c43.3-47.1 94.3-86.7 151.7-116.1-67.6-35.7-144-56.2-224.2-58.8-58.7 46-102.1 108.4-124.9 180 34.5-10.3 71.3-16.6 108.4-16.6q45.9 0 89 11.5z"/>
				<path id="Path 14" class="s4" d="m1001.9 536.4c-21.7-43.3-49.7-84.1-81.6-119.7-51.1 12.8-97 35.6-136.3 66.1 77.5 2.6 151.7 21.7 217.9 53.6z"/>
				<path id="Path 15" class="s0" d="m616.9 1124.2q-43.1 10.3-89 10.3c-37.1 0-73.9-5.2-108.4-15.1 22.8 71.2 66.2 133.7 124.9 178.2 80.2-2.3 156.6-22.8 224.2-57.3-57.4-29.4-108.4-68.8-151.7-116.1z"/>
				<path id="Path 16" class="s4" d="m920.3 1124.2c31.9-35.6 59.9-76.4 81.6-120.9-66.2 33.1-140.4 52.2-217.9 54.7 39.3 30.6 85.2 53.7 136.3 66.2z"/>
				<path id="Path 17" class="s2" d="m241 995.6c-48.2-62.5-77.6-140.3-77.6-225.9 0-84.1 29.4-161.7 77.6-224.1q0-7.7 0-15.4c0-84.2 19.1-163.2 53.6-233.3-174.5 85.2-294.3 265.2-294.3 472.8 0 207.9 119.8 387.9 294.3 474.6-34.5-70.2-53.6-149.2-53.6-233.3q0-7.7 0-15.4z"/>
				<path id="Path 18" class="s4" d="m1001.9 1003.3c43.3-21.7 84.1-48.5 119.7-81.6-12.8-49.9-35.6-95.8-66.1-135.2-2.6 77.6-21.7 151.8-53.6 216.8z"/>
				<path id="Path 19" class="s5" d="m544.4 241.8c61-48.2 138.9-76.4 224.2-76.4 84.1 0 162 28.2 224.4 76.4q7.4 0 16.6 0c82.7 0 161.7 20.6 232.9 55.1-86.4-174.8-266-296-473.9-296-207.6 0-387.3 121.2-474 296 70.1-34.5 149.1-55.1 233.3-55.1q7.7 0 16.5 0z"/>
				<path id="Path 20" class="s4" d="m660.2 878.4c20.5 65 58.7 122.3 108.4 165.7 49.6-43.4 88.1-100.7 107.2-165.7-33.4 10-70.2 16.5-107.2 16.5-38.2 0-73.9-6.5-108.4-16.5z"/>
				<path id="Path 21" class="s6" d="m414.4 921.7c37 33.1 76.4 59.9 121.2 81.6-33.4-65-52.5-139.2-53.6-216.8-32 39.4-54.8 85.3-67.6 135.2z"/>
				<path id="Path 22" class="s7" d="m1116.5 421.8c10.3 34.5 16.5 70.1 16.5 108.4 0 30.5-3.7 59.8-11.4 89.2 47.1 41.9 86.7 93 117.2 150.3 34.5-67.3 54.8-144 57.4-224.1-46-57.6-108.4-102.1-179.7-123.8z"/>
				<path id="Path 23" class="s0" d="m414.4 618q-10.3-41.9-10.3-87.8c0-38.3 5.1-73.9 16.5-108.4-72.4 21.7-134.8 66.2-179.6 123.8 2.5 80.1 23.1 156.8 57.3 224.1 29.4-57.3 69-108.4 116.1-151.7z"/>
				<path id="Path 24" class="s8" d="m768.6 1044.1c-49.7-43.4-87.9-100.7-108.4-165.7-64.7-20.6-122.3-58.8-165.4-108.7q-6.6 7.7-12.8 16.8c1.1 77.6 20.2 151.8 53.6 216.8 66.1 33.1 138.9 52.2 216.4 54.7q8.9-6.2 16.6-13.9z"/>
				<path id="Path 25" class="s9" d="m993 241.8c57.3 46 101.8 108.4 123.5 180 71.3 21.7 133.7 66.2 179.7 123.8q0-7.7 0-15.4c0-84.2-19.1-163.2-54.8-233.3-70.1-34.5-149.1-55.1-231.8-55.1q-9.2 0-16.6 0z"/>
				<path id="Path 26" class="s10" d="m1042.6 769.7c-44.7 49.9-102.1 88.1-166.8 108.7-19.1 65-57.6 122.3-107.2 165.7q7.7 7.7 15.4 13.9c77.5-2.5 151.7-21.6 217.9-54.7 31.9-65 51-139.2 53.6-216.8q-6.6-9.1-12.9-16.8z"/>
				<path id="Path 27" class="s11" d="m241 545.6c44.8-57.6 107.2-102.1 178.5-123.8 22.8-71.6 66.2-134 124.9-180q-8.8 0-16.5 0c-84.2 0-163.2 20.6-233.3 55.1-34.5 70.1-53.6 149.1-53.6 233.3q0 7.7 0 15.4z"/>
				<path id="Path 28" class="s12" d="m784 1058q-7.7-6.2-15.4-13.9-7.7 7.7-16.6 13.9c-39.3 30.6-85.2 53.7-135.1 66.2 43.3 47.3 94.3 86.7 151.7 116.1 57.3-29.4 108.3-68.8 151.7-116.1-51.1-12.5-97-35.6-136.3-66.2z"/>
				<path id="Path 29" class="s4" d="m875.8 662.8c-19.1-65.1-57.6-122.4-107.2-167.1-49.7 44.7-87.9 102-108.4 167.1 34.5-11.4 70.2-16.6 108.4-16.6 37 0 73.8 5.2 107.2 16.6z"/>
				<path id="Path 30" class="s7" d="m1121.6 921.7q11.4 43.4 11.4 89.3c0 38.2-6.2 73.8-16.5 108.4 71.3-23.1 133.7-66.5 179.7-123.8-2.6-81.6-22.9-156.9-57.4-225.9-30.5 57.6-70.1 109.8-117.2 152z"/>
				<path id="Path 31" class="s0" d="m414.4 921.7c-47.1-42.2-86.7-94.4-116.1-152-34.2 69-54.8 144.3-57.3 225.9 44.8 57.3 107.2 100.7 179.6 123.8-11.4-34.6-16.5-70.2-16.5-108.4q0-45.9 10.3-89.3z"/>
				<path id="Path 32" class="s4" d="m1055.5 754.6c30.5-39.6 53.3-85.6 66.1-136.6-35.6-31.7-76.4-59.9-119.7-81.6 31.9 66.5 51 140.3 53.6 218.2z"/>
				<path id="Path 33" class="s5" d="m993 1297.6c-62.4 48.5-140.3 77.8-224.4 77.8-85.3 0-163.2-29.3-224.2-77.8q-8.8 1.4-16.5 1.4c-84.2 0-163.2-20.5-233.3-54.7 86.7 174.5 266.4 294.6 474 294.6 207.9 0 387.5-120.1 472.8-294.6-70.1 34.2-149.1 54.7-231.8 54.7q-9.2 0-16.6-1.4z"/>
				<path id="Path 34" class="s6" d="m535.6 536.4c-44.8 21.7-84.2 49.9-121.2 81.6 12.8 51 35.6 97 67.6 136.6 1.1-77.9 20.2-151.7 53.6-218.2z"/>
				<path id="Path 35" class="s8" d="m494.8 769.7c43.1-49.6 100.7-86.7 165.4-106.9 20.5-65.1 58.7-122.4 108.4-167.1q-7.7-6.3-16.6-12.9c-77.5 2.6-150.3 21.7-216.4 53.6-33.4 66.5-52.5 140.3-53.6 218.2q6.2 7.7 12.8 15.1z"/>
				<path id="Path 36" class="s9" d="m1296.2 995.6c-46 57.3-108.4 100.7-179.7 123.8-21.7 71.2-66.2 133.7-123.5 178.2q7.4 1.4 16.6 1.4c82.7 0 161.7-20.5 232.9-54.7 34.6-70.2 53.7-149.2 53.7-233.3q0-7.7 0-15.4z"/>
				<path id="Path 37" class="s11" d="m544.4 1297.6c-58.7-44.5-102.1-107-124.9-178.2-71.3-23.1-133.7-66.5-178.5-123.8q0 7.7 0 15.4c0 84.1 19.1 163.1 53.6 233.3 70.1 34.2 149.1 54.7 233.3 54.7q7.7 0 16.5-1.4z"/>
				<path id="Path 38" class="s10" d="m768.6 495.7c49.6 44.7 88.1 102 107.2 167.1 64.7 20.2 122.1 57.3 166.8 106.9q6.3-7.4 12.9-15.1c-2.6-77.9-21.7-151.7-53.6-218.2-66.2-31.9-140.4-51-217.9-53.6q-7.7 6.6-15.4 12.9z"/>
				<path id="Path 39" class="s12" d="m768.6 300.6c-57.4 29.4-108.4 69-151.7 116.1 49.9 12.8 95.8 35.6 135.1 66.1q8.9 6.6 16.6 12.9 7.7-6.3 15.4-12.9c39.3-30.5 85.2-53.3 136.3-66.1-43.4-47.1-94.4-86.7-151.7-116.1z"/>
				<path id="Path 40" class="s8" d="m482 754.6c-32-39.6-54.8-85.6-67.6-136.6-47.1 43.3-86.7 94.4-116.1 151.7 29.4 57.6 69 109.8 116.1 152 12.8-49.9 35.6-95.8 67.6-135.2q6.2-9.1 12.8-16.8-6.6-7.4-12.8-15.1z"/>
				<path id="Path 41" class="s10" d="m1121.6 618c-12.8 51-35.6 97-66.1 136.6q-6.6 7.7-12.9 15.1 6.3 7.7 12.9 16.8c30.5 39.4 53.3 85.3 66.1 135.2 47.1-42.2 86.7-94.4 117.2-152-30.5-57.3-70.1-108.4-117.2-151.7z"/>
			</g>
		</g>
	</g>
</svg>