<svg xmlns="http://www.w3.org/2000/svg" xmlns:xlink="http://www.w3.org/1999/xlink" version="1.1" width="256" height="256" viewBox="0 0 256 256" xml:space="preserve">
<g style="stroke: none; stroke-width: 0; stroke-dasharray: none; stroke-linecap: butt; stroke-linejoin: miter; stroke-miterlimit: 10; fill: none; fill-rule: nonzero; opacity: 1;" transform="translate(1.4065934065934016 1.4065934065934016) scale(2.81 2.81)">
	<circle cx="45" cy="45" r="45" style="stroke: none; stroke-width: 1; stroke-dasharray: none; stroke-linecap: butt; stroke-linejoin: miter; stroke-miterlimit: 10; fill: rgb(240,240,240); fill-rule: nonzero; opacity: 1;" transform="  matrix(1 0 0 1 0 0) "/>
	<path d="M 43.882 38.385 H 39.4 v 21.918 h 4.482 V 38.385 z M 47.992 38.421 v 4.11 h 3.773 v 12.365 c 0 1.706 0.468 3.076 1.37 4.11 c 0.901 1.07 2.103 1.598 3.617 1.634 c 1.502 0.036 2.836 -0.301 3.966 -0.997 l 0.072 -0.036 v -0.072 l 1.07 -4.17 l -0.264 0.168 c -1.202 0.733 -2.307 1.094 -3.317 1.094 c -1.394 0 -2.102 -0.829 -2.102 -2.463 V 42.531 h 4.578 v -4.11 h -4.578 v -6.85 l -4.41 2.367 v 4.482 H 47.992 L 47.992 38.421 z M 69.683 38.385 h -4.518 v 21.918 h 4.518 V 38.385 z M 36.829 41.834 l -0.096 -0.072 c -2.067 -2.511 -4.65 -3.737 -7.751 -3.737 c -3.244 0 -5.912 0.997 -8.051 2.968 c -2.271 2.079 -3.413 4.879 -3.413 8.388 c 0 3.509 1.142 6.285 3.413 8.388 c 2.103 1.97 4.807 2.944 8.051 2.944 c 3.1 0 5.708 -1.238 7.751 -3.713 l 0.096 -0.072 l -2.536 -3.064 l -0.096 0.096 c -1.646 1.634 -3.413 2.476 -5.312 2.476 c -1.983 0 -3.617 -0.673 -4.915 -2.007 c -1.31 -1.31 -1.935 -3.005 -1.935 -5.047 c 0 -2.043 0.625 -3.749 1.935 -5.083 c 1.298 -1.298 2.932 -1.971 4.915 -1.971 c 1.898 0 3.665 0.841 5.312 2.475 l 0.096 0.096 L 36.829 41.834 z" style="stroke: none; stroke-width: 1; stroke-dasharray: none; stroke-linecap: butt; stroke-linejoin: miter; stroke-miterlimit: 10; fill: rgb(0,70,133); fill-rule: nonzero; opacity: 1;" transform=" matrix(1 0 0 1 0 0) " stroke-linecap="round"/>
	<path d="M 41.611 34.78 c 1.767 -1.802 3.737 -3.172 5.985 -4.146 c 2.163 -0.937 4.47 -1.394 6.85 -1.394 c 2.368 0 4.674 0.457 6.886 1.394 c 2.199 0.973 4.169 2.343 5.936 4.146 l 0.072 0.06 h 5.143 l -0.192 -0.3 c -2.043 -2.872 -4.687 -5.143 -7.859 -6.802 c -3.173 -1.646 -6.477 -2.451 -9.986 -2.451 c -3.473 0 -6.825 0.805 -9.998 2.451 c -3.173 1.658 -5.816 3.929 -7.847 6.801 l -0.204 0.3 h 5.179 L 41.611 34.78 L 41.611 34.78 z" style="stroke: none; stroke-width: 1; stroke-dasharray: none; stroke-linecap: butt; stroke-linejoin: miter; stroke-miterlimit: 10; fill: rgb(238,28,37); fill-rule: nonzero; opacity: 1;" transform=" matrix(1 0 0 1 0 0) " stroke-linecap="round"/>
	<path d="M 43.882 38.385 H 39.4 v 21.918 h 4.482 V 38.385 z M 47.992 38.421 v 4.11 h 3.773 v 12.365 c 0 1.706 0.468 3.076 1.37 4.11 c 0.901 1.07 2.103 1.598 3.617 1.634 c 1.502 0.036 2.836 -0.301 3.966 -0.997 l 0.072 -0.036 v -0.072 l 1.07 -4.17 l -0.264 0.168 c -1.202 0.733 -2.307 1.094 -3.317 1.094 c -1.394 0 -2.102 -0.829 -2.102 -2.463 V 42.531 h 4.578 v -4.11 h -4.578 v -6.85 l -4.41 2.367 v 4.482 H 47.992 L 47.992 38.421 z M 69.683 38.385 h -4.518 v 21.918 h 4.518 V 38.385 z M 36.829 41.834 l -0.096 -0.072 c -2.067 -2.511 -4.65 -3.737 -7.751 -3.737 c -3.244 0 -5.912 0.997 -8.051 2.968 c -2.271 2.079 -3.413 4.879 -3.413 8.388 c 0 3.509 1.142 6.285 3.413 8.388 c 2.103 1.97 4.807 2.944 8.051 2.944 c 3.1 0 5.708 -1.238 7.751 -3.713 l 0.096 -0.072 l -2.536 -3.064 l -0.096 0.096 c -1.646 1.634 -3.413 2.476 -5.312 2.476 c -1.983 0 -3.617 -0.673 -4.915 -2.007 c -1.31 -1.31 -1.935 -3.005 -1.935 -5.047 c 0 -2.043 0.625 -3.749 1.935 -5.083 c 1.298 -1.298 2.932 -1.971 4.915 -1.971 c 1.898 0 3.665 0.841 5.312 2.475 l 0.096 0.096 L 36.829 41.834 z" style="stroke: none; stroke-width: 1; stroke-dasharray: none; stroke-linecap: butt; stroke-linejoin: miter; stroke-miterlimit: 10; fill: rgb(0,70,133); fill-rule: nonzero; opacity: 1;" transform=" matrix(1 0 0 1 0 0) " stroke-linecap="round"/>
	<path d="M 41.611 34.78 c 1.767 -1.802 3.737 -3.172 5.985 -4.146 c 2.163 -0.937 4.47 -1.394 6.85 -1.394 c 2.368 0 4.674 0.457 6.886 1.394 c 2.199 0.973 4.169 2.343 5.936 4.146 l 0.072 0.06 h 5.143 l -0.192 -0.3 c -2.043 -2.872 -4.687 -5.143 -7.859 -6.802 c -3.173 -1.646 -6.477 -2.451 -9.986 -2.451 c -3.473 0 -6.825 0.805 -9.998 2.451 c -3.173 1.658 -5.816 3.929 -7.847 6.801 l -0.204 0.3 h 5.179 L 41.611 34.78 L 41.611 34.78 z" style="stroke: none; stroke-width: 1; stroke-dasharray: none; stroke-linecap: butt; stroke-linejoin: miter; stroke-miterlimit: 10; fill: rgb(238,28,37); fill-rule: nonzero; opacity: 1;" transform=" matrix(1 0 0 1 0 0) " stroke-linecap="round"/>
</g>
</svg>