<svg width="181" height="160" viewBox="0 0 181 160" fill="none" xmlns="http://www.w3.org/2000/svg">
<path d="M33.7437 48.715C34.451 49.5477 35.6207 50.3351 36.6442 50.3351C37.6676 50.3351 38.6061 49.1412 38.6061 46.4576C38.6061 43.7739 38.7761 35.721 38.2228 34.2292C37.6696 32.7374 35.7906 32.4394 34.5972 33.3353C33.4038 34.2311 32.4219 37.1693 32.4219 41.1751C32.4219 45.1809 32.5503 47.31 33.7437 48.717V48.715Z" stroke="#6A2135" stroke-linecap="round" stroke-linejoin="round"/>
<path d="M36.8887 32.9508C37.6276 32.3963 38.6946 31.459 40.1448 31.459C41.595 31.459 43.1737 32.6094 43.557 35.3365C43.9403 38.0636 43.9403 46.4993 43.2152 49.1416C42.4901 51.7838 41.1248 51.8252 39.8445 51.7404C38.5642 51.6555 37.5585 49.9723 37.5585 49.9723" stroke="#6A2135" stroke-linecap="round" stroke-linejoin="round"/>
<path d="M40.1445 31.4588C40.3579 29.669 43.5153 18.6345 50.3832 13.052C57.2511 7.46963 69.8251 0.5 87.2438 0.5C104.663 0.5 120.619 2.98436 136.75 21.3221C137.941 22.6757 137.006 23.5558 136.75 23.84C136.493 24.1241 135.734 24.5504 134.266 23.7926C132.798 23.0349 126.58 20.5683 119.313 20.5683C112.046 20.5683 95.9808 24.5188 83.4661 24.5188C83.4661 24.5188 55.5301 25.1127 45.5997 18.5003" stroke="#6A2135" stroke-linecap="round" stroke-linejoin="round"/>
<path d="M50.3828 13.0523C52.9494 11.1047 65.4641 7.38703 79.5872 6.11623C93.7103 4.84544 109.321 4.85333 118.975 6.87595" stroke="#6A2135" stroke-linecap="round" stroke-linejoin="round"/>
<path d="M128.897 26.1094C130.397 26.1094 132.353 26.4015 132.728 28.9786C133.104 31.5557 134.187 42.4127 129.397 48.151C124.608 53.8893 119.319 55.387 113.156 55.387C106.993 55.387 101.287 52.2258 98.373 47.9832C95.4587 43.7407 94.1666 37.6275 94.542 32.9685C94.9174 28.3096 95.0833 26.1055 98.8729 26.1055H128.897V26.1094Z" stroke="#6A2135" stroke-linecap="round" stroke-linejoin="round"/>
<path d="M125.941 29.6016C126.9 29.6016 129.814 29.8088 129.856 33.3863C129.897 36.9639 130.022 45.6562 122.942 49.6481C115.863 53.6401 109.159 51.8937 105.411 50.1474C101.663 48.401 98.1241 42.2878 97.8317 36.7133C97.5393 31.1388 98.1656 29.6016 101.414 29.6016H125.941Z" stroke="#6A2135" stroke-linecap="round" stroke-linejoin="round"/>
<path d="M106.41 40.374C107.617 41.3311 114.155 45.5736 120.486 40.374" stroke="#6A2135" stroke-linecap="round" stroke-linejoin="round"/>
<path d="M82.4231 26.1094C84.3397 26.1094 86.2957 26.358 86.5881 29.8941C86.8806 33.4303 88.1293 46.6137 77.5923 53.019C76.1065 53.9228 67.1403 58.3429 57.1032 53.2262C47.0661 48.1095 47.2755 33.0553 47.483 29.7698C47.5442 28.8147 47.6904 26.1094 51.7725 26.1094H82.4212H82.4231Z" stroke="#6A2135" stroke-linecap="round" stroke-linejoin="round"/>
<path d="M79.5896 29.6865C80.4649 29.6865 83.2132 29.8108 83.4207 32.8063C83.6281 35.8017 83.9107 46.4713 74.7173 50.6901C73.4844 51.2545 64.6821 54.5163 57.3104 49.3167C49.9387 44.1171 50.8554 33.3055 50.8969 32.5557C50.9384 31.8058 51.6458 29.6865 53.9792 29.6865H79.5896Z" stroke="#6A2135" stroke-linecap="round" stroke-linejoin="round"/>
<path d="M60.1035 40.208C60.9373 41.0407 68.0581 45.9897 74.679 40.208" stroke="#6A2135" stroke-linecap="round" stroke-linejoin="round"/>
<path d="M47.4243 32.3057C46.4838 32.3057 44.3144 32.7358 43.2969 34.1842" stroke="#6A2135" stroke-linecap="round" stroke-linejoin="round"/>
<path d="M47.8631 37.7891C46.6934 37.7891 44.6484 38.2942 43.7969 39.417" stroke="#6A2135" stroke-linecap="round" stroke-linejoin="round"/>
<path d="M86.7344 35.8845C87.8369 34.886 92.4978 33.8481 94.4776 35.8845" stroke="#6A2135" stroke-linecap="round" stroke-linejoin="round"/>
<path d="M86.5137 29.2724C87.7308 28.3075 93.0437 27.5517 94.9563 29.2724" stroke="#6A2135" stroke-linecap="round" stroke-linejoin="round"/>
<path d="M81.3906 57.6201C83.971 59.4533 92.6863 62.8888 99.4515 57.6201" stroke="#6A2135" stroke-linecap="round" stroke-linejoin="round"/>
<path d="M134.263 23.793C135.23 27.041 137.369 41.588 134.263 54.2999C131.157 67.0118 119.518 74.972 106.16 76.8052C92.8011 78.6384 75.1967 77.8352 64.5332 74.9148C53.8698 71.9943 43.7063 62.9666 41.3906 51.6182" stroke="#6A2135" stroke-linecap="round" stroke-linejoin="round"/>
<path d="M135.413 30.5904C136.606 30.5351 138.843 31.1074 139.244 34.7718C139.645 38.4361 139.817 46.2819 138.671 49.2596C137.525 52.2373 134.863 51.4894 134.863 51.4894" stroke="#6A2135" stroke-linecap="round" stroke-linejoin="round"/>
<path d="M138.486 32.2813C139.472 32.1372 141.938 31.8511 142.74 35.3438C143.542 38.8365 143.657 45.078 142.053 47.4262C140.448 49.7744 138.67 49.2594 138.67 49.2594" stroke="#6A2135" stroke-linecap="round" stroke-linejoin="round"/>
<path d="M90.9646 88.0842C92.9277 88.0842 94.5191 86.4949 94.5191 84.5343C94.5191 82.5737 92.9277 80.9844 90.9646 80.9844C89.0015 80.9844 87.4102 82.5737 87.4102 84.5343C87.4102 86.4949 89.0015 88.0842 90.9646 88.0842Z" stroke="#6A2135" stroke-linecap="round" stroke-linejoin="round"/>
<path d="M91.5959 97.0191C92.6413 97.0191 93.4888 96.1727 93.4888 95.1287C93.4888 94.0846 92.6413 93.2383 91.5959 93.2383C90.5506 93.2383 89.7031 94.0846 89.7031 95.1287C89.7031 96.1727 90.5506 97.0191 91.5959 97.0191Z" stroke="#6A2135" stroke-linecap="round" stroke-linejoin="round"/>
<path d="M92.1819 105.388C93.2273 105.388 94.0747 104.542 94.0747 103.498C94.0747 102.454 93.2273 101.607 92.1819 101.607C91.1365 101.607 90.2891 102.454 90.2891 103.498C90.2891 104.542 91.1365 105.388 92.1819 105.388Z" stroke="#6A2135" stroke-linecap="round" stroke-linejoin="round"/>
<path d="M92.1819 114.035C93.2273 114.035 94.0747 113.188 94.0747 112.144C94.0747 111.1 93.2273 110.254 92.1819 110.254C91.1365 110.254 90.2891 111.1 90.2891 112.144C90.2891 113.188 91.1365 114.035 92.1819 114.035Z" stroke="#6A2135" stroke-linecap="round" stroke-linejoin="round"/>
<path d="M93.4885 82.0337C94.5772 81.1555 99.9098 77.7832 102.891 77.7832C105.873 77.7832 106.618 79.2671 106.732 83.7326C106.847 88.1982 106.503 92.2651 104.152 92.2651C101.801 92.2651 95.5216 90.1695 93.3008 87.2096" stroke="#6A2135" stroke-linecap="round" stroke-linejoin="round"/>
<path d="M94.5195 84.5342C95.4363 84.878 98.0167 84.5915 99.222 84.5342" stroke="#6A2135" stroke-linecap="round" stroke-linejoin="round"/>
<path d="M88.3667 82.1126C87.2958 81.2128 81.9058 77.7832 78.867 77.7832C75.8282 77.7832 74.9688 79.8966 74.9688 83.2176C74.9688 86.5387 75.3698 90.5484 76.172 91.6356C76.9742 92.7229 79.2108 92.7801 82.0204 91.6356C84.83 90.4911 87.4894 88.1193 88.3667 86.957" stroke="#6A2135" stroke-linecap="round" stroke-linejoin="round"/>
<path d="M87.4108 84.5342C86.5513 84.878 83.2833 84.6429 82.4219 84.6172" stroke="#6A2135" stroke-linecap="round" stroke-linejoin="round"/>
<path d="M136.858 97.0176C135.238 97.8917 128.805 105.759 135.042 112.739" stroke="#6A2135" stroke-linecap="round" stroke-linejoin="round"/>
<path d="M163.74 84.8936C164.734 84.9251 168.322 86.3341 168.385 91.1015" stroke="#6A2135" stroke-linecap="round" stroke-linejoin="round"/>
<path d="M168.286 89.8859C169.379 89.5978 172.84 86.853 174.697 84.4653C176.555 82.0777 178.542 81.6613 179.665 82.8768C180.787 84.0924 180.85 86.1722 179.408 88.2205C177.965 90.2688 172.712 96.4451 163.483 99.3557C162.169 99.7701 156.37 100.603 152.845 95.3874C149.32 90.1721 148.712 86.1071 148.392 84.8916C148.071 83.676 148.135 78.7152 150.794 75.8993C150.794 75.8993 152.74 73.4663 154.317 73.5196C155.894 73.5728 157.443 74.7134 156.899 77.0774C156.356 79.4414 154.507 80.499 154.479 81.1779C154.451 81.8567 154.56 84.4357 157.688 84.4357C160.815 84.4357 163.532 82.6164 163.969 80.3905C164.405 78.1647 163.724 75.8835 162.228 75.9644C160.732 76.0453 158.64 76.6709 158.041 76.5623C157.443 76.4538 156.384 74.9068 156.71 73.711C157.036 72.5152 159.575 69.9795 163.131 70.013C166.047 70.0407 168.93 72.3494 169.987 78.4606" stroke="#6A2135" stroke-linecap="round" stroke-linejoin="round"/>
<path d="M165.516 85.5422C166.721 84.9226 169.795 81.1477 170.404 77.1163C171.012 73.0849 172.101 72.9251 173.863 73.0514C175.626 73.1776 176.523 74.7148 176.523 77.3393C176.523 79.9638 175.792 82.2843 174.476 84.7391" stroke="#6A2135" stroke-linecap="round" stroke-linejoin="round"/>
<path d="M163.741 90.9733C161.722 90.1406 153.572 87.7569 153.625 96.4058" stroke="#6A2135" stroke-linecap="round" stroke-linejoin="round"/>
<path d="M149.744 89.5244C148.902 90.2585 147.308 91.2668 147.061 93.2381" stroke="#6A2135" stroke-linecap="round" stroke-linejoin="round"/>
<path d="M159.435 99.5566C159.397 100.837 158.255 102.961 155.426 103.184" stroke="#6A2135" stroke-linecap="round" stroke-linejoin="round"/>
<path d="M45.1992 97.0176C47.3449 97.87 53.6636 105.554 47.2521 112.829" stroke="#6A2135" stroke-linecap="round" stroke-linejoin="round"/>
<path d="M14.7278 78.7467C14.7278 78.7467 15.6723 73.2412 18.1855 71.4021C20.6987 69.563 23.6624 70.4155 25.6837 71.4021C27.7049 72.3887 28.1969 74.0029 27.5251 75.3487C26.8534 76.6944 25.7746 76.6491 24.6523 76.4241C23.5301 76.1991 22.0482 75.842 21.2401 76.6037C20.432 77.3654 19.8926 80.7732 21.7795 82.7011C23.6664 84.629 26.8534 84.5402 28.5585 83.7765C30.2636 83.0129 30.1292 80.9074 28.9181 79.6504C27.7069 78.3934 27.8847 77.1838 27.9697 75.9288C28.0547 74.6738 29.0544 73.6872 30.311 73.6872C30.311 73.6872 32.4666 73.776 34.3061 76.8701C36.1456 79.9642 36.2819 84.3587 35.6082 85.882C34.9344 87.4054 33.498 90.4561 33.4091 91.5315C33.3202 92.607 29.6373 98.0789 26.0453 99.0636C22.4532 100.048 18.9521 99.5569 14.9551 96.8673C10.958 94.1777 6.55986 90.1424 5.078 87.5416C3.59615 84.9408 4.89821 83.4154 5.4376 82.8787C5.977 82.342 7.90736 81.8921 9.11853 83.1471C10.3297 84.4021 11.6772 88.4828 16.2571 90.097C16.5713 88.1237 18.4127 85.2683 19.938 84.925" stroke="#6A2135" stroke-linecap="round" stroke-linejoin="round"/>
<path d="M18.831 85.5444C17.6929 84.5834 15.1777 81.7142 14.2352 76.7376C13.2928 71.761 10.1038 73.5093 9.20682 74.271C8.3098 75.0327 7.05121 78.6201 9.11791 83.1488" stroke="#6A2135" stroke-linecap="round" stroke-linejoin="round"/>
<path d="M19.2383 91.1918C21.3405 90.2525 29.226 88.1687 29.7595 96.6972" stroke="#6A2135" stroke-linecap="round" stroke-linejoin="round"/>
<path d="M34.0527 89.4492C35.0802 90.4753 36.811 92.0875 37.0856 93.8516" stroke="#6A2135" stroke-linecap="round" stroke-linejoin="round"/>
<path d="M23.7999 99.4834C23.7564 100.129 25.0604 103.56 27.9649 103.497" stroke="#6A2135" stroke-linecap="round" stroke-linejoin="round"/>
<path d="M62.2351 94.1318C61.2176 97.8949 57.8686 109.602 58.408 117.247C67.4394 120.173 79.1065 121.562 92.7198 121.562C106.333 121.562 117.404 119.433 123.554 117.14C123.882 112.144 121.094 99.0552 118.963 94.1338" stroke="#6A2135" stroke-linecap="round" stroke-linejoin="round"/>
<path d="M123.392 113.159C120.683 114.193 111.788 117.468 91.2238 117.468C70.6596 117.468 58.457 112.831 58.457 112.831" stroke="#6A2135" stroke-linecap="round" stroke-linejoin="round"/>
<path d="M72.622 76.5522L76.2357 112.738H71.316L67.1312 75.5537C64.7148 76.3036 58.0089 79.3187 53.1149 86.2824C48.2208 93.2462 47.0788 96.3659 45.2018 97.0171C41.5129 96.1271 37.0871 93.85 37.0871 93.85C37.0871 93.85 36.1486 100.551 27.9668 103.495C28.9053 107.981 37.6226 113.405 42.5858 113.405C47.549 113.405 53.4488 111.665 60.0203 103.829" stroke="#6A2135" stroke-linecap="round" stroke-linejoin="round"/>
<path d="M107.72 76.5603C107.726 77.8271 110.433 98.1006 107.07 112.74C109.449 112.146 111.826 112.74 111.826 112.74C111.826 112.74 116.438 86.5095 112.573 75.4118C111.747 73.0379 123.223 80.7495 126.182 85.5722C129.142 90.3949 133.894 96.0977 136.854 97.0192C140.671 96.074 147.057 93.2404 147.057 93.2404C147.057 93.2404 147.671 101.481 155.422 103.186C154.634 105.854 147.452 113.246 139.306 113.159C131.159 113.072 125.335 109.135 122.27 105.023" stroke="#6A2135" stroke-linecap="round" stroke-linejoin="round"/>
<path d="M111.828 112.738L112.699 115.931" stroke="#6A2135" stroke-linecap="round" stroke-linejoin="round"/>
<path d="M107.073 112.738L105.314 116.872" stroke="#6A2135" stroke-linecap="round" stroke-linejoin="round"/>
<path d="M76.2363 112.738L77.9197 116.795" stroke="#6A2135" stroke-linecap="round" stroke-linejoin="round"/>
<path d="M71.3162 112.738L70.3105 115.751" stroke="#6A2135" stroke-linecap="round" stroke-linejoin="round"/>
<path d="M58.4084 117.247C54.8836 118.066 42.1021 121.501 38.5674 128.98C35.0326 136.459 39.6619 145.116 48.9166 147.803C58.1713 150.491 77.4749 151.922 92.1828 145.451" stroke="#6A2135" stroke-linecap="round" stroke-linejoin="round"/>
<path d="M48.8301 127.048C52.1119 125.955 60.7778 125.705 69.3607 129.233C77.9436 132.761 82.6559 136.796 85.7678 140.157C88.8797 143.517 92.4144 146.207 96.3699 147.133C100.326 148.058 111.096 150.493 121.36 150.493C131.624 150.493 139.703 147.971 143.574 140.325C147.445 132.678 143.078 120.004 123.553 117.139" stroke="#6A2135" stroke-linecap="round" stroke-linejoin="round"/>
<path d="M60.0215 126.713C60.6952 125.369 65.0697 122.847 69.1082 122.764C73.1468 122.681 76.5965 124.613 78.7007 125.789C80.805 126.965 85.0115 128.479 87.1157 128.479C89.2199 128.479 91.4072 130.336 92.8376 133.819C94.5191 134.529 100.243 136.631 103.776 135.79C107.308 134.949 116.565 133.521 119.09 133.185C121.615 132.85 123.275 131.672 123.581 129.908C123.887 128.143 120.859 124.866 114.295 124.866C107.731 124.866 103.357 128.587 100.243 129.375C100.243 129.375 93.4106 130.328 91.8122 131.79" stroke="#6A2135" stroke-linecap="round" stroke-linejoin="round"/>
<path d="M120.875 126.335C122.981 125.661 128.166 125.712 130.552 126.335" stroke="#6A2135" stroke-linecap="round" stroke-linejoin="round"/>
<path d="M99.8418 135.821C100.944 137.039 102.098 143.543 98.4844 147.616" stroke="#6A2135" stroke-linecap="round" stroke-linejoin="round"/>
<path d="M95.6153 134.823C96.4452 136.358 97.6425 142.762 94.0762 146.373" stroke="#6A2135" stroke-linecap="round" stroke-linejoin="round"/>
<path d="M84.1387 138.493C85.7707 140.159 88.0784 144.156 86.156 147.616" stroke="#6A2135" stroke-linecap="round" stroke-linejoin="round"/>
<path d="M50.7538 119.643H21.8102C21.8102 119.643 19.4234 119.8 18.4671 121.642C17.5108 123.483 1.54829 155.503 1.1393 156.32C0.730307 157.137 -0.565822 158.978 2.36825 158.978H177.356C179.333 158.978 180.426 158.433 179.47 156.525C178.513 154.617 161.527 122.389 160.982 121.367C160.437 120.345 159.204 119.664 157.431 119.664H132.943" stroke="#6A2135" stroke-linecap="round" stroke-linejoin="round"/>
</svg>
