<svg width="350" height="261" viewBox="0 0 350 261" fill="none" xmlns="http://www.w3.org/2000/svg">
<path d="M342.538 172.26C342.538 172.26 339.024 170.802 337.564 175.513C335.655 173.78 332.174 172.708 330.378 177.813C329.144 175.288 325.213 173.494 323.698 177.363C322.464 173.83 318.141 172.372 317.018 176.633C315.728 174.928 311.741 176.241 311.741 176.241C311.741 176.241 310.001 171.99 306.015 174.928" stroke="#96A0CE" stroke-width="0.5" stroke-linecap="round" stroke-linejoin="round"/>
<path d="M339.249 181.742C339.249 181.742 335.993 181.462 336.105 183.931C334.084 182.832 331.557 183.65 331.613 186.061" stroke="#96A0CE" stroke-width="0.5" stroke-linecap="round" stroke-linejoin="round"/>
<path d="M329.93 186.059C329.93 186.059 329.739 180.449 324.278 183.142C322.633 180.842 317.524 178.427 316.064 184.571C314.605 182.526 310.507 181.74 309.496 186.059C307.811 184.826 304.386 184.937 304.219 188.248C302.704 187.575 300.569 188.248 300.233 189.762" stroke="#96A0CE" stroke-width="0.5" stroke-linecap="round" stroke-linejoin="round"/>
<path d="M302.588 183.896C302.588 183.896 306.78 181.455 307.801 185.384" stroke="#96A0CE" stroke-width="0.5" stroke-linecap="round" stroke-linejoin="round"/>
<path d="M338.454 173.62C338.454 173.62 339.755 163.063 337.509 150.553C335.263 138.042 329.311 121.718 329.311 121.718C329.311 121.718 328.58 129.29 329.086 132.04C327.009 130.47 326.729 125.542 327.402 122.591C324.65 126.149 322.406 130.243 322.068 134.957C320.272 132.096 319.71 125.421 324.594 121.157C317.578 127.665 314.882 134.004 314.882 134.004C314.882 134.004 311.513 122.448 323.416 118.409C316.68 118.97 311.176 124.3 311.176 124.3C311.176 124.3 312.861 117.456 317.408 116.109C310.953 116.501 309.661 116.559 309.661 116.559C309.661 116.559 314.657 112.632 324.483 115.493C318.028 112.801 313.647 112.295 313.647 112.295C313.647 112.295 320.272 107.584 328.692 114.315C329.703 109.94 331.219 107.359 336.328 107.359H341.437C341.437 107.359 337.732 108.481 336.103 112.295C338.18 111.006 342.536 111.685 342.536 111.685V113.418C342.536 113.418 338.349 114.09 336.776 115.268C339.976 116.446 342.536 117.904 342.536 117.904V121.943L335.766 119.474C335.766 119.474 341.493 121.885 340.931 130.806C336.834 126.262 331.669 121.718 331.669 121.718C331.669 121.718 339.097 141.212 342.538 162.534V171.612C342.538 171.612 339.522 170.476 338.452 173.62H338.454Z" stroke="#96A0CE" stroke-width="0.5" stroke-linecap="round" stroke-linejoin="round"/>
<path d="M314.497 175.761C314.497 175.761 316.596 162.123 313.942 152.84C312.946 153.89 313.002 156.873 313.002 156.873C313.002 156.873 312.118 155.38 312.283 153.502C311.066 154.774 310.403 155.16 309.464 156.873C308.854 154.994 310.419 151.678 312.375 150.629L309.33 151.348L309.906 147.812L312.309 149.139L310.35 146.431C310.35 146.431 312.341 146.155 313.999 149.028C314.718 146.423 316.654 145.311 320.026 146.423C317.096 147.203 316.265 149.304 316.265 149.304C316.265 149.304 319.638 146.929 322.183 149.967C319.252 150.023 317.87 150.353 317.87 150.353C317.87 150.353 322.239 151.954 322.183 155.436C319.529 152.84 317.096 151.403 317.096 151.403C317.096 151.403 319.75 154.608 319.142 157.261C317.649 154.718 314.939 152.507 314.939 152.507C314.939 152.507 318.481 165.704 316.074 175.972" stroke="#96A0CE" stroke-width="0.5" stroke-linecap="round" stroke-linejoin="round"/>
<path d="M338.188 155.075L335.84 151.265L335.177 153.169L333.905 150.768C333.905 150.768 332.411 151.265 332.19 154.801C331.085 152.92 330.587 150.491 332.19 149.108L329.204 151.651C329.204 151.651 329.425 147.618 331.637 147.342H328.871C328.871 147.342 329.976 145.464 331.416 145.517L332.853 145.573L330.697 144.025C330.697 144.025 331.802 142.809 333.13 143.693C334.458 144.576 334.956 145.185 334.956 145.185L336.278 144.717" stroke="#96A0CE" stroke-width="0.5" stroke-linecap="round" stroke-linejoin="round"/>
<path d="M338.59 143.988C338.59 143.988 340.754 143.676 341.647 143.988C339.767 144.247 339.434 144.91 339.434 144.91L342.539 147.12V149.223L341.037 148.777L342.539 151.429V152.589L340.263 150.864" stroke="#96A0CE" stroke-width="0.5" stroke-linecap="round" stroke-linejoin="round"/>
<path d="M308.615 162.926H315.266" stroke="#96A0CE" stroke-width="0.5" stroke-linecap="round" stroke-linejoin="round"/>
<path d="M309 160.686H315.188" stroke="#96A0CE" stroke-width="0.5" stroke-linecap="round" stroke-linejoin="round"/>
<path d="M309.328 158.383H314.975" stroke="#96A0CE" stroke-width="0.5" stroke-linecap="round" stroke-linejoin="round"/>
<path d="M316.682 162.926H338.783" stroke="#96A0CE" stroke-width="0.5" stroke-linecap="round" stroke-linejoin="round"/>
<path d="M316.442 160.686H338.59" stroke="#96A0CE" stroke-width="0.5" stroke-linecap="round" stroke-linejoin="round"/>
<path d="M316.122 158.383H338.524" stroke="#96A0CE" stroke-width="0.5" stroke-linecap="round" stroke-linejoin="round"/>
<path d="M325.167 152.007V125.83" stroke="#96A0CE" stroke-width="0.5" stroke-linecap="round" stroke-linejoin="round"/>
<path d="M327.322 152.007V128.498" stroke="#96A0CE" stroke-width="0.5" stroke-linecap="round" stroke-linejoin="round"/>
<path d="M327.322 113.306V88.8223H302.704V111.684" stroke="#96A0CE" stroke-width="0.5" stroke-linecap="round" stroke-linejoin="round"/>
<path d="M302.705 91.0508H300.243V111.684" stroke="#96A0CE" stroke-width="0.5" stroke-linecap="round" stroke-linejoin="round"/>
<path d="M304.783 88.8211V85.9004H324.861V88.8211" stroke="#96A0CE" stroke-width="0.5" stroke-linecap="round" stroke-linejoin="round"/>
<path d="M316.091 85.8992V79.6719H314.019V85.8992" stroke="#96A0CE" stroke-width="0.5" stroke-linecap="round" stroke-linejoin="round"/>
<path d="M325.168 112.063V91.8965H304.783V111.685" stroke="#96A0CE" stroke-width="0.5" stroke-linecap="round" stroke-linejoin="round"/>
<path d="M304.783 94.5957H325.168" stroke="#96A0CE" stroke-width="0.5" stroke-linecap="round" stroke-linejoin="round"/>
<path d="M304.783 96.7109H325.168" stroke="#96A0CE" stroke-width="0.5" stroke-linecap="round" stroke-linejoin="round"/>
<path d="M304.783 99.1094H325.168" stroke="#96A0CE" stroke-width="0.5" stroke-linecap="round" stroke-linejoin="round"/>
<path d="M304.783 101.367H325.168" stroke="#96A0CE" stroke-width="0.5" stroke-linecap="round" stroke-linejoin="round"/>
<path d="M304.783 103.584H325.168" stroke="#96A0CE" stroke-width="0.5" stroke-linecap="round" stroke-linejoin="round"/>
<path d="M304.783 105.738H325.168" stroke="#96A0CE" stroke-width="0.5" stroke-linecap="round" stroke-linejoin="round"/>
<path d="M304.783 107.896H325.168" stroke="#96A0CE" stroke-width="0.5" stroke-linecap="round" stroke-linejoin="round"/>
<path d="M304.783 110.049H325.168" stroke="#96A0CE" stroke-width="0.5" stroke-linecap="round" stroke-linejoin="round"/>
<path d="M304.783 112.203H313.649" stroke="#96A0CE" stroke-width="0.5" stroke-linecap="round" stroke-linejoin="round"/>
<path d="M324.184 127.609H325.168" stroke="#96A0CE" stroke-width="0.5" stroke-linecap="round" stroke-linejoin="round"/>
<path d="M318.786 127.609H320.941" stroke="#96A0CE" stroke-width="0.5" stroke-linecap="round" stroke-linejoin="round"/>
<path d="M313.699 127.609H314.683" stroke="#96A0CE" stroke-width="0.5" stroke-linecap="round" stroke-linejoin="round"/>
<path d="M323.312 129.561H325.168" stroke="#96A0CE" stroke-width="0.5" stroke-linecap="round" stroke-linejoin="round"/>
<path d="M317.408 129.561H320.72" stroke="#96A0CE" stroke-width="0.5" stroke-linecap="round" stroke-linejoin="round"/>
<path d="M313.348 129.561H314.466" stroke="#96A0CE" stroke-width="0.5" stroke-linecap="round" stroke-linejoin="round"/>
<path d="M322.623 131.668H325.168" stroke="#96A0CE" stroke-width="0.5" stroke-linecap="round" stroke-linejoin="round"/>
<path d="M316.098 131.668H320.94" stroke="#96A0CE" stroke-width="0.5" stroke-linecap="round" stroke-linejoin="round"/>
<path d="M313.068 131.668H314.466" stroke="#96A0CE" stroke-width="0.5" stroke-linecap="round" stroke-linejoin="round"/>
<path d="M322.195 133.775H325.168" stroke="#96A0CE" stroke-width="0.5" stroke-linecap="round" stroke-linejoin="round"/>
<path d="M314.991 133.775H321.476" stroke="#96A0CE" stroke-width="0.5" stroke-linecap="round" stroke-linejoin="round"/>
<path d="M312.767 133.775H314.683" stroke="#96A0CE" stroke-width="0.5" stroke-linecap="round" stroke-linejoin="round"/>
<path d="M304.783 135.725H325.168" stroke="#96A0CE" stroke-width="0.5" stroke-linecap="round" stroke-linejoin="round"/>
<path d="M304.783 138.123H325.168" stroke="#96A0CE" stroke-width="0.5" stroke-linecap="round" stroke-linejoin="round"/>
<path d="M304.783 140.381H325.168" stroke="#96A0CE" stroke-width="0.5" stroke-linecap="round" stroke-linejoin="round"/>
<path d="M304.783 142.598H325.168" stroke="#96A0CE" stroke-width="0.5" stroke-linecap="round" stroke-linejoin="round"/>
<path d="M304.783 144.752H325.168" stroke="#96A0CE" stroke-width="0.5" stroke-linecap="round" stroke-linejoin="round"/>
<path d="M318.73 146.906H325.167" stroke="#96A0CE" stroke-width="0.5" stroke-linecap="round" stroke-linejoin="round"/>
<path d="M321.283 149.062H325.169" stroke="#96A0CE" stroke-width="0.5" stroke-linecap="round" stroke-linejoin="round"/>
<path d="M297.941 111.684V91.0508H288.649" stroke="#96A0CE" stroke-width="0.5" stroke-linecap="round" stroke-linejoin="round"/>
<path d="M293.945 107.643H278.132V109.775H293.945V107.643Z" stroke="#96A0CE" stroke-width="0.5" stroke-linecap="round" stroke-linejoin="round"/>
<path d="M278.51 105.476H293.947V102.971H281.311" stroke="#96A0CE" stroke-width="0.5" stroke-linecap="round" stroke-linejoin="round"/>
<path d="M284.135 99.1111H294.351V96.4551H285.52" stroke="#96A0CE" stroke-width="0.5" stroke-linecap="round" stroke-linejoin="round"/>
<path d="M294.351 94.5962C294.214 94.4588 286.444 94.5962 286.444 94.5962" stroke="#96A0CE" stroke-width="0.5" stroke-linecap="round" stroke-linejoin="round"/>
<path d="M54.8065 152.933C54.8065 152.933 59.5951 131.701 62.8127 124.2C59.5951 126.277 54.8065 131.367 54.8065 131.367V126.009C54.8065 126.009 56.3774 122.66 59.8639 121.99C56.0429 122.927 54.8065 123.329 54.8065 123.329V119.443C54.8065 119.443 56.0429 118.371 58.2551 118.371C56.244 117.097 54.8065 116.63 54.8065 116.63V114.018C54.8065 114.018 57.7852 114.352 61.0028 117.903C58.5219 114.018 54.8065 111.473 54.8065 111.473V109.732C54.8065 109.732 62.4782 108.727 65.427 117.501C69.0469 114.42 72.9714 111.875 78.8511 115.359C75.3468 115.627 69.1803 118.44 69.1803 118.44C69.1803 118.44 79.771 116.162 84.4641 127.684C79.8387 123.999 72.1968 121.857 72.1968 121.857C72.1968 121.857 79.3011 123.263 78.431 136.124C75.0123 130.364 71.259 124.871 68.5113 124.067C72.5333 128.287 73.7399 130.497 71.3944 137.53C69.6363 131.635 66.4345 125.474 66.4345 125.474C66.4345 125.474 67.7746 132.64 64.758 134.717C64.4235 130.296 64.4235 125.875 64.4235 125.875C64.4235 125.875 56.7816 146.7 56.7816 161.102" stroke="#96A0CE" stroke-width="0.5" stroke-linecap="round" stroke-linejoin="round"/>
<path d="M63.6151 161.101L65.214 151.997C65.214 151.997 62.6714 154.442 61.6838 154.865C61.6838 153.505 63.4499 151.197 63.4499 151.197C63.4499 151.197 60.507 152.09 59.3781 153.172C59.3781 151.197 62.297 149.693 62.297 149.693C62.297 149.693 60.0849 149.458 59.3781 149.882C59.9435 148.895 63.5196 148.895 63.5196 148.895L59.9893 147.343C59.9893 147.343 63.5674 146.026 65.6859 148.33C67.6153 145.885 71.03 146.119 71.03 146.119L68.9573 148.095C68.9573 148.095 71.476 147.906 72.4656 148.284C70.4407 148.66 69.3595 149.412 69.3595 149.412L72.7484 151.398C72.7484 151.398 70.0186 150.447 68.135 150.681C69.3117 152.14 69.1703 155.62 69.1703 155.62C69.1703 155.62 67.4281 152.985 66.6277 152.281C66.0622 154.774 64.979 161.103 64.979 161.103" stroke="#96A0CE" stroke-width="0.5" stroke-linecap="round" stroke-linejoin="round"/>
<path d="M90.6982 149.336C90.6982 149.336 92.9402 139.7 94.8039 136.994C92.5181 138.475 90.2761 140.759 90.2761 140.759C90.2761 140.759 90.4454 136.595 92.54 135.886C88.6673 136.869 85.7045 138.646 85.7045 138.646C85.7045 138.646 87.9903 134.291 91.5445 133.994C89.4717 132.494 86.4651 132.494 86.4651 132.494C86.4651 132.494 90.1049 129.977 93.7028 133.487C92.2214 130.865 89.3443 129.301 89.3443 129.301C89.3443 129.301 93.9995 127.57 96.1161 132.494C98.147 130.823 101.365 130.696 103.268 131.583C100.009 131.879 98.3162 133.612 98.3162 133.612C98.3162 133.612 104.242 131.662 106.526 139.171C104.198 136.7 98.9932 135.644 98.9932 135.644C98.9932 135.644 102.886 137.166 102.378 141.734C100.897 139.173 99.2879 138.266 99.2879 138.266C99.2879 138.266 100.262 141.817 99.2461 144.059C97.9758 139.788 95.8174 137.04 95.8174 137.04C95.8174 137.04 92.3051 145.866 92.3051 149.34" stroke="#96A0CE" stroke-width="0.5" stroke-linecap="round" stroke-linejoin="round"/>
<path d="M109.803 145.882L107.752 146.971C107.752 146.971 105.383 142.616 102.589 143.419C104.24 145.146 105.425 146.463 105.425 146.971C103.394 145.363 100.134 145.618 99.035 147.816C101.235 147.52 104.419 148.534 104.419 148.534C104.419 148.534 101.448 149.177 100.431 151.393C101.54 151.58 105.904 150.015 105.904 150.015C105.904 150.015 101.992 157.43 102.121 167.634C102.589 168.155 103.774 168.028 103.774 168.028C103.774 168.028 103.519 155.426 107.455 150.944C107.71 152.044 108.851 156.019 108.851 156.019L111.173 149.635L109.801 145.882H109.803Z" stroke="#96A0CE" stroke-width="0.5" stroke-linecap="round" stroke-linejoin="round"/>
<path d="M60.6902 111.141V90.1152H54.8065" stroke="#96A0CE" stroke-width="0.5" stroke-linecap="round" stroke-linejoin="round"/>
<path d="M54.8065 93.75H57.3895V109.875" stroke="#96A0CE" stroke-width="0.5" stroke-linecap="round" stroke-linejoin="round"/>
<path d="M67.8582 115.617V83.1797H89.3801V131.621" stroke="#96A0CE" stroke-width="0.5" stroke-linecap="round" stroke-linejoin="round"/>
<path d="M89.3542 132.951V134.71" stroke="#96A0CE" stroke-width="0.5" stroke-linecap="round" stroke-linejoin="round"/>
<path d="M89.3542 136.914V142.803" stroke="#96A0CE" stroke-width="0.5" stroke-linecap="round" stroke-linejoin="round"/>
<path d="M87.5622 142.803V137.682" stroke="#96A0CE" stroke-width="0.5" stroke-linecap="round" stroke-linejoin="round"/>
<path d="M87.5622 136.138V132.574" stroke="#96A0CE" stroke-width="0.5" stroke-linecap="round" stroke-linejoin="round"/>
<path d="M87.5622 131.962V86.1426H82.3196V123.968" stroke="#96A0CE" stroke-width="0.5" stroke-linecap="round" stroke-linejoin="round"/>
<path d="M82.3196 126.193V142.802" stroke="#96A0CE" stroke-width="0.5" stroke-linecap="round" stroke-linejoin="round"/>
<path d="M80.5954 142.804V125.219" stroke="#96A0CE" stroke-width="0.5" stroke-linecap="round" stroke-linejoin="round"/>
<path d="M80.5954 121.827V86.1426H76.211V114.14" stroke="#96A0CE" stroke-width="0.5" stroke-linecap="round" stroke-linejoin="round"/>
<path d="M74.616 113.766V86.1426H69.7975V114.514" stroke="#96A0CE" stroke-width="0.5" stroke-linecap="round" stroke-linejoin="round"/>
<path d="M213.068 141.926V114.191H202.194V142.677" stroke="#96A0CE" stroke-width="0.5" stroke-linecap="round" stroke-linejoin="round"/>
<path d="M74.9207 130.572V142.547" stroke="#96A0CE" stroke-width="0.5" stroke-linecap="round" stroke-linejoin="round"/>
<path d="M76.4877 132.951V142.549" stroke="#96A0CE" stroke-width="0.5" stroke-linecap="round" stroke-linejoin="round"/>
<path d="M69.7975 132.951V142.549" stroke="#96A0CE" stroke-width="0.5" stroke-linecap="round" stroke-linejoin="round"/>
<path d="M67.8582 146.699V128.061" stroke="#96A0CE" stroke-width="0.5" stroke-linecap="round" stroke-linejoin="round"/>
<path d="M67.8582 141.582H59.6887" stroke="#96A0CE" stroke-width="0.5" stroke-linecap="round" stroke-linejoin="round"/>
<path d="M57.5509 128.609V141.581H54.8065" stroke="#96A0CE" stroke-width="0.5" stroke-linecap="round" stroke-linejoin="round"/>
<path d="M85.3223 83.1785V81.1074H71.7827V83.1785" stroke="#96A0CE" stroke-width="0.5" stroke-linecap="round" stroke-linejoin="round"/>
<path d="M73.3098 81.1073V78.7676H83.9981V81.1073" stroke="#96A0CE" stroke-width="0.5" stroke-linecap="round" stroke-linejoin="round"/>
<path d="M77.3936 78.7677V72.6797H79.2737V78.7677" stroke="#96A0CE" stroke-width="0.5" stroke-linecap="round" stroke-linejoin="round"/>
<path d="M75.9481 78.767C75.9481 78.767 76.6629 49.4211 78.654 38.5859C81.6586 39.525 84.6213 40.6093 84.6213 40.6093" stroke="#96A0CE" stroke-width="0.5" stroke-linecap="round" stroke-linejoin="round"/>
<path d="M81.0791 78.767C81.0791 78.767 82.5505 47.3261 85.3202 38.5859C88.5955 40.4641 93.3663 42.3422 96.8368 46.0249C97.1991 51.8762 97.9936 64.0801 98.4277 79.9369C98.8617 95.7936 98.4277 124.469 98.1389 131.62" stroke="#96A0CE" stroke-width="0.5" stroke-linecap="round" stroke-linejoin="round"/>
<path d="M94.4778 130.16C94.5275 124.687 95.611 114.791 95.6847 92.6152C95.7583 70.4396 93.2788 47.2454 92.6017 42.5898" stroke="#96A0CE" stroke-width="0.5" stroke-linecap="round" stroke-linejoin="round"/>
<path d="M89.8461 36.9961V40.9832" stroke="#96A0CE" stroke-width="0.5" stroke-linecap="round" stroke-linejoin="round"/>
<path d="M81.2962 36.418V39.4461" stroke="#96A0CE" stroke-width="0.5" stroke-linecap="round" stroke-linejoin="round"/>
<path d="M101.741 131.13V74.4838L109.49 71.7402L117.152 74.9176V125.428" stroke="#96A0CE" stroke-width="0.5" stroke-linecap="round" stroke-linejoin="round"/>
<path d="M115.238 127.566V77.6621H111.296V137.749" stroke="#96A0CE" stroke-width="0.5" stroke-linecap="round" stroke-linejoin="round"/>
<path d="M114.289 73.7312V71.7396C114.289 71.1169 114.171 69.2129 111.44 69.2129C108.708 69.2129 107.987 69.2129 106.388 69.2129C104.789 69.2129 104.172 69.6247 104.172 70.912V73.6237" stroke="#96A0CE" stroke-width="0.5" stroke-linecap="round" stroke-linejoin="round"/>
<path d="M111.296 80.2852H115.238" stroke="#96A0CE" stroke-width="0.5" stroke-linecap="round" stroke-linejoin="round"/>
<path d="M111.296 82.9688H115.238" stroke="#96A0CE" stroke-width="0.5" stroke-linecap="round" stroke-linejoin="round"/>
<path d="M111.296 85.6523H115.238" stroke="#96A0CE" stroke-width="0.5" stroke-linecap="round" stroke-linejoin="round"/>
<path d="M111.296 88.3398H115.238" stroke="#96A0CE" stroke-width="0.5" stroke-linecap="round" stroke-linejoin="round"/>
<path d="M111.296 91.0234H115.238" stroke="#96A0CE" stroke-width="0.5" stroke-linecap="round" stroke-linejoin="round"/>
<path d="M111.296 93.707H115.238" stroke="#96A0CE" stroke-width="0.5" stroke-linecap="round" stroke-linejoin="round"/>
<path d="M111.296 96.3926H115.238" stroke="#96A0CE" stroke-width="0.5" stroke-linecap="round" stroke-linejoin="round"/>
<path d="M111.296 99.0762H115.238" stroke="#96A0CE" stroke-width="0.5" stroke-linecap="round" stroke-linejoin="round"/>
<path d="M111.296 101.762H115.238" stroke="#96A0CE" stroke-width="0.5" stroke-linecap="round" stroke-linejoin="round"/>
<path d="M111.296 104.445H115.238" stroke="#96A0CE" stroke-width="0.5" stroke-linecap="round" stroke-linejoin="round"/>
<path d="M111.296 107.133H115.238" stroke="#96A0CE" stroke-width="0.5" stroke-linecap="round" stroke-linejoin="round"/>
<path d="M111.296 109.816H115.238" stroke="#96A0CE" stroke-width="0.5" stroke-linecap="round" stroke-linejoin="round"/>
<path d="M111.296 112.5H115.238" stroke="#96A0CE" stroke-width="0.5" stroke-linecap="round" stroke-linejoin="round"/>
<path d="M111.296 115.186H115.238" stroke="#96A0CE" stroke-width="0.5" stroke-linecap="round" stroke-linejoin="round"/>
<path d="M111.296 117.869H115.238" stroke="#96A0CE" stroke-width="0.5" stroke-linecap="round" stroke-linejoin="round"/>
<path d="M111.296 120.553H115.238" stroke="#96A0CE" stroke-width="0.5" stroke-linecap="round" stroke-linejoin="round"/>
<path d="M111.296 123.24H115.238" stroke="#96A0CE" stroke-width="0.5" stroke-linecap="round" stroke-linejoin="round"/>
<path d="M111.296 125.926H115.238" stroke="#96A0CE" stroke-width="0.5" stroke-linecap="round" stroke-linejoin="round"/>
<path d="M111.296 128.607H115.238" stroke="#96A0CE" stroke-width="0.5" stroke-linecap="round" stroke-linejoin="round"/>
<path d="M111.296 131.293H115.238" stroke="#96A0CE" stroke-width="0.5" stroke-linecap="round" stroke-linejoin="round"/>
<path d="M111.296 133.977H115.238" stroke="#96A0CE" stroke-width="0.5" stroke-linecap="round" stroke-linejoin="round"/>
<path d="M108.113 127.566V77.6621H104.174V137.749" stroke="#96A0CE" stroke-width="0.5" stroke-linecap="round" stroke-linejoin="round"/>
<path d="M104.174 80.2852H108.113" stroke="#96A0CE" stroke-width="0.5" stroke-linecap="round" stroke-linejoin="round"/>
<path d="M104.174 82.9688H108.113" stroke="#96A0CE" stroke-width="0.5" stroke-linecap="round" stroke-linejoin="round"/>
<path d="M104.174 85.6523H108.113" stroke="#96A0CE" stroke-width="0.5" stroke-linecap="round" stroke-linejoin="round"/>
<path d="M104.174 88.3398H108.113" stroke="#96A0CE" stroke-width="0.5" stroke-linecap="round" stroke-linejoin="round"/>
<path d="M104.174 91.0234H108.113" stroke="#96A0CE" stroke-width="0.5" stroke-linecap="round" stroke-linejoin="round"/>
<path d="M104.174 93.707H108.113" stroke="#96A0CE" stroke-width="0.5" stroke-linecap="round" stroke-linejoin="round"/>
<path d="M104.174 96.3926H108.113" stroke="#96A0CE" stroke-width="0.5" stroke-linecap="round" stroke-linejoin="round"/>
<path d="M104.174 99.0762H108.113" stroke="#96A0CE" stroke-width="0.5" stroke-linecap="round" stroke-linejoin="round"/>
<path d="M104.174 101.762H108.113" stroke="#96A0CE" stroke-width="0.5" stroke-linecap="round" stroke-linejoin="round"/>
<path d="M104.174 104.445H108.113" stroke="#96A0CE" stroke-width="0.5" stroke-linecap="round" stroke-linejoin="round"/>
<path d="M104.174 107.133H108.113" stroke="#96A0CE" stroke-width="0.5" stroke-linecap="round" stroke-linejoin="round"/>
<path d="M104.174 109.816H108.113" stroke="#96A0CE" stroke-width="0.5" stroke-linecap="round" stroke-linejoin="round"/>
<path d="M104.174 112.5H108.113" stroke="#96A0CE" stroke-width="0.5" stroke-linecap="round" stroke-linejoin="round"/>
<path d="M104.174 115.186H108.113" stroke="#96A0CE" stroke-width="0.5" stroke-linecap="round" stroke-linejoin="round"/>
<path d="M104.174 117.869H108.113" stroke="#96A0CE" stroke-width="0.5" stroke-linecap="round" stroke-linejoin="round"/>
<path d="M104.174 120.553H108.113" stroke="#96A0CE" stroke-width="0.5" stroke-linecap="round" stroke-linejoin="round"/>
<path d="M104.174 123.24H108.113" stroke="#96A0CE" stroke-width="0.5" stroke-linecap="round" stroke-linejoin="round"/>
<path d="M104.174 125.926H108.113" stroke="#96A0CE" stroke-width="0.5" stroke-linecap="round" stroke-linejoin="round"/>
<path d="M104.174 128.607H108.113" stroke="#96A0CE" stroke-width="0.5" stroke-linecap="round" stroke-linejoin="round"/>
<path d="M104.174 131.293H108.113" stroke="#96A0CE" stroke-width="0.5" stroke-linecap="round" stroke-linejoin="round"/>
<path d="M104.174 133.977H108.113" stroke="#96A0CE" stroke-width="0.5" stroke-linecap="round" stroke-linejoin="round"/>
<path d="M123.006 108.3V24.7344L142.162 43.5655V107.705" stroke="#96A0CE" stroke-width="0.5" stroke-linecap="round" stroke-linejoin="round"/>
<path d="M138.726 107.13V43.6895L126.257 30.9922" stroke="#96A0CE" stroke-width="0.5" stroke-linecap="round" stroke-linejoin="round"/>
<path d="M126.257 27.9316V109.016" stroke="#96A0CE" stroke-width="0.5" stroke-linecap="round" stroke-linejoin="round"/>
<path d="M126.257 47.3086H135.594V108.3" stroke="#96A0CE" stroke-width="0.5" stroke-linecap="round" stroke-linejoin="round"/>
<path d="M126.257 103.555H135.594" stroke="#96A0CE" stroke-width="0.5" stroke-linecap="round" stroke-linejoin="round"/>
<path d="M126.257 100.447H135.594" stroke="#96A0CE" stroke-width="0.5" stroke-linecap="round" stroke-linejoin="round"/>
<path d="M126.257 97.3359H135.594" stroke="#96A0CE" stroke-width="0.5" stroke-linecap="round" stroke-linejoin="round"/>
<path d="M126.257 94.2266H135.594" stroke="#96A0CE" stroke-width="0.5" stroke-linecap="round" stroke-linejoin="round"/>
<path d="M126.257 91.1172H135.594" stroke="#96A0CE" stroke-width="0.5" stroke-linecap="round" stroke-linejoin="round"/>
<path d="M126.257 88.0078H135.594" stroke="#96A0CE" stroke-width="0.5" stroke-linecap="round" stroke-linejoin="round"/>
<path d="M126.257 84.8984H135.594" stroke="#96A0CE" stroke-width="0.5" stroke-linecap="round" stroke-linejoin="round"/>
<path d="M126.257 81.7871H135.594" stroke="#96A0CE" stroke-width="0.5" stroke-linecap="round" stroke-linejoin="round"/>
<path d="M126.257 78.6777H135.594" stroke="#96A0CE" stroke-width="0.5" stroke-linecap="round" stroke-linejoin="round"/>
<path d="M126.257 75.5684H135.594" stroke="#96A0CE" stroke-width="0.5" stroke-linecap="round" stroke-linejoin="round"/>
<path d="M126.257 72.459H135.594" stroke="#96A0CE" stroke-width="0.5" stroke-linecap="round" stroke-linejoin="round"/>
<path d="M126.257 69.3496H135.594" stroke="#96A0CE" stroke-width="0.5" stroke-linecap="round" stroke-linejoin="round"/>
<path d="M126.257 66.2383H135.594" stroke="#96A0CE" stroke-width="0.5" stroke-linecap="round" stroke-linejoin="round"/>
<path d="M126.257 63.1289H135.594" stroke="#96A0CE" stroke-width="0.5" stroke-linecap="round" stroke-linejoin="round"/>
<path d="M126.257 60.0195H135.594" stroke="#96A0CE" stroke-width="0.5" stroke-linecap="round" stroke-linejoin="round"/>
<path d="M126.257 56.9121H135.594" stroke="#96A0CE" stroke-width="0.5" stroke-linecap="round" stroke-linejoin="round"/>
<path d="M126.257 53.8008H135.594" stroke="#96A0CE" stroke-width="0.5" stroke-linecap="round" stroke-linejoin="round"/>
<path d="M126.257 50.3848H135.594" stroke="#96A0CE" stroke-width="0.5" stroke-linecap="round" stroke-linejoin="round"/>
<path d="M155.095 118.696C155.095 118.696 153.657 107.285 153.89 88.0226C154.123 68.7597 156.395 40.5856 156.395 40.5856L167.812 35.0566C167.812 35.0566 171.424 56.711 172.123 68.0614C172.822 79.4118 172.879 87.8435 172.879 97.3357C172.879 106.828 172.262 129.171 171.203 134.355" stroke="#96A0CE" stroke-width="0.5" stroke-linecap="round" stroke-linejoin="round"/>
<path d="M167.967 35.9925L174.397 33.9512L178.532 46.7579C178.532 46.7579 179.814 86.5729 179.872 91.5209C179.93 96.469 180.396 117.511 179.348 137.738" stroke="#96A0CE" stroke-width="0.5" stroke-linecap="round" stroke-linejoin="round"/>
<path d="M178.178 45.6617L178.417 33.9512L174.902 35.5189" stroke="#96A0CE" stroke-width="0.5" stroke-linecap="round" stroke-linejoin="round"/>
<path d="M167.121 35.3936L166.474 33.9512L160.067 37.2996L159.83 38.9231" stroke="#96A0CE" stroke-width="0.5" stroke-linecap="round" stroke-linejoin="round"/>
<path d="M168.979 42.4121H156.254" stroke="#96A0CE" stroke-width="0.5" stroke-linecap="round" stroke-linejoin="round"/>
<path d="M156.054 45.1777H169.347" stroke="#96A0CE" stroke-width="0.5" stroke-linecap="round" stroke-linejoin="round"/>
<path d="M169.729 47.9453H155.879" stroke="#96A0CE" stroke-width="0.5" stroke-linecap="round" stroke-linejoin="round"/>
<path d="M155.694 50.7109H170.102" stroke="#96A0CE" stroke-width="0.5" stroke-linecap="round" stroke-linejoin="round"/>
<path d="M170.48 53.4785H155.507" stroke="#96A0CE" stroke-width="0.5" stroke-linecap="round" stroke-linejoin="round"/>
<path d="M155.322 56.2441H170.848" stroke="#96A0CE" stroke-width="0.5" stroke-linecap="round" stroke-linejoin="round"/>
<path d="M171.207 59.0117H155.141" stroke="#96A0CE" stroke-width="0.5" stroke-linecap="round" stroke-linejoin="round"/>
<path d="M154.977 61.7773H171.511" stroke="#96A0CE" stroke-width="0.5" stroke-linecap="round" stroke-linejoin="round"/>
<path d="M171.778 64.543H154.828" stroke="#96A0CE" stroke-width="0.5" stroke-linecap="round" stroke-linejoin="round"/>
<path d="M154.679 67.3086H172.035" stroke="#96A0CE" stroke-width="0.5" stroke-linecap="round" stroke-linejoin="round"/>
<path d="M172.202 70.0762H154.521" stroke="#96A0CE" stroke-width="0.5" stroke-linecap="round" stroke-linejoin="round"/>
<path d="M154.396 72.8418H172.356" stroke="#96A0CE" stroke-width="0.5" stroke-linecap="round" stroke-linejoin="round"/>
<path d="M172.485 75.6074H154.276" stroke="#96A0CE" stroke-width="0.5" stroke-linecap="round" stroke-linejoin="round"/>
<path d="M154.159 78.375H172.485" stroke="#96A0CE" stroke-width="0.5" stroke-linecap="round" stroke-linejoin="round"/>
<path d="M172.684 81.1406H154.071" stroke="#96A0CE" stroke-width="0.5" stroke-linecap="round" stroke-linejoin="round"/>
<path d="M153.994 83.9082H172.76" stroke="#96A0CE" stroke-width="0.5" stroke-linecap="round" stroke-linejoin="round"/>
<path d="M172.814 86.6738H153.92" stroke="#96A0CE" stroke-width="0.5" stroke-linecap="round" stroke-linejoin="round"/>
<path d="M153.88 89.4434H172.851" stroke="#96A0CE" stroke-width="0.5" stroke-linecap="round" stroke-linejoin="round"/>
<path d="M172.852 92.209H153.92" stroke="#96A0CE" stroke-width="0.5" stroke-linecap="round" stroke-linejoin="round"/>
<path d="M153.92 94.9746H172.852" stroke="#96A0CE" stroke-width="0.5" stroke-linecap="round" stroke-linejoin="round"/>
<path d="M172.881 97.7402H153.88" stroke="#96A0CE" stroke-width="0.5" stroke-linecap="round" stroke-linejoin="round"/>
<path d="M153.942 100.508H172.881" stroke="#96A0CE" stroke-width="0.5" stroke-linecap="round" stroke-linejoin="round"/>
<path d="M172.814 103.273H154.006" stroke="#96A0CE" stroke-width="0.5" stroke-linecap="round" stroke-linejoin="round"/>
<path d="M154.101 106.041H172.851" stroke="#96A0CE" stroke-width="0.5" stroke-linecap="round" stroke-linejoin="round"/>
<path d="M172.76 108.807H154.276" stroke="#96A0CE" stroke-width="0.5" stroke-linecap="round" stroke-linejoin="round"/>
<path d="M154.472 111.572H172.638" stroke="#96A0CE" stroke-width="0.5" stroke-linecap="round" stroke-linejoin="round"/>
<path d="M172.557 114.338H154.665" stroke="#96A0CE" stroke-width="0.5" stroke-linecap="round" stroke-linejoin="round"/>
<path d="M172.437 117.105H154.933" stroke="#96A0CE" stroke-width="0.5" stroke-linecap="round" stroke-linejoin="round"/>
<path d="M172.34 119.871H155.678" stroke="#96A0CE" stroke-width="0.5" stroke-linecap="round" stroke-linejoin="round"/>
<path d="M172.228 122.639C171.402 122.639 153.038 122.639 153.038 122.639" stroke="#96A0CE" stroke-width="0.5" stroke-linecap="round" stroke-linejoin="round"/>
<path d="M172.063 125.404H152.512" stroke="#96A0CE" stroke-width="0.5" stroke-linecap="round" stroke-linejoin="round"/>
<path d="M191.608 103.555H183.022V145.682" stroke="#96A0CE" stroke-width="0.5" stroke-linecap="round" stroke-linejoin="round"/>
<path d="M191.608 100.508H185.372V103.556" stroke="#96A0CE" stroke-width="0.5" stroke-linecap="round" stroke-linejoin="round"/>
<path d="M191.608 106.375H185.372V154.188" stroke="#96A0CE" stroke-width="0.5" stroke-linecap="round" stroke-linejoin="round"/>
<path d="M185.372 108.178H191.608" stroke="#96A0CE" stroke-width="0.5" stroke-linecap="round" stroke-linejoin="round"/>
<path d="M185.372 110.152H191.608" stroke="#96A0CE" stroke-width="0.5" stroke-linecap="round" stroke-linejoin="round"/>
<path d="M185.372 112.125H191.608" stroke="#96A0CE" stroke-width="0.5" stroke-linecap="round" stroke-linejoin="round"/>
<path d="M185.372 114.098H191.608" stroke="#96A0CE" stroke-width="0.5" stroke-linecap="round" stroke-linejoin="round"/>
<path d="M185.372 116.072H191.608" stroke="#96A0CE" stroke-width="0.5" stroke-linecap="round" stroke-linejoin="round"/>
<path d="M185.372 118.045H191.608" stroke="#96A0CE" stroke-width="0.5" stroke-linecap="round" stroke-linejoin="round"/>
<path d="M185.372 120.02H191.608" stroke="#96A0CE" stroke-width="0.5" stroke-linecap="round" stroke-linejoin="round"/>
<path d="M204.265 120.02H210.501" stroke="#96A0CE" stroke-width="0.5" stroke-linecap="round" stroke-linejoin="round"/>
<path d="M204.265 117.299H210.501" stroke="#96A0CE" stroke-width="0.5" stroke-linecap="round" stroke-linejoin="round"/>
<path d="M204.265 122.996H210.501" stroke="#96A0CE" stroke-width="0.5" stroke-linecap="round" stroke-linejoin="round"/>
<path d="M185.372 121.994H191.608" stroke="#96A0CE" stroke-width="0.5" stroke-linecap="round" stroke-linejoin="round"/>
<path d="M185.372 123.967H191.608" stroke="#96A0CE" stroke-width="0.5" stroke-linecap="round" stroke-linejoin="round"/>
<path d="M185.372 125.941H191.608" stroke="#96A0CE" stroke-width="0.5" stroke-linecap="round" stroke-linejoin="round"/>
<path d="M185.372 127.916H191.608" stroke="#96A0CE" stroke-width="0.5" stroke-linecap="round" stroke-linejoin="round"/>
<path d="M185.372 129.889H191.608" stroke="#96A0CE" stroke-width="0.5" stroke-linecap="round" stroke-linejoin="round"/>
<path d="M185.372 131.863H191.608" stroke="#96A0CE" stroke-width="0.5" stroke-linecap="round" stroke-linejoin="round"/>
<path d="M185.372 133.838H191.608" stroke="#96A0CE" stroke-width="0.5" stroke-linecap="round" stroke-linejoin="round"/>
<path d="M185.372 135.812H191.608" stroke="#96A0CE" stroke-width="0.5" stroke-linecap="round" stroke-linejoin="round"/>
<path d="M185.372 137.785H191.608" stroke="#96A0CE" stroke-width="0.5" stroke-linecap="round" stroke-linejoin="round"/>
<path d="M185.372 139.76H191.608" stroke="#96A0CE" stroke-width="0.5" stroke-linecap="round" stroke-linejoin="round"/>
<path d="M185.372 141.732H191.608" stroke="#96A0CE" stroke-width="0.5" stroke-linecap="round" stroke-linejoin="round"/>
<path d="M185.372 143.707H191.608" stroke="#96A0CE" stroke-width="0.5" stroke-linecap="round" stroke-linejoin="round"/>
<path d="M185.372 145.682H191.608" stroke="#96A0CE" stroke-width="0.5" stroke-linecap="round" stroke-linejoin="round"/>
<path d="M48.2098 200.721L349.25 200.721V0.24913L48.2098 0.24913V200.721Z" stroke="#FDFCFB" stroke-width="0.5" stroke-linecap="round" stroke-linejoin="round"/>
<path d="M198.728 194.781L342.538 194.781V5.74762L198.728 5.74762L198.728 194.781Z" stroke="#FDFCFB" stroke-width="0.5" stroke-linecap="round" stroke-linejoin="round"/>
<path d="M54.8045 194.781L191.608 194.781L191.608 5.74762L54.8045 5.74762L54.8045 194.781Z" stroke="#FDFCFB" stroke-width="0.5" stroke-linecap="round" stroke-linejoin="round"/>
<path d="M0.25 171.419V178.512H6.5897V260.245H16.8758V253.473H64.4713V260.245L74.7574 260.174V253.473C74.7574 253.473 78.7695 253.532 80.0438 253.473C81.4794 256.165 82.7378 257.408 85.0435 258.779C87.3472 260.15 90.7042 259.963 90.7042 259.963C90.7042 259.963 117.528 259.963 120.86 259.943C124.191 259.923 125.626 259.493 128.201 257.983C130.775 256.473 132.36 253.471 132.36 253.471H139.094V260.243H149.38V178.568L167.902 178.512V215.337C167.902 215.337 167.902 238.778 167.902 241.428C165.504 243.497 163.714 249.732 163.051 252.76C162.388 255.789 162.209 258.996 162.209 258.996H167.904V260.243H175.068V258.966L194.18 258.996L194.095 260.217L250.342 260.243V247.458H286.01C286.01 247.458 286.52 246.38 285.544 244.83C284.569 243.28 281.761 243.189 281.761 243.189L261.147 241.362V227.465H258.72V212.454H264.821C264.821 212.454 286.749 212.454 289.555 212.454C292.36 212.454 294.092 211.603 295.615 210.027C297.139 208.451 297.441 205.409 297.169 203.008C296.896 200.606 295.615 199.068 293.969 197.809C292.322 196.55 289.805 196.458 288.535 196.458C287.263 196.458 274.45 196.458 270.273 196.458C271.834 195.306 274.711 192.097 276.449 189.697C278.187 187.298 279.163 184.262 279.163 184.262L284.153 184.507C284.153 184.507 290.307 184.656 295.396 184.732C300.484 184.807 303.389 181.835 304.731 180.193C306.073 178.552 306.455 176.266 307.106 172.609C307.757 168.95 309.888 154.297 309.888 154.297C309.888 154.297 312.677 134.601 313.33 129.766C313.983 124.933 314.107 123.857 313.97 121.706C313.83 119.556 313.01 116.156 310.579 113.82C308.148 111.484 304.611 111.681 304.611 111.681H297.951L266.113 111.621C266.113 111.621 267.694 111.138 268.68 110.8C274.888 108.665 277.668 106.118 279.38 104.767C283.436 101.568 286.19 96.9345 287.438 94.4097C288.686 91.885 288.953 89.6507 289.083 88.7733C289.212 87.8959 295.952 63.9059 295.088 63.5438C293.441 62.0854 290.899 61.5681 290.899 61.5681C290.899 61.5681 290.435 61.2279 290.387 61.0608C289.582 57.6209 287.315 52.9315 285.542 50.3868C282.697 46.3043 280.276 44.255 279.446 43.5249C274.205 38.9131 268.118 36.3764 268.118 36.3764C263.007 33.7561 255.341 32.2083 254.7 32.067C248.918 30.7997 242.479 30.6962 238.863 30.6365C233.517 30.547 226.504 31.0842 221.146 32.3296C215.788 33.5751 212.869 35.3597 212.441 35.6204C212.013 35.881 211.911 35.9805 211.822 36.1794C209.255 36.5614 204.871 38.3162 200.363 40.8449C195.857 43.3736 192.301 46.6166 190.148 48.5485C187.996 50.4803 185.535 53.3692 184.683 54.3719C184.922 57.2229 188.287 58.7529 188.287 58.7529C188.287 58.7529 187.377 59.1389 187.044 59.9088C186.712 60.6788 186.815 62.36 186.807 62.7639C185.933 62.9688 185.27 63.5716 184.723 64.2103C183.245 64.5027 181.77 65.3065 180.581 67.7119C179.392 70.1173 179.434 72.8012 179.464 75.8392C179.494 78.8773 180.378 81.7164 181.284 83.2105C182.19 84.7047 183.912 85.2757 184.723 85.5164C186.072 88.2322 188.225 88.0252 188.225 88.0252C188.225 88.0252 188.498 90.0586 189.911 93.8168C191.325 97.5751 194.272 101.208 195.859 103.058C197.446 104.907 201.51 108.697 208.124 111.355C214.739 114.013 219.818 114.244 219.818 114.244C219.818 114.244 219.726 114.59 219.302 115.342C216.666 115.31 215.652 116.744 214.713 117.966C213.773 119.186 213.315 121.818 213.12 122.92C210.452 123.101 206.633 124.138 203.148 126.052C199.664 127.966 197.878 130.811 197.091 132.056C196.303 133.304 195.713 134.837 195.297 137.002C194.883 139.165 194.933 140.924 194.933 140.924C193.802 141.765 192.836 142.545 191.646 144.021C190.455 145.496 189.756 147.177 189.366 148.132C188.816 147.969 187.986 148.038 187.986 148.038L186.708 149.674L185.507 149.238C185.507 149.238 183.898 145.307 183.028 142.591C182.158 139.875 181.821 138.805 180.597 137.392C179.372 135.98 177.186 135.888 176.666 135.888C176.147 135.888 171.848 135.888 171.848 135.888L167.372 125.083C167.372 125.083 159.167 125.126 157.757 125.126C155.079 117.713 153.066 114.97 152.18 113.615C152.11 111.512 150.973 111.233 150.593 111.112C147.734 107.803 144.916 107.167 144.516 107.055C144.116 106.944 142.79 106.777 142.79 106.777C142.79 106.777 127.231 106.777 124.621 106.777C122.516 107.984 122.247 110.133 122.13 110.949C119.615 111.311 119.657 113.165 119.657 113.619C119.657 114.073 119.657 121.44 119.657 124.48C116.605 124.754 114.273 128.64 113.178 131.547C112.085 134.454 111.223 138.986 110.384 142.929C109.546 146.872 109.397 148.955 108.813 152.161C108.23 155.366 107.866 161.669 107.698 165.226C107.531 168.783 107.647 171.423 107.647 171.423C107.647 171.423 103.879 171.423 101.462 171.423C105.044 169.502 105.89 167.699 105.89 167.699C105.89 167.699 99.0729 167.578 95.8672 167.578C97.8364 166.473 98.589 165.632 100.082 163.583C101.576 161.533 101.55 157.676 101.55 156.54V149.335H78.3792V151.397C76.9655 151.454 74.3154 152.081 72.83 153.505C71.3426 154.932 70.8508 156.211 71.0878 158.147C71.3247 160.083 72.4059 161.5 74.5901 162.85C76.7724 164.201 79.4385 164.261 80.6073 164.261C81.7303 165.992 84.2331 167.647 84.2331 167.647C84.2331 167.647 76.6848 167.647 74.2736 167.647C75.7848 170.745 78.4708 171.423 78.4708 171.423C78.4708 171.423 71.5159 171.423 70.134 171.423C70.1002 169.625 69.2579 169.064 68.9453 168.966C68.2803 167.343 68.7681 164.947 68.9672 164.299C70.4148 163.38 69.8314 161.102 69.8314 161.102C69.8314 161.102 11.0239 161.102 9.84915 161.102C8.97505 163.372 9.93875 164.247 10.3828 164.687C10.8328 165.853 10.6635 168.176 10.3828 168.574C9.15624 168.817 9.50867 171.421 9.50867 171.421H0.25V171.419ZM78.8491 161.1C78.8491 161.1 76.7027 161.106 75.4822 160.433C74.2616 159.761 73.7141 159.102 73.7877 157.302C73.8614 155.501 75.0959 153.573 78.3752 153.504V158.366C78.3752 159.649 78.8511 161.1 78.8511 161.1H78.8491ZM156.634 171.139C157.695 170.136 157.864 168.469 157.864 168.469C157.864 168.469 202.517 168.457 203.349 168.469C203.379 170.789 204.548 171.199 204.548 171.199H156.775C156.775 171.199 156.775 171.197 156.634 171.139ZM130.664 168.397C130.664 168.397 148.984 168.483 150.292 168.397C150.469 170.56 151.797 171.209 151.797 171.209H130.684L130.664 168.397ZM122.249 114.729C122.249 114.729 122.634 115.986 123.438 116.78C124.242 117.574 125.945 117.58 126.62 117.58C127.295 117.58 137.985 117.564 137.985 117.564C137.985 117.564 138.973 118.947 140.028 120.839C141.081 122.731 141.609 124.494 141.609 124.494L122.267 124.416L122.247 114.729H122.249Z" fill="#6B1D2A"/>
<path d="M211.619 36.2007C209.1 36.6384 196.5 40.142 184.669 54.3713C188.066 54.3713 194.529 51.7451 202.197 51.7451C209.864 51.7451 230.789 56.8901 248.536 56.8901C266.282 56.8901 278.052 51.8505 282.498 46.5464C280.308 43.946 268.228 31.7858 243.524 30.7473C218.82 29.7087 211.617 36.2007 211.617 36.2007H211.619Z" stroke="#FDFCFB" stroke-width="0.5" stroke-linecap="round" stroke-linejoin="round"/>
<path d="M279.702 43.7612C274.924 41.704 249.087 31.8497 211.616 36.2009" stroke="#FDFCFB" stroke-width="0.5" stroke-linecap="round" stroke-linejoin="round"/>
<path d="M190.246 58.5352C187.546 58.5352 186.793 59.1619 186.793 61.7344C186.793 64.3069 187.295 73.5922 189.368 78.9242C191.441 84.2562 195.835 90.0299 206.133 90.0299C216.431 90.0299 223.462 85.6389 226.225 77.9831C228.989 70.3293 227.607 62.2358 227.167 61.231C226.727 60.2263 226.289 58.5332 223.4 58.5332C220.511 58.5332 190.248 58.5332 190.248 58.5332L190.246 58.5352Z" stroke="#FDFCFB" stroke-width="0.5" stroke-linecap="round" stroke-linejoin="round"/>
<path d="M195.333 60.9824C194.015 61.0461 191.001 61.4838 190.624 63.6803C190.248 65.8767 190.122 75.538 193.7 80.494C197.279 85.45 203.541 86.8307 207.348 86.8307C211.155 86.8307 219.004 85.5753 222.394 77.7345C225.785 69.8917 223.963 64.872 223.211 63.6186C222.458 62.3632 220.636 60.9844 218 60.9844C215.364 60.9844 195.333 60.9844 195.333 60.9844V60.9824Z" stroke="#FDFCFB" stroke-width="0.5" stroke-linecap="round" stroke-linejoin="round"/>
<path d="M216.995 73.9063C215.551 72.3385 213.289 71.3338 210.717 72.8399C208.142 74.346 205.066 74.3042 202.555 72.0978" stroke="#FDFCFB" stroke-width="0.5" stroke-linecap="round" stroke-linejoin="round"/>
<path d="M251.879 73.9063C253.322 72.3385 255.584 71.3338 258.157 72.8399C260.731 74.346 263.808 74.3042 266.318 72.0978" stroke="#FDFCFB" stroke-width="0.5" stroke-linecap="round" stroke-linejoin="round"/>
<path d="M241.105 58.975C239.414 59.1122 237.023 59.916 236.521 62.1125C236.019 64.309 234.512 72.0881 238.813 80.683C243.114 89.2779 248.89 90.9093 257.932 90.9093C266.973 90.9093 273.755 85.7643 276.706 79.7419C279.657 73.7196 278.275 62.6775 278.024 61.4221C277.773 60.1667 277.397 59.4763 275.324 59.2257C273.251 58.975 250.397 58.2209 241.105 58.975Z" stroke="#FDFCFB" stroke-width="0.5" stroke-linecap="round" stroke-linejoin="round"/>
<path d="M246.254 61.7969C244.997 61.7969 241.356 62.0476 240.227 65.0597C239.096 68.0719 239.221 77.2935 245.125 83.4432C251.027 89.591 261.952 87.4582 266.223 85.8267C270.492 84.1953 274.072 78.2983 274.384 71.7725C274.699 65.2468 274.761 61.7969 270.241 61.7969C265.721 61.7969 246.256 61.7969 246.256 61.7969H246.254Z" stroke="#FDFCFB" stroke-width="0.5" stroke-linecap="round" stroke-linejoin="round"/>
<path d="M282.498 46.543C283.804 48.0013 287.866 52.2948 290.52 61.5661" stroke="#FDFCFB" stroke-width="0.5" stroke-linecap="round" stroke-linejoin="round"/>
<path d="M284.382 64.3507L278.14 62.1602" stroke="#FDFCFB" stroke-width="0.5" stroke-linecap="round" stroke-linejoin="round"/>
<path d="M282.613 69.0694L278.56 68.0547" stroke="#FDFCFB" stroke-width="0.5" stroke-linecap="round" stroke-linejoin="round"/>
<path d="M241.873 92.2207C240.306 93.5776 231.956 97.8571 224.378 92.2207" stroke="#FDFCFB" stroke-width="0.5" stroke-linecap="round" stroke-linejoin="round"/>
<path d="M236.193 72.5059C234.821 71.2983 230.436 70.0051 227.623 72.0981" stroke="#FDFCFB" stroke-width="0.5" stroke-linecap="round" stroke-linejoin="round"/>
<path d="M235.854 67.6207C234.821 67.0178 230.934 65.5117 227.902 67.3799" stroke="#FDFCFB" stroke-width="0.5" stroke-linecap="round" stroke-linejoin="round"/>
<path d="M192.97 52.8145C191.969 53.9624 190.353 56.6165 190.246 58.5344" stroke="#FDFCFB" stroke-width="0.5" stroke-linecap="round" stroke-linejoin="round"/>
<path d="M184.669 54.3711C184.607 55.5489 185.348 57.1465 188.273 58.7521" stroke="#FDFCFB" stroke-width="0.5" stroke-linecap="round" stroke-linejoin="round"/>
<path d="M187.526 71.0312C187.301 74.0574 186.315 86.2931 190.441 95.0551C194.567 103.817 204.667 114.656 227.107 114.656C249.547 114.656 261.165 114.099 271.431 109.726C281.698 105.353 288.346 95.4312 289.001 89.18" stroke="#FDFCFB" stroke-width="0.5" stroke-linecap="round" stroke-linejoin="round"/>
<path d="M186.793 62.7617C185.722 63.086 184.235 63.6451 183.586 67.4053C182.934 71.1676 182.61 79.9913 183.958 83.7535C185.306 87.5158 186.658 87.8301 188.213 88.0211" stroke="#FDFCFB" stroke-width="0.5" stroke-linecap="round" stroke-linejoin="round"/>
<path d="M184.709 64.209C183.538 64.203 179.402 66.0135 179.402 73.6773C179.402 81.3411 181.047 84.6736 184.709 85.5151" stroke="#FDFCFB" stroke-width="0.5" stroke-linecap="round" stroke-linejoin="round"/>
<path d="M230.526 125.537C232.234 125.537 233.618 124.154 233.618 122.447C233.618 120.741 232.234 119.357 230.526 119.357C228.818 119.357 227.434 120.741 227.434 122.447C227.434 124.154 228.818 125.537 230.526 125.537Z" stroke="#FDFCFB" stroke-width="0.5" stroke-linecap="round" stroke-linejoin="round"/>
<path d="M229.083 137.281C230.222 137.281 231.146 136.358 231.146 135.219C231.146 134.081 230.222 133.158 229.083 133.158C227.943 133.158 227.02 134.081 227.02 135.219C227.02 136.358 227.943 137.281 229.083 137.281Z" stroke="#FDFCFB" stroke-width="0.5" stroke-linecap="round" stroke-linejoin="round"/>
<path d="M228.107 120.523C227.062 119.434 224.208 115.71 219.531 115.354C214.854 114.998 213.546 120.027 213.11 122.918C212.674 125.809 213.229 131.989 216.519 131.949C219.808 131.909 226.223 129.203 228.744 124.971" stroke="#FDFCFB" stroke-width="0.5" stroke-linecap="round" stroke-linejoin="round"/>
<path d="M227.454 122.799C226.825 123.195 223.456 123.553 221.711 122.799" stroke="#FDFCFB" stroke-width="0.5" stroke-linecap="round" stroke-linejoin="round"/>
<path d="M233.152 120.814C234.674 119.709 238.994 116.383 243.313 116.383C247.634 116.383 248.506 121.729 248.506 124.779C248.506 127.829 247.99 133.493 243.869 133.493C239.747 133.493 234.863 129.749 231.655 125.324" stroke="#FDFCFB" stroke-width="0.5" stroke-linecap="round" stroke-linejoin="round"/>
<path d="M233.517 123.242C234.634 123.672 238.277 124.169 240.081 123.644" stroke="#FDFCFB" stroke-width="0.5" stroke-linecap="round" stroke-linejoin="round"/>
<path d="M109.534 250.793C111.828 246.59 112.529 238.311 112.338 230.351C112.147 222.391 111.191 213.73 110.171 206.152C109.152 198.574 107.623 182.717 107.623 169.216C107.623 155.715 109.853 144.444 112.212 134.699C114.57 124.956 119.42 124.477 119.42 124.477H142.622C140.265 125.591 137.491 126.9 134.776 135.944C132.06 144.989 130.662 162.256 130.662 169.082C130.662 175.907 131.434 188.176 132.802 197.696C135.683 217.759 136.177 231.244 136.177 238.822C136.177 246.4 132.737 259.965 121.582 259.965C110.428 259.965 107.88 245.955 107.88 245.955H78.1802C78.1802 245.955 78.6103 259.965 90.2961 259.965C101.982 259.965 121.58 259.965 121.58 259.965" stroke="#FDFCFB" stroke-width="0.5" stroke-linecap="round" stroke-linejoin="round"/>
<path d="M116.423 132.49H129.015" stroke="#FDFCFB" stroke-width="0.5" stroke-linecap="round" stroke-linejoin="round"/>
<path d="M115.237 135.883H120.487" stroke="#FDFCFB" stroke-width="0.5" stroke-linecap="round" stroke-linejoin="round"/>
<path d="M114.524 138.955H117.862" stroke="#FDFCFB" stroke-width="0.5" stroke-linecap="round" stroke-linejoin="round"/>
<path d="M119.099 138.955H120" stroke="#FDFCFB" stroke-width="0.5" stroke-linecap="round" stroke-linejoin="round"/>
<path d="M113.773 142.254H124.949" stroke="#FDFCFB" stroke-width="0.5" stroke-linecap="round" stroke-linejoin="round"/>
<path d="M113.361 145.588H129.336" stroke="#FDFCFB" stroke-width="0.5" stroke-linecap="round" stroke-linejoin="round"/>
<path d="M112.686 148.959H128.699" stroke="#FDFCFB" stroke-width="0.5" stroke-linecap="round" stroke-linejoin="round"/>
<path d="M112.011 152.369H115.536" stroke="#FDFCFB" stroke-width="0.5" stroke-linecap="round" stroke-linejoin="round"/>
<path d="M112.011 155.705H115.237" stroke="#FDFCFB" stroke-width="0.5" stroke-linecap="round" stroke-linejoin="round"/>
<path d="M116.999 154.926H118.305L116.999 156.575H118.305" stroke="#FDFCFB" stroke-width="0.5" stroke-linecap="round" stroke-linejoin="round"/>
<path d="M111.434 163.057H121.349" stroke="#FDFCFB" stroke-width="0.5" stroke-linecap="round" stroke-linejoin="round"/>
<path d="M117.218 158.326V159.657" stroke="#FDFCFB" stroke-width="0.5" stroke-linecap="round" stroke-linejoin="round"/>
<path d="M117.897 158.992H116.541" stroke="#FDFCFB" stroke-width="0.5" stroke-linecap="round" stroke-linejoin="round"/>
<path d="M117.897 160.576H116.541" stroke="#FDFCFB" stroke-width="0.5" stroke-linecap="round" stroke-linejoin="round"/>
<path d="M121.19 159.658H122.863" stroke="#FDFCFB" stroke-width="0.5" stroke-linecap="round" stroke-linejoin="round"/>
<path d="M111.175 159.658H112.848" stroke="#FDFCFB" stroke-width="0.5" stroke-linecap="round" stroke-linejoin="round"/>
<path d="M119.956 160.045H118.526L119.241 158.992L119.956 160.045Z" stroke="#FDFCFB" stroke-width="0.5" stroke-linecap="round" stroke-linejoin="round"/>
<path d="M114.602 160.433C115.03 160.433 115.376 160.086 115.376 159.659C115.376 159.231 115.03 158.885 114.602 158.885C114.174 158.885 113.827 159.231 113.827 159.659C113.827 160.086 114.174 160.433 114.602 160.433Z" stroke="#FDFCFB" stroke-width="0.5" stroke-linecap="round" stroke-linejoin="round"/>
<path d="M111.018 166.387H116.999" stroke="#FDFCFB" stroke-width="0.5" stroke-linecap="round" stroke-linejoin="round"/>
<path d="M111.018 170.402H127.247" stroke="#FDFCFB" stroke-width="0.5" stroke-linecap="round" stroke-linejoin="round"/>
<path d="M111.018 173.865H127.345" stroke="#FDFCFB" stroke-width="0.5" stroke-linecap="round" stroke-linejoin="round"/>
<path d="M111.018 177.301H114.676" stroke="#FDFCFB" stroke-width="0.5" stroke-linecap="round" stroke-linejoin="round"/>
<path d="M111.018 181.006H114.507" stroke="#FDFCFB" stroke-width="0.5" stroke-linecap="round" stroke-linejoin="round"/>
<path d="M111.477 184.66H123.394" stroke="#FDFCFB" stroke-width="0.5" stroke-linecap="round" stroke-linejoin="round"/>
<path d="M111.477 188.219H128.336" stroke="#FDFCFB" stroke-width="0.5" stroke-linecap="round" stroke-linejoin="round"/>
<path d="M112.011 191.703H121.361" stroke="#FDFCFB" stroke-width="0.5" stroke-linecap="round" stroke-linejoin="round"/>
<path d="M112.447 195.406H116.397" stroke="#FDFCFB" stroke-width="0.5" stroke-linecap="round" stroke-linejoin="round"/>
<path d="M127.678 202.465H124.408" stroke="#FDFCFB" stroke-width="0.5" stroke-linecap="round" stroke-linejoin="round"/>
<path d="M114.42 210.801H124.848" stroke="#FDFCFB" stroke-width="0.5" stroke-linecap="round" stroke-linejoin="round"/>
<path d="M114.821 214.143H120.489" stroke="#FDFCFB" stroke-width="0.5" stroke-linecap="round" stroke-linejoin="round"/>
<path d="M114.966 218.111H131.534" stroke="#FDFCFB" stroke-width="0.5" stroke-linecap="round" stroke-linejoin="round"/>
<path d="M115.426 221.791H131.898" stroke="#FDFCFB" stroke-width="0.5" stroke-linecap="round" stroke-linejoin="round"/>
<path d="M115.426 225.227H122.353" stroke="#FDFCFB" stroke-width="0.5" stroke-linecap="round" stroke-linejoin="round"/>
<path d="M115.426 228.955H125.405" stroke="#FDFCFB" stroke-width="0.5" stroke-linecap="round" stroke-linejoin="round"/>
<path d="M115.426 232.365H122.16" stroke="#FDFCFB" stroke-width="0.5" stroke-linecap="round" stroke-linejoin="round"/>
<path d="M115.426 236.047H119.956" stroke="#FDFCFB" stroke-width="0.5" stroke-linecap="round" stroke-linejoin="round"/>
<path d="M115.111 239.482H119.158" stroke="#FDFCFB" stroke-width="0.5" stroke-linecap="round" stroke-linejoin="round"/>
<path d="M114.966 243.33H132.115" stroke="#FDFCFB" stroke-width="0.5" stroke-linecap="round" stroke-linejoin="round"/>
<path d="M113.269 249.215H123.394" stroke="#FDFCFB" stroke-width="0.5" stroke-linecap="round" stroke-linejoin="round"/>
<path d="M114.385 246.938H116.637" stroke="#FDFCFB" stroke-width="0.5" stroke-linecap="round" stroke-linejoin="round"/>
<path d="M118.938 246.938H122.451" stroke="#FDFCFB" stroke-width="0.5" stroke-linecap="round" stroke-linejoin="round"/>
<path d="M125.648 248.488H127.538" stroke="#FDFCFB" stroke-width="0.5" stroke-linecap="round" stroke-linejoin="round"/>
<path d="M121.797 201.365H123.235" stroke="#FDFCFB" stroke-width="0.5" stroke-linecap="round" stroke-linejoin="round"/>
<path d="M121.604 203.199H123.235" stroke="#FDFCFB" stroke-width="0.5" stroke-linecap="round" stroke-linejoin="round"/>
<path d="M122.516 201.365V203.2" stroke="#FDFCFB" stroke-width="0.5" stroke-linecap="round" stroke-linejoin="round"/>
<path d="M113.411 206.572H115.645" stroke="#FDFCFB" stroke-width="0.5" stroke-linecap="round" stroke-linejoin="round"/>
<path d="M114.528 205.482V207.589" stroke="#FDFCFB" stroke-width="0.5" stroke-linecap="round" stroke-linejoin="round"/>
<path d="M116.959 205.852L117.63 205.482V207.267" stroke="#FDFCFB" stroke-width="0.5" stroke-linecap="round" stroke-linejoin="round"/>
<path d="M118.968 205.482C118.968 205.482 119.813 205.432 119.813 205.953C119.813 206.475 119.241 206.536 119.241 206.536C119.241 206.536 119.813 206.498 119.813 206.896C119.813 207.294 118.968 207.268 118.968 207.268" stroke="#FDFCFB" stroke-width="0.5" stroke-linecap="round" stroke-linejoin="round"/>
<path d="M121.202 206.533H122.421" stroke="#FDFCFB" stroke-width="0.5" stroke-linecap="round" stroke-linejoin="round"/>
<path d="M124.651 206.249C124.966 206.249 125.222 205.994 125.222 205.678C125.222 205.363 124.966 205.107 124.651 205.107C124.335 205.107 124.079 205.363 124.079 205.678C124.079 205.994 124.335 206.249 124.651 206.249Z" stroke="#FDFCFB" stroke-width="0.5" stroke-linecap="round" stroke-linejoin="round"/>
<path d="M126.817 206.249C127.133 206.249 127.389 205.994 127.389 205.678C127.389 205.363 127.133 205.107 126.817 205.107C126.501 205.107 126.245 205.363 126.245 205.678C126.245 205.994 126.501 206.249 126.817 206.249Z" stroke="#FDFCFB" stroke-width="0.5" stroke-linecap="round" stroke-linejoin="round"/>
<path d="M126.817 207.39C127.133 207.39 127.389 207.134 127.389 206.819C127.389 206.504 127.133 206.248 126.817 206.248C126.501 206.248 126.245 206.504 126.245 206.819C126.245 207.134 126.501 207.39 126.817 207.39Z" stroke="#FDFCFB" stroke-width="0.5" stroke-linecap="round" stroke-linejoin="round"/>
<path d="M125.22 205.68V206.867C125.22 207.094 125.22 207.391 124.649 207.391C124.077 207.391 124.197 206.959 124.197 206.959" stroke="#FDFCFB" stroke-width="0.5" stroke-linecap="round" stroke-linejoin="round"/>
<path d="M119.551 197.09C119.551 197.09 120.752 197.185 120.752 197.784C120.752 198.383 119.878 198.383 119.878 198.383C119.878 198.383 120.752 198.359 120.752 198.934C120.752 199.509 119.551 199.39 119.551 199.39" stroke="#FDFCFB" stroke-width="0.5" stroke-linecap="round" stroke-linejoin="round"/>
<path d="M122 198.385H123.417" stroke="#FDFCFB" stroke-width="0.5" stroke-linecap="round" stroke-linejoin="round"/>
<path d="M122.707 197.426V199.103" stroke="#FDFCFB" stroke-width="0.5" stroke-linecap="round" stroke-linejoin="round"/>
<path d="M125.071 197.665L125.863 197.09V198.793" stroke="#FDFCFB" stroke-width="0.5" stroke-linecap="round" stroke-linejoin="round"/>
<path d="M127.183 197.09C127.183 197.09 128.048 197.474 128.048 197.941C128.048 198.409 127.088 198.793 127.088 198.793H128.215" stroke="#FDFCFB" stroke-width="0.5" stroke-linecap="round" stroke-linejoin="round"/>
<path d="M142.62 124.477C142.62 124.477 148.399 124.861 148.399 135.883H134.773" stroke="#FDFCFB" stroke-width="0.5" stroke-linecap="round" stroke-linejoin="round"/>
<path d="M142.839 111.037C142.839 111.037 142.109 111.19 142.109 112.195C142.109 113.2 142.688 113.474 143.114 113.474H148.813C148.813 113.474 150.063 113.353 150.063 114.328C150.063 115.303 150.063 140.548 150.063 140.548H152.136C152.136 140.548 152.136 114.754 152.136 113.566C152.136 112.378 151.801 111.039 149.88 111.039C147.959 111.039 142.839 111.039 142.839 111.039V111.037Z" stroke="#FDFCFB" stroke-width="0.5" stroke-linecap="round" stroke-linejoin="round"/>
<path d="M146.344 113.472C146.344 115.147 145.004 117.553 142.778 117.553C140.552 117.553 139.15 115.207 139.15 111.676C139.15 108.142 141.374 106.773 142.778 106.773C142.778 106.773 146.222 106.835 146.222 111.037" stroke="#FDFCFB" stroke-width="0.5" stroke-linecap="round" stroke-linejoin="round"/>
<path d="M142.778 117.553C142.778 117.553 128.149 117.553 126.138 117.553C124.127 117.553 122.024 117.004 122.024 112.406C122.024 107.808 124.585 106.771 124.585 106.771H142.78" stroke="#FDFCFB" stroke-width="0.5" stroke-linecap="round" stroke-linejoin="round"/>
<path d="M122.121 110.945C122.121 110.945 119.647 110.975 119.647 113.717V124.476" stroke="#FDFCFB" stroke-width="0.5" stroke-linecap="round" stroke-linejoin="round"/>
<path d="M122.235 124.477V114.73" stroke="#FDFCFB" stroke-width="0.5" stroke-linecap="round" stroke-linejoin="round"/>
<path d="M137.941 117.553C137.941 117.553 141.257 122.292 141.588 124.474" stroke="#FDFCFB" stroke-width="0.5" stroke-linecap="round" stroke-linejoin="round"/>
<path d="M143.487 106.891C143.487 106.891 146.762 106.881 150.7 111.138" stroke="#FDFCFB" stroke-width="0.5" stroke-linecap="round" stroke-linejoin="round"/>
<path d="M152.134 113.564C152.134 113.564 157.375 120.657 159.82 132.788" stroke="#FDFCFB" stroke-width="0.5" stroke-linecap="round" stroke-linejoin="round"/>
<path d="M161.188 132.787H152.134" stroke="#FDFCFB" stroke-width="0.5" stroke-linecap="round" stroke-linejoin="round"/>
<path d="M150.064 132.787H148.225" stroke="#FDFCFB" stroke-width="0.5" stroke-linecap="round" stroke-linejoin="round"/>
<path d="M157.731 125.078H167.362L171.836 135.883" stroke="#FDFCFB" stroke-width="0.5" stroke-linecap="round" stroke-linejoin="round"/>
<path d="M150.063 140.547H133.635" stroke="#FDFCFB" stroke-width="0.5" stroke-linecap="round" stroke-linejoin="round"/>
<path d="M148.401 135.883H150.064" stroke="#FDFCFB" stroke-width="0.5" stroke-linecap="round" stroke-linejoin="round"/>
<path d="M152.134 135.883C152.134 135.883 172.551 135.883 175.555 135.883C178.56 135.883 180.929 136.07 182.49 140.978C184.052 145.886 185.495 149.235 185.495 149.235C185.495 149.235 209.649 158.011 211.21 158.705C212.771 159.399 214.85 159.801 214.85 162.746C214.85 165.69 214.85 168.462 214.85 168.462H130.664" stroke="#FDFCFB" stroke-width="0.5" stroke-linecap="round" stroke-linejoin="round"/>
<path d="M159.434 135.883C157.988 136.358 156.14 137.747 156.14 140.546C156.14 143.346 156.14 168.462 156.14 168.462" stroke="#FDFCFB" stroke-width="0.5" stroke-linecap="round" stroke-linejoin="round"/>
<path d="M152.134 156.221V164.997" stroke="#FDFCFB" stroke-width="0.5" stroke-linecap="round" stroke-linejoin="round"/>
<path d="M149.733 156.221V164.997" stroke="#FDFCFB" stroke-width="0.5" stroke-linecap="round" stroke-linejoin="round"/>
<path d="M147.33 156.221V164.997" stroke="#FDFCFB" stroke-width="0.5" stroke-linecap="round" stroke-linejoin="round"/>
<path d="M144.926 156.221V164.997" stroke="#FDFCFB" stroke-width="0.5" stroke-linecap="round" stroke-linejoin="round"/>
<path d="M142.523 156.221V164.997" stroke="#FDFCFB" stroke-width="0.5" stroke-linecap="round" stroke-linejoin="round"/>
<path d="M140.122 156.221V164.997" stroke="#FDFCFB" stroke-width="0.5" stroke-linecap="round" stroke-linejoin="round"/>
<path d="M160.692 165.73H172.716C173.447 165.73 174.04 165.138 174.04 164.407V161.743C174.04 161.013 173.447 160.42 172.716 160.42H160.692C159.96 160.42 159.368 161.013 159.368 161.743V164.407C159.368 165.138 159.96 165.73 160.692 165.73Z" stroke="#FDFCFB" stroke-width="0.5" stroke-linecap="round" stroke-linejoin="round"/>
<path d="M176.862 164.32H214.85" stroke="#FDFCFB" stroke-width="0.5" stroke-linecap="round" stroke-linejoin="round"/>
<path d="M162.751 125.078V135.883" stroke="#FDFCFB" stroke-width="0.5" stroke-linecap="round" stroke-linejoin="round"/>
<path d="M107.635 171.42H0.25V178.513H14.5641" stroke="#FDFCFB" stroke-width="0.5" stroke-linecap="round" stroke-linejoin="round"/>
<path d="M19.6195 171.42C17.6961 173.145 12.3898 178.976 10.0681 193.625C21.3438 195.283 40.781 198.331 40.781 198.331C40.781 198.331 42.3659 181.294 53.9443 171.42" stroke="#FDFCFB" stroke-width="0.5" stroke-linecap="round" stroke-linejoin="round"/>
<path d="M55.3063 171.42C52.7855 174.47 48.0088 184.611 48.2079 200.716C40.5143 200.716 15.8364 200.716 15.8364 200.716C15.8364 200.716 15.5716 196.407 15.8364 194.485" stroke="#FDFCFB" stroke-width="0.5" stroke-linecap="round" stroke-linejoin="round"/>
<path d="M14.4446 189.385L24.1971 191.108" stroke="#FDFCFB" stroke-width="0.5" stroke-linecap="round" stroke-linejoin="round"/>
<path d="M16.2366 184.875L38.7223 188.852" stroke="#FDFCFB" stroke-width="0.5" stroke-linecap="round" stroke-linejoin="round"/>
<path d="M17.6962 181.762L39.5864 185.737" stroke="#FDFCFB" stroke-width="0.5" stroke-linecap="round" stroke-linejoin="round"/>
<path d="M18.9565 178.846L40.9125 182.69" stroke="#FDFCFB" stroke-width="0.5" stroke-linecap="round" stroke-linejoin="round"/>
<path d="M35.1403 177.85L43.1684 179.308" stroke="#FDFCFB" stroke-width="0.5" stroke-linecap="round" stroke-linejoin="round"/>
<path d="M22.3417 174.248L21.306 176.407" stroke="#FDFCFB" stroke-width="0.5" stroke-linecap="round" stroke-linejoin="round"/>
<path d="M22.7978 175.676L20.8799 175.039" stroke="#FDFCFB" stroke-width="0.5" stroke-linecap="round" stroke-linejoin="round"/>
<path d="M27.7853 177.53C28.189 177.53 28.5162 177.115 28.5162 176.603C28.5162 176.091 28.189 175.676 27.7853 175.676C27.3816 175.676 27.0544 176.091 27.0544 176.603C27.0544 177.115 27.3816 177.53 27.7853 177.53Z" stroke="#FDFCFB" stroke-width="0.5" stroke-linecap="round" stroke-linejoin="round"/>
<path d="M24.5615 176.406C24.7628 176.406 24.926 176.243 24.926 176.042C24.926 175.841 24.7628 175.678 24.5615 175.678C24.3603 175.678 24.1971 175.841 24.1971 176.042C24.1971 176.243 24.3603 176.406 24.5615 176.406Z" stroke="#FDFCFB" stroke-width="0.5" stroke-linecap="round" stroke-linejoin="round"/>
<path d="M28.0419 171.42C28.0419 171.42 29.4102 172.271 28.6514 172.972" stroke="#FDFCFB" stroke-width="0.5" stroke-linecap="round" stroke-linejoin="round"/>
<path d="M24.8183 171.42C24.8183 171.42 24.422 172.454 25.3361 172.425C26.2503 172.395 26.6446 171.997 26.4933 171.42C26.7362 172.333 27.0409 172.94 26.2802 173.185" stroke="#FDFCFB" stroke-width="0.5" stroke-linecap="round" stroke-linejoin="round"/>
<path d="M22.7794 171.42V172.729L23.6318 172.454L23.8748 173.185" stroke="#FDFCFB" stroke-width="0.5" stroke-linecap="round" stroke-linejoin="round"/>
<path d="M51.6247 178.514H107.828" stroke="#FDFCFB" stroke-width="0.5" stroke-linecap="round" stroke-linejoin="round"/>
<path d="M130.97 178.513H256.655V171.201H130.664" stroke="#FDFCFB" stroke-width="0.5" stroke-linecap="round" stroke-linejoin="round"/>
<path d="M150.292 168.463C150.292 168.988 150.587 170.498 151.768 171.203" stroke="#FDFCFB" stroke-width="0.5" stroke-linecap="round" stroke-linejoin="round"/>
<path d="M157.849 168.463C157.849 168.901 157.524 170.439 156.52 171.203" stroke="#FDFCFB" stroke-width="0.5" stroke-linecap="round" stroke-linejoin="round"/>
<path d="M203.312 168.463C203.312 169.135 203.489 170.645 204.582 171.203" stroke="#FDFCFB" stroke-width="0.5" stroke-linecap="round" stroke-linejoin="round"/>
<path d="M210.958 168.463C210.958 168.928 211.075 170.468 209.894 171.203" stroke="#FDFCFB" stroke-width="0.5" stroke-linecap="round" stroke-linejoin="round"/>
<path d="M281.885 128.606C279.282 123.407 271.901 121.07 265.265 123.644C258.629 126.217 254.682 134.402 253.129 145.513C259.479 149.906 258.097 156.947 258.097 156.947C258.097 156.947 272.499 157.938 279.493 150.053C286.488 142.169 284.037 132.907 281.885 128.608V128.606Z" stroke="#FDFCFB" stroke-width="0.5" stroke-linecap="round" stroke-linejoin="round"/>
<path d="M206.316 148.976V149.931C206.316 149.931 208.349 151.664 210.961 152.977C213.574 154.292 218.693 153.515 220.365 150.29C222.04 147.064 220.246 144.794 218.99 143.24C218.99 143.24 214.983 138.521 207.69 137.865C200.397 137.208 192.343 140.125 189.354 148.131" stroke="#FDFCFB" stroke-width="0.5" stroke-linecap="round" stroke-linejoin="round"/>
<path d="M186.696 149.672L187.976 148.036C187.976 148.036 190.041 147.682 192.016 149.672V151.609" stroke="#FDFCFB" stroke-width="0.5" stroke-linecap="round" stroke-linejoin="round"/>
<path d="M192.908 151.934L194.399 150.511C194.399 150.511 194.997 150.052 196.558 150.786C198.119 151.52 198.32 152.067 197.989 153.788" stroke="#FDFCFB" stroke-width="0.5" stroke-linecap="round" stroke-linejoin="round"/>
<path d="M198.561 154L200.323 152.486C200.323 152.486 201.103 152.074 202.71 152.945C204.317 153.817 204.18 154.993 203.973 155.988" stroke="#FDFCFB" stroke-width="0.5" stroke-linecap="round" stroke-linejoin="round"/>
<path d="M204.94 156.341L205.784 154.777C205.784 154.777 207.254 154.365 208.815 155.189C210.376 156.012 210.185 157.302 209.799 158.149" stroke="#FDFCFB" stroke-width="0.5" stroke-linecap="round" stroke-linejoin="round"/>
<path d="M202.985 144.549C202.985 144.549 201.149 146.337 200.874 148.677C200.6 151.017 201.058 152.386 201.058 152.386" stroke="#FDFCFB" stroke-width="0.5" stroke-linecap="round" stroke-linejoin="round"/>
<path d="M199.818 141.936C198.531 143.173 196.191 144.641 196.558 150.787" stroke="#FDFCFB" stroke-width="0.5" stroke-linecap="round" stroke-linejoin="round"/>
<path d="M196.723 147.037C195.411 147.62 193.941 148.997 193.392 149.411C192.842 149.824 192.014 149.669 192.014 149.669" stroke="#FDFCFB" stroke-width="0.5" stroke-linecap="round" stroke-linejoin="round"/>
<path d="M207.505 150.85C208.126 151.842 210.082 153.072 208.815 155.191" stroke="#FDFCFB" stroke-width="0.5" stroke-linecap="round" stroke-linejoin="round"/>
<path d="M217.994 152.592C219.127 154.803 225.443 163.563 238.128 163.943C250.813 164.323 253.918 158.464 253.864 154.186C253.81 149.909 249.454 145.5 241.015 142.673C232.577 139.843 223.284 142.056 219.764 144.24" stroke="#FDFCFB" stroke-width="0.5" stroke-linecap="round" stroke-linejoin="round"/>
<path d="M253.128 145.51C253.128 145.51 251.094 146.582 250.818 148.108" stroke="#FDFCFB" stroke-width="0.5" stroke-linecap="round" stroke-linejoin="round"/>
<path d="M258.097 156.943C258.097 156.943 257.645 159.615 251.972 159.611" stroke="#FDFCFB" stroke-width="0.5" stroke-linecap="round" stroke-linejoin="round"/>
<path d="M270.575 122.59C269.872 120.737 264.934 113.967 262.744 112.473" stroke="#FDFCFB" stroke-width="0.5" stroke-linecap="round" stroke-linejoin="round"/>
<path d="M258.25 113.293C255.194 116.146 247.582 128.887 245.593 144.549" stroke="#FDFCFB" stroke-width="0.5" stroke-linecap="round" stroke-linejoin="round"/>
<path d="M264.642 114.256C262.167 116.229 251.956 125.35 249.292 146.809" stroke="#FDFCFB" stroke-width="0.5" stroke-linecap="round" stroke-linejoin="round"/>
<path d="M213.11 122.916C211.011 123.111 194.959 124.906 194.923 140.921" stroke="#FDFCFB" stroke-width="0.5" stroke-linecap="round" stroke-linejoin="round"/>
<path d="M213.111 126.9C211.937 129.743 210.067 138.239 210.067 138.239" stroke="#FDFCFB" stroke-width="0.5" stroke-linecap="round" stroke-linejoin="round"/>
<path d="M215.673 131.807L213.771 139.508" stroke="#FDFCFB" stroke-width="0.5" stroke-linecap="round" stroke-linejoin="round"/>
<path d="M250.338 178.514V260.247H243.174V178.514" stroke="#FDFCFB" stroke-width="0.5" stroke-linecap="round" stroke-linejoin="round"/>
<path d="M175.064 178.514V260.247H167.9V178.514" stroke="#FDFCFB" stroke-width="0.5" stroke-linecap="round" stroke-linejoin="round"/>
<path d="M149.378 178.514V253.472H132.36" stroke="#FDFCFB" stroke-width="0.5" stroke-linecap="round" stroke-linejoin="round"/>
<path d="M80.0956 253.472H6.58972V178.514" stroke="#FDFCFB" stroke-width="0.5" stroke-linecap="round" stroke-linejoin="round"/>
<path d="M149.378 253.471V260.245H139.094V253.471" stroke="#FDFCFB" stroke-width="0.5" stroke-linecap="round" stroke-linejoin="round"/>
<path d="M144.235 260.245V253.471" stroke="#FDFCFB" stroke-width="0.5" stroke-linecap="round" stroke-linejoin="round"/>
<path d="M74.7575 253.471V260.245H64.4714V253.471" stroke="#FDFCFB" stroke-width="0.5" stroke-linecap="round" stroke-linejoin="round"/>
<path d="M69.6144 260.247V178.514" stroke="#FDFCFB" stroke-width="0.5" stroke-linecap="round" stroke-linejoin="round"/>
<path d="M16.8758 253.471V260.245H6.58972V253.471" stroke="#FDFCFB" stroke-width="0.5" stroke-linecap="round" stroke-linejoin="round"/>
<path d="M11.7327 260.245V253.471" stroke="#FDFCFB" stroke-width="0.5" stroke-linecap="round" stroke-linejoin="round"/>
<path d="M279.493 150.051C280.405 153.865 283.113 171.351 279.728 182.56C276.343 193.767 267.545 198.986 263.097 200.434C258.648 201.883 250.336 202.657 250.336 202.657" stroke="#FDFCFB" stroke-width="0.5" stroke-linecap="round" stroke-linejoin="round"/>
<path d="M243.174 206.553C241.72 208.062 238.899 218.025 237.915 226.089C232.667 226.089 219.545 224.45 219.545 224.45C219.545 224.45 218.233 211.929 218.954 201.44C219.675 190.951 224.268 184.724 235.814 180.594" stroke="#FDFCFB" stroke-width="0.5" stroke-linecap="round" stroke-linejoin="round"/>
<path d="M207.67 178.514C208.262 180.726 211.634 188.519 220.411 193.931" stroke="#FDFCFB" stroke-width="0.5" stroke-linecap="round" stroke-linejoin="round"/>
<path d="M203.945 178.514C200.518 180.135 189.366 184.265 187.462 196C185.559 207.734 187.462 223.205 187.462 223.205L205.767 224.647C205.767 224.647 205.767 203.276 218.954 201.441" stroke="#FDFCFB" stroke-width="0.5" stroke-linecap="round" stroke-linejoin="round"/>
<path d="M205.972 221.311L187.126 219.797" stroke="#FDFCFB" stroke-width="0.5" stroke-linecap="round" stroke-linejoin="round"/>
<path d="M219.27 221.311L238.353 223.071" stroke="#FDFCFB" stroke-width="0.5" stroke-linecap="round" stroke-linejoin="round"/>
<path d="M243.174 260.245H194.091C194.091 260.245 194.616 248.837 198.158 244.378C201.701 239.92 204.456 239.068 214.428 239.068C224.399 239.068 232.141 244.116 232.601 256.572" stroke="#FDFCFB" stroke-width="0.5" stroke-linecap="round" stroke-linejoin="round"/>
<path d="M194.415 256.629H243.174" stroke="#FDFCFB" stroke-width="0.5" stroke-linecap="round" stroke-linejoin="round"/>
<path d="M243.174 252.049C243.174 252.049 240.737 240.249 239.293 236.841C237.849 233.433 235.159 232.908 233.453 233.499C231.747 234.09 222.759 236.121 217.839 232.713C214.689 234.484 209.048 239.209 209.048 239.209" stroke="#FDFCFB" stroke-width="0.5" stroke-linecap="round" stroke-linejoin="round"/>
<path d="M222.17 224.646C222.235 226.286 222.976 230.963 220.505 233.968" stroke="#FDFCFB" stroke-width="0.5" stroke-linecap="round" stroke-linejoin="round"/>
<path d="M235.359 226.006C234.636 227.206 234.488 231.465 235.022 233.302" stroke="#FDFCFB" stroke-width="0.5" stroke-linecap="round" stroke-linejoin="round"/>
<path d="M197.655 245.09C195.666 241.955 190.019 235.99 175.062 238.153C175.062 238.153 182.148 233.969 185.626 231.203C188.776 233.497 197.567 233.628 199.863 232.711C202.159 231.794 204.454 232.843 205.97 233.969C207.485 235.095 208.005 239.289 208.005 239.289" stroke="#FDFCFB" stroke-width="0.5" stroke-linecap="round" stroke-linejoin="round"/>
<path d="M167.9 241.43C166.404 242.544 162.862 249.099 162.205 258.997H167.9" stroke="#FDFCFB" stroke-width="0.5" stroke-linecap="round" stroke-linejoin="round"/>
<path d="M175.064 258.998H194.176" stroke="#FDFCFB" stroke-width="0.5" stroke-linecap="round" stroke-linejoin="round"/>
<path d="M194.608 255.184H175.064" stroke="#FDFCFB" stroke-width="0.5" stroke-linecap="round" stroke-linejoin="round"/>
<path d="M167.9 255.184H162.617" stroke="#FDFCFB" stroke-width="0.5" stroke-linecap="round" stroke-linejoin="round"/>
<path d="M190.163 223.416C190.678 225.105 190.933 229.546 188.87 232.536" stroke="#FDFCFB" stroke-width="0.5" stroke-linecap="round" stroke-linejoin="round"/>
<path d="M203.144 224.439C202.619 225.17 201.86 228.952 202.601 232.437" stroke="#FDFCFB" stroke-width="0.5" stroke-linecap="round" stroke-linejoin="round"/>
<path d="M218.956 212.455H207.825" stroke="#FDFCFB" stroke-width="0.5" stroke-linecap="round" stroke-linejoin="round"/>
<path d="M240.768 212.455H243.174" stroke="#FDFCFB" stroke-width="0.5" stroke-linecap="round" stroke-linejoin="round"/>
<path d="M250.338 212.455C250.338 212.455 285.415 212.455 289.549 212.455C293.682 212.455 297.29 210.292 297.29 204.72C297.29 199.147 293.616 196.459 288.891 196.459C284.169 196.459 270.267 196.459 270.267 196.459" stroke="#FDFCFB" stroke-width="0.5" stroke-linecap="round" stroke-linejoin="round"/>
<path d="M280.821 219.379C278.918 219.141 278.329 219.535 278 220.386C277.671 221.238 277.934 222.352 279.41 222.746C280.885 223.14 285.873 224.385 287.249 224.711C288.625 225.038 289.544 224.12 290.004 222.809C290.464 221.498 289.873 220.253 287.643 220.056C285.413 219.859 280.819 219.377 280.819 219.377L280.821 219.379Z" stroke="#FDFCFB" stroke-width="0.5" stroke-linecap="round" stroke-linejoin="round"/>
<path d="M278 220.387C278 220.387 273.08 219.536 270.653 218.945C268.226 218.354 264.813 216.782 264.813 212.455" stroke="#FDFCFB" stroke-width="0.5" stroke-linecap="round" stroke-linejoin="round"/>
<path d="M284.364 259.785C287.335 259.785 289.744 257.378 289.744 254.409C289.744 251.44 287.335 249.033 284.364 249.033C281.392 249.033 278.984 251.44 278.984 254.409C278.984 257.378 281.392 259.785 284.364 259.785Z" stroke="#FDFCFB" stroke-width="0.5" stroke-linecap="round" stroke-linejoin="round"/>
<path d="M254.278 259.783H255.602C256.813 259.783 257.794 258.802 257.794 257.593V251.222C257.794 250.012 256.813 249.032 255.602 249.032H254.278C253.067 249.032 252.086 250.012 252.086 251.222V257.593C252.086 258.802 253.067 259.783 254.278 259.783Z" stroke="#FDFCFB" stroke-width="0.5" stroke-linecap="round" stroke-linejoin="round"/>
<path d="M250.338 247.462H286.006C286.006 247.462 287.056 243.594 281.873 243.2C276.69 242.806 261.141 241.364 261.141 241.364V227.467H250.338" stroke="#FDFCFB" stroke-width="0.5" stroke-linecap="round" stroke-linejoin="round"/>
<path d="M258.712 212.455V227.204" stroke="#FDFCFB" stroke-width="0.5" stroke-linecap="round" stroke-linejoin="round"/>
<path d="M251.757 212.455V227.466" stroke="#FDFCFB" stroke-width="0.5" stroke-linecap="round" stroke-linejoin="round"/>
<path d="M257.794 247.461V243.659C257.794 243.659 257.794 241.496 255.236 241.496C252.677 241.496 252.677 243.593 252.677 243.593V247.461" stroke="#FDFCFB" stroke-width="0.5" stroke-linecap="round" stroke-linejoin="round"/>
<path d="M280.851 158.973C277.459 160.266 260.962 165.124 246.2 165.731C231.44 166.338 218.4 165.992 214.848 163.563" stroke="#FDFCFB" stroke-width="0.5" stroke-linecap="round" stroke-linejoin="round"/>
<path d="M210.842 169.83L216.16 171.201" stroke="#FDFCFB" stroke-width="0.5" stroke-linecap="round" stroke-linejoin="round"/>
<path d="M281.383 165.473C278.675 166.34 262.477 170.685 255.035 171.203" stroke="#FDFCFB" stroke-width="0.5" stroke-linecap="round" stroke-linejoin="round"/>
<path d="M232.569 165.992C232.569 165.992 232.135 169.036 232.569 171.201" stroke="#FDFCFB" stroke-width="0.5" stroke-linecap="round" stroke-linejoin="round"/>
<path d="M222.39 165.473C222.149 166.686 221.936 169.905 222.39 171.203" stroke="#FDFCFB" stroke-width="0.5" stroke-linecap="round" stroke-linejoin="round"/>
<path d="M243.174 163.725V165.843" stroke="#FDFCFB" stroke-width="0.5" stroke-linecap="round" stroke-linejoin="round"/>
<path d="M247.974 162.484V165.473" stroke="#FDFCFB" stroke-width="0.5" stroke-linecap="round" stroke-linejoin="round"/>
<path d="M279.127 184.338C284.405 184.559 293.347 184.732 295.518 184.732C297.688 184.732 305.069 183.604 306.545 175.797C308.02 167.988 313.316 130.646 313.926 124.938C314.533 119.23 312.275 111.682 304.723 111.682C297.17 111.682 265.894 111.682 265.894 111.682" stroke="#FDFCFB" stroke-width="0.5" stroke-linecap="round" stroke-linejoin="round"/>
<path d="M297.081 111.682C299.512 112.722 304.462 115.213 303.245 123.641C302.031 132.069 296.647 168.42 295.691 173.626C294.735 178.831 292.392 184.147 286.488 184.569" stroke="#FDFCFB" stroke-width="0.5" stroke-linecap="round" stroke-linejoin="round"/>
<path d="M70.1241 171.421C70.1241 171.421 69.9947 169.137 68.9573 169.008C68.135 167.452 68.9573 164.299 68.9573 164.299C68.9573 164.299 70.2535 163.738 69.8214 161.102C66.7949 161.102 9.81132 161.102 9.81132 161.102C9.81132 161.102 8.81776 163.565 10.3728 164.687C10.9781 166.069 10.3728 168.574 10.3728 168.574C10.3728 168.574 9.22793 168.521 9.49872 171.421" stroke="#FDFCFB" stroke-width="0.5" stroke-linecap="round" stroke-linejoin="round"/>
<path d="M10.3728 168.576L31.0386 168.965" stroke="#FDFCFB" stroke-width="0.5" stroke-linecap="round" stroke-linejoin="round"/>
<path d="M29.2665 163.52H9.59033" stroke="#FDFCFB" stroke-width="0.5" stroke-linecap="round" stroke-linejoin="round"/>
<path d="M28.6412 166.262H64.979" stroke="#FDFCFB" stroke-width="0.5" stroke-linecap="round" stroke-linejoin="round"/>
<path d="M68.9553 164.298C68.2644 164.212 52.0508 164.298 52.0508 164.298" stroke="#FDFCFB" stroke-width="0.5" stroke-linecap="round" stroke-linejoin="round"/>
<path d="M68.9553 169.008H52.0508" stroke="#FDFCFB" stroke-width="0.5" stroke-linecap="round" stroke-linejoin="round"/>
<path d="M40.0323 161.102V171.421" stroke="#FDFCFB" stroke-width="0.5" stroke-linecap="round" stroke-linejoin="round"/>
<path d="M101.301 171.421C101.301 171.421 105.042 169.515 105.906 167.645C100.534 167.645 74.1979 167.645 74.1979 167.645C74.1979 167.645 75.6375 170.738 78.66 171.421" stroke="#FDFCFB" stroke-width="0.5" stroke-linecap="round" stroke-linejoin="round"/>
<path d="M84.2211 167.644C82.7816 166.685 78.3693 163.233 78.3693 158.297C78.3693 153.359 78.3693 149.334 78.3693 149.334H101.54V157.674C101.54 160.454 100.917 164.721 95.7357 167.644" stroke="#FDFCFB" stroke-width="0.5" stroke-linecap="round" stroke-linejoin="round"/>
<path d="M78.3693 150.877C74.0371 150.877 71.03 152.69 71.03 157.387C71.03 162.085 76.2029 164.325 80.5953 164.259" stroke="#FDFCFB" stroke-width="0.5" stroke-linecap="round" stroke-linejoin="round"/>
<path d="M78.8511 161.1C75.0727 161.1 73.7638 159.661 73.7638 156.919C73.7638 155.106 74.5549 153.504 78.3693 153.504" stroke="#FDFCFB" stroke-width="0.5" stroke-linecap="round" stroke-linejoin="round"/>
<path d="M172.756 171.201V178.513" stroke="#FDFCFB" stroke-width="0.5" stroke-linecap="round" stroke-linejoin="round"/>
<path d="M269.952 48.0035L268.469 47.3171C268.469 47.3171 268.23 47.2256 268.186 47.335C268.142 47.4444 268.27 47.6494 268.317 47.707C268.365 47.7647 269.347 48.8809 269.347 48.8809L272.463 53.246L303.036 75.9965L303.028 76.1477C303.028 76.1477 303.006 76.3069 303.114 76.4004C303.221 76.4939 303.966 77.0828 303.966 77.0828C303.966 77.0828 304.151 77.1167 304.354 76.9475C304.645 77.1604 306.254 78.3721 306.254 78.3721C306.254 78.3721 306.766 78.6665 307.146 78.3542C307.526 78.0418 309.121 75.726 309.121 75.726C309.121 75.726 309.354 75.2405 308.874 74.8764C308.394 74.5123 306.959 73.4459 306.959 73.4459C306.959 73.4459 306.977 73.2132 306.68 72.9863C306.383 72.7595 306.031 72.4929 306.031 72.4929C306.031 72.4929 305.802 72.3775 305.702 72.5546C305.398 72.3696 275.001 49.7722 275.001 49.7722L269.95 48.0055L269.952 48.0035Z" fill="#6B1D2A"/>
<path d="M305.704 72.5964L275.053 49.7881L269.978 48.0154L268.5 47.329C268.5 47.329 268.248 47.2176 268.188 47.335C268.128 47.4524 268.224 47.5917 268.319 47.7071C268.415 47.8225 269.349 48.8809 269.349 48.8809L272.507 53.3057L303.116 76.0562C303.116 76.0562 302.915 76.1856 303.062 76.3507C303.209 76.5158 304.004 77.1147 304.004 77.1147C304.004 77.1147 304.205 77.1107 304.317 76.9237C304.737 77.2201 306.256 78.3761 306.256 78.3761C306.256 78.3761 306.843 78.6924 307.148 78.3582C307.453 78.0239 308.793 76.2094 309.012 75.9229C309.231 75.6364 309.28 75.2047 308.952 74.9401C308.623 74.6755 306.959 73.4479 306.959 73.4479C306.959 73.4479 307.042 73.2967 306.837 73.1157C306.632 72.9346 306.136 72.5825 306.031 72.4929C305.925 72.4034 305.77 72.4313 305.702 72.5944L305.704 72.5964Z" stroke="#FDFCFB" stroke-width="0.5" stroke-linecap="round" stroke-linejoin="round"/>
<path d="M269.349 48.8811L269.978 48.0156" stroke="#FDFCFB" stroke-width="0.5" stroke-linecap="round" stroke-linejoin="round"/>
<path d="M272.509 53.3046L272.883 52.276L274.251 50.386L275.054 49.7871" stroke="#FDFCFB" stroke-width="0.5" stroke-linecap="round" stroke-linejoin="round"/>
<path d="M305.705 72.5957L303.116 76.0535" stroke="#FDFCFB" stroke-width="0.5" stroke-linecap="round" stroke-linejoin="round"/>
<path d="M306.961 73.4473L304.319 76.921" stroke="#FDFCFB" stroke-width="0.5" stroke-linecap="round" stroke-linejoin="round"/>
<path d="M273.522 51.3945L304.41 74.3242" stroke="#FDFCFB" stroke-width="0.5" stroke-linecap="round" stroke-linejoin="round"/>
<path d="M294.606 86.9057C294.606 86.9057 293.857 87.8766 292.796 88.4476C291.735 89.0186 290.263 89.4483 288.911 89.1678C287.56 88.8873 286.245 88.4635 285.005 86.9634C283.764 85.4633 283.32 83.9452 283.042 82.7416C282.763 81.5359 282.154 78.7406 282.19 76.4267C282.225 74.1128 282.217 71.5901 282.494 69.8094C282.771 68.0288 283.512 65.2832 284.545 64.1173C285.578 62.9514 286.325 62.1158 287.48 61.7856C288.635 61.4553 290.184 61.3737 291.351 61.7199C292.517 62.0661 293.937 62.4799 295.076 63.5463C295.884 63.8726 297.175 64.3143 298.011 65.7129C298.847 67.1116 299.837 68.8385 300.199 71.3772C300.561 73.9159 300.705 76.3431 300.275 78.6809C299.845 81.0166 299.194 83.2927 297.895 84.9539C296.597 86.6172 295.614 86.8918 294.61 86.9077L294.606 86.9057Z" fill="#6B1D2A"/>
<path d="M294.606 86.9072C297.879 86.9072 300.532 81.6901 300.532 75.2544C300.532 68.8187 297.879 63.6016 294.606 63.6016C291.333 63.6016 288.68 68.8187 288.68 75.2544C288.68 81.6901 291.333 86.9072 294.606 86.9072Z" stroke="#FDFCFB" stroke-width="0.5" stroke-linecap="round" stroke-linejoin="round"/>
<path d="M295.136 63.5994C294.122 62.6783 292.033 61.4766 289.184 61.4766C286.335 61.4766 283.107 64.0073 282.41 70.4594C281.714 76.9115 282.538 82.6673 284.119 85.6417C285.702 88.6141 288.234 89.2468 289.943 89.2468C291.651 89.2468 293.756 88.1704 294.604 86.9071" stroke="#FDFCFB" stroke-width="0.5" stroke-linecap="round" stroke-linejoin="round"/>
</svg>
