<svg xmlns="http://www.w3.org/2000/svg" xmlns:xlink="http://www.w3.org/1999/xlink" version="1.1" width="256" height="256" viewBox="0 0 256 256" xml:space="preserve">
<g style="stroke: none; stroke-width: 0; stroke-dasharray: none; stroke-linecap: butt; stroke-linejoin: miter; stroke-miterlimit: 10; fill: none; fill-rule: nonzero; opacity: 1;" transform="translate(1.4065934065934016 1.4065934065934016) scale(2.81 2.81)">
	<circle cx="45" cy="45" r="45" style="stroke: none; stroke-width: 1; stroke-dasharray: none; stroke-linecap: butt; stroke-linejoin: miter; stroke-miterlimit: 10; fill: rgb(240,240,240); fill-rule: nonzero; opacity: 1;" transform="  matrix(1 0 0 1 0 0) "/>
	<rect x="33.05" y="23.57" rx="0" ry="0" width="23.92" height="23.92" style="stroke: none; stroke-width: 1; stroke-dasharray: none; stroke-linecap: butt; stroke-linejoin: miter; stroke-miterlimit: 10; fill: rgb(255,255,255); fill-rule: nonzero; opacity: 1;" transform=" matrix(1 0 0 1 0 0) "/>
	<polygon points="68.94,35.56 56.98,23.57 56.98,47.52 " style="stroke: none; stroke-width: 1; stroke-dasharray: none; stroke-linecap: butt; stroke-linejoin: miter; stroke-miterlimit: 10; fill: rgb(219,0,17); fill-rule: nonzero; opacity: 1;" transform="  matrix(1 0 0 1 0 0) "/>
	<polygon points="45.01,35.56 56.98,23.57 33.05,23.57 " style="stroke: none; stroke-width: 1; stroke-dasharray: none; stroke-linecap: butt; stroke-linejoin: miter; stroke-miterlimit: 10; fill: rgb(219,0,17); fill-rule: nonzero; opacity: 1;" transform="  matrix(1 0 0 1 0 0) "/>
	<polygon points="21.07,35.56 33.05,47.52 33.05,23.57 " style="stroke: none; stroke-width: 1; stroke-dasharray: none; stroke-linecap: butt; stroke-linejoin: miter; stroke-miterlimit: 10; fill: rgb(219,0,17); fill-rule: nonzero; opacity: 1;" transform="  matrix(1 0 0 1 0 0) "/>
	<polygon points="45.01,35.56 33.05,47.52 56.98,47.52 " style="stroke: none; stroke-width: 1; stroke-dasharray: none; stroke-linecap: butt; stroke-linejoin: miter; stroke-miterlimit: 10; fill: rgb(219,0,17); fill-rule: nonzero; opacity: 1;" transform="  matrix(1 0 0 1 0 0) "/>
	<path d="M 29.426 60.626 h -5.617 v 5.544 H 21 V 53.185 h 2.809 v 5.325 h 5.617 v -5.325 h 2.809 V 66.17 h -2.809 V 60.626 z" style="stroke: none; stroke-width: 1; stroke-dasharray: none; stroke-linecap: butt; stroke-linejoin: miter; stroke-miterlimit: 10; fill: rgb(0,0,0); fill-rule: nonzero; opacity: 1;" transform=" matrix(1 0 0 1 0 0) " stroke-linecap="round"/>
	<path d="M 39.018 66.425 c -2.809 0 -5.106 -1.131 -5.143 -4.231 h 2.809 c 0.036 1.386 0.839 2.225 2.371 2.225 c 1.131 0 2.444 -0.584 2.444 -1.86 c 0 -1.021 -0.875 -1.313 -2.334 -1.751 l -0.948 -0.255 c -2.043 -0.584 -4.085 -1.386 -4.085 -3.72 c 0 -2.881 2.699 -3.866 5.143 -3.866 c 2.517 0 4.705 0.875 4.742 3.757 h -2.809 c -0.109 -1.167 -0.802 -1.86 -2.116 -1.86 c -1.058 0 -2.079 0.547 -2.079 1.714 c 0 0.948 0.875 1.24 2.699 1.824 l 1.094 0.328 c 2.225 0.693 3.647 1.459 3.647 3.647 C 44.416 65.294 41.571 66.425 39.018 66.425 z" style="stroke: none; stroke-width: 1; stroke-dasharray: none; stroke-linecap: butt; stroke-linejoin: miter; stroke-miterlimit: 10; fill: rgb(0,0,0); fill-rule: nonzero; opacity: 1;" transform=" matrix(1 0 0 1 0 0) " stroke-linecap="round"/>
	<path d="M 46.021 53.221 h 4.523 c 0.839 -0.036 1.714 0 2.553 0.146 c 1.568 0.365 2.772 1.386 2.772 3.137 c 0 1.678 -1.058 2.517 -2.59 2.918 c 1.751 0.328 3.064 1.204 3.064 3.137 c 0 2.954 -2.918 3.611 -5.179 3.611 h -5.106 L 46.021 53.221 z M 50.544 58.62 c 1.24 0 2.517 -0.255 2.517 -1.751 c 0 -1.35 -1.167 -1.714 -2.334 -1.714 h -1.97 v 3.465 H 50.544 z M 50.799 64.237 c 1.313 0 2.59 -0.292 2.59 -1.897 c 0 -1.605 -1.094 -1.897 -2.444 -1.897 H 48.72 v 3.793 H 50.799 z" style="stroke: none; stroke-width: 1; stroke-dasharray: none; stroke-linecap: butt; stroke-linejoin: miter; stroke-miterlimit: 10; fill: rgb(0,0,0); fill-rule: nonzero; opacity: 1;" transform=" matrix(1 0 0 1 0 0) " stroke-linecap="round"/>
	<path d="M 63.638 66.425 c -4.195 0 -6.055 -2.663 -6.055 -6.638 s 2.079 -6.857 6.201 -6.857 c 2.59 0 5.106 1.167 5.179 4.085 h -2.918 c -0.146 -1.313 -1.021 -1.97 -2.261 -1.97 c -2.553 0 -3.319 2.736 -3.319 4.815 c 0 2.079 0.766 4.486 3.21 4.486 c 1.277 0 2.225 -0.693 2.407 -2.006 H 69 C 68.708 65.331 66.337 66.425 63.638 66.425 z" style="stroke: none; stroke-width: 1; stroke-dasharray: none; stroke-linecap: butt; stroke-linejoin: miter; stroke-miterlimit: 10; fill: rgb(0,0,0); fill-rule: nonzero; opacity: 1;" transform=" matrix(1 0 0 1 0 0) " stroke-linecap="round"/>
</g>
</svg>