<svg width="115" height="64" viewBox="0 0 115 64" fill="none" xmlns="http://www.w3.org/2000/svg">
<path d="M0.00129172 60.1549L0.0408453 55.2794C0.043172 54.9583 0.050152 54.8559 0.142056 54.6861C0.239776 54.5116 0.441034 54.3917 0.701622 54.3941C0.962211 54.3964 1.16114 54.5186 1.25654 54.6954C1.34611 54.8652 1.35077 54.9688 1.34844 55.2898L1.30889 60.1049C1.29958 61.2613 1.99642 61.9884 3.07367 61.9965C4.15209 62.0058 4.86056 61.2904 4.86987 60.134L4.90942 55.3189C4.91175 54.9978 4.91873 54.8955 5.01063 54.7256C5.10952 54.5511 5.30961 54.4313 5.5702 54.4336C5.83079 54.436 6.02972 54.5581 6.12511 54.7349C6.21469 54.9048 6.21934 55.0083 6.21702 55.3294L6.17746 60.205C6.1635 61.9849 4.82101 63.1738 3.06437 63.1598C1.30772 63.1459 -0.014995 61.936 0.000128384 60.1549H0.00129172ZM9.57791 62.299C9.57558 62.6201 9.5686 62.7224 9.4767 62.8923C9.37898 63.0668 9.17772 63.1866 8.91713 63.1843C8.65654 63.1819 8.45761 63.0598 8.36222 62.883C8.27264 62.7131 8.26799 62.6096 8.27031 62.2885L8.32732 55.2933C8.32964 55.0083 8.37385 54.8094 8.52043 54.6651C8.65422 54.5325 8.81941 54.4616 9.01834 54.4639C9.32779 54.4662 9.51974 54.6558 9.77684 55.0455L13.4751 60.6052L13.517 55.3911C13.5193 55.07 13.5263 54.9676 13.6182 54.7978C13.7171 54.6233 13.9172 54.5034 14.1778 54.5058C14.4383 54.5081 14.6373 54.6302 14.7327 54.8071C14.8222 54.9769 14.8269 55.0804 14.8246 55.4015L14.7676 62.4025C14.7652 62.6875 14.721 62.8806 14.5745 63.0249C14.4407 63.1575 14.2755 63.2285 14.0765 63.2262C13.7683 63.2238 13.5751 63.0342 13.318 62.6445L9.61979 57.0849L9.57791 62.299ZM18.2169 62.9621C18.1192 63.1366 17.9179 63.2564 17.6573 63.2541C17.3967 63.2517 17.1978 63.1296 17.1024 62.9528C17.0128 62.7829 17.0082 62.6794 17.0105 62.3583L17.0663 55.4178C17.0687 55.0967 17.0756 54.9944 17.1675 54.8245C17.2653 54.65 17.4665 54.5302 17.7271 54.5325C17.9877 54.5348 18.1866 54.657 18.282 54.8338C18.3716 55.0037 18.3762 55.1072 18.3739 55.4283L18.3181 62.3688C18.3158 62.6899 18.3088 62.7922 18.2169 62.9621ZM25.6832 55.7249C25.5494 55.7959 25.4284 55.8075 25.1492 55.8052L23.5264 55.7924L23.4728 62.4118C23.4705 62.7329 23.4635 62.8353 23.3716 63.0051C23.2727 63.1796 23.0727 63.2994 22.8121 63.2971C22.5515 63.2948 22.3525 63.1726 22.2572 62.9958C22.1676 62.826 22.1629 62.7224 22.1652 62.4013L22.2188 55.7819L20.5959 55.7691C20.3179 55.7668 20.1969 55.754 20.0631 55.6796C19.906 55.5877 19.799 55.4108 19.8002 55.1805C19.8025 54.9502 19.913 54.7756 20.0712 54.6861C20.205 54.6139 20.326 54.6035 20.6052 54.6058L25.1597 54.643C25.4377 54.6454 25.5587 54.6582 25.6925 54.7326C25.8495 54.8245 25.9566 55.0013 25.9554 55.2317C25.9531 55.462 25.8426 55.6365 25.6844 55.7261L25.6832 55.7249ZM28.6602 58.3657L31.5069 58.389C31.7849 58.3913 31.9059 58.4041 32.0397 58.4786C32.1967 58.5705 32.3038 58.7473 32.3026 58.9776C32.3003 59.208 32.1897 59.3825 32.0315 59.4721C31.8978 59.5442 31.7768 59.5547 31.4976 59.5523L28.6509 59.5291L28.6299 62.1338L32.0944 62.1617C32.3736 62.164 32.4934 62.1768 32.6272 62.2513C32.7842 62.3432 32.8912 62.52 32.8901 62.7504C32.8878 62.9807 32.7772 63.1552 32.619 63.2448C32.4852 63.3169 32.3643 63.3274 32.0851 63.325L28.1122 63.2925C27.918 63.2913 27.6888 63.289 27.5015 63.0994C27.3154 62.9097 27.3177 62.6794 27.3188 62.4863L27.3758 55.4609C27.377 55.2666 27.3793 55.0374 27.569 54.8513C27.7586 54.6651 27.9889 54.6663 28.182 54.6686L32.1549 54.7012C32.4341 54.7035 32.5539 54.7163 32.6877 54.7908C32.8447 54.8827 32.9517 55.0595 32.9506 55.2898C32.9494 55.5202 32.8377 55.6947 32.6795 55.7843C32.5457 55.8552 32.4247 55.8669 32.1455 55.8645L28.6811 55.8366L28.6602 58.368V58.3657ZM35.468 54.7256L37.7028 54.7442C38.7871 54.7535 39.577 55.1223 40.1528 55.8599C40.7519 56.6405 40.7752 57.5491 40.7624 59.0812C40.7496 60.6133 40.6996 61.5335 40.0877 62.3036C39.506 63.0377 38.7161 63.3762 37.6319 63.3681L35.3971 63.3495C35.2028 63.3483 34.9736 63.346 34.7863 63.1564C34.6002 62.9667 34.6025 62.7364 34.6037 62.5433L34.6607 55.5179C34.6618 55.3236 34.6642 55.0944 34.8538 54.9083C35.0434 54.7221 35.2738 54.7233 35.4669 54.7256H35.468ZM35.9159 62.1919L37.4911 62.2047C38.1146 62.2094 38.6126 62.0442 38.9802 61.6289C39.4141 61.1484 39.4443 60.3492 39.4548 59.0707C39.4653 57.7934 39.4478 56.993 39.0209 56.5055C38.6614 56.0844 38.1658 55.9111 37.5423 55.9064L35.9671 55.8936L35.9159 62.1919ZM46.4523 61.708L46.0126 62.8609C45.9009 63.1505 45.8462 63.2587 45.724 63.3553C45.6263 63.4332 45.5053 63.4809 45.3657 63.4798C45.1843 63.4786 45.0028 63.4041 44.8888 63.282C44.6421 63.0261 44.7236 62.7538 44.8539 62.4153L47.5517 55.405C47.6447 55.1572 47.7122 55.0549 47.8157 54.9595C47.9437 54.8396 48.0903 54.7803 48.2962 54.7815C48.5021 54.7826 48.6475 54.8443 48.7732 54.9664C48.8755 55.0642 48.9407 55.1677 49.0303 55.4166L51.614 62.4688C51.7385 62.8085 51.8153 63.0819 51.564 63.3343C51.4477 63.4542 51.2662 63.5251 51.0836 63.524C50.944 63.524 50.823 63.4739 50.7276 63.3937C50.6078 63.296 50.5531 63.1866 50.4472 62.8946L50.0261 61.7347L46.4535 61.7057L46.4523 61.708ZM48.2787 56.8348L46.8676 60.597L49.6294 60.6191L48.2787 56.8348ZM53.1264 62.6526L53.1834 55.6703C53.1845 55.476 53.1869 55.2468 53.3765 55.0607C53.5661 54.8745 53.7965 54.8757 53.9896 54.878L56.5326 54.899C58.1683 54.9118 59.2013 55.9739 59.1885 57.4397C59.1781 58.6694 58.4277 59.45 57.4622 59.7152L58.985 62.4223C59.1339 62.6899 59.1816 62.7992 59.1862 62.9632C59.1909 63.175 59.0862 63.3681 58.8605 63.4995C58.7511 63.5647 58.6232 63.588 58.508 63.588C58.1811 63.5856 58.031 63.3541 57.8647 63.0493L56.0917 59.885L54.4561 59.8722L54.434 62.6643C54.4316 62.9853 54.4247 63.0877 54.3328 63.2576C54.235 63.4321 54.0338 63.5519 53.7732 63.5496C53.5126 63.5472 53.3137 63.4251 53.2183 63.2483C53.1287 63.0784 53.1241 62.9749 53.1264 62.6538V62.6526ZM54.4875 56.0437L54.4654 58.7566L56.4035 58.7729C57.276 58.7799 57.8728 58.2878 57.8798 57.4409C57.8868 56.587 57.297 56.067 56.4256 56.06L54.4875 56.0437ZM61.9515 61.8336L61.5117 62.9865C61.4001 63.2762 61.3454 63.3844 61.2232 63.4809C61.1255 63.5589 61.0045 63.6066 60.8649 63.6054C60.6834 63.6042 60.502 63.5298 60.388 63.4076C60.1413 63.1517 60.2228 62.8795 60.3531 62.5409L63.0508 55.5307C63.1439 55.2829 63.2114 55.1805 63.3149 55.0851C63.4429 54.9653 63.5895 54.9059 63.7954 54.9071C64.0013 54.9083 64.1467 54.9699 64.2723 55.0921C64.3747 55.1898 64.4399 55.2933 64.5294 55.5423L67.1132 62.5945C67.2377 62.9342 67.3145 63.2075 67.0632 63.46C66.9469 63.5798 66.7654 63.6508 66.5827 63.6496C66.4431 63.6496 66.3222 63.5996 66.2268 63.5193C66.1069 63.4216 66.0523 63.3122 65.9464 63.0202L65.5253 61.8604L61.9526 61.8313L61.9515 61.8336ZM63.7779 56.9604L62.3668 60.7226L65.1286 60.7447L63.7779 56.9604ZM69.4178 63.6263C69.2235 63.6252 68.9943 63.6229 68.807 63.4332C68.6209 63.2436 68.6232 63.0133 68.6244 62.8201L68.6814 55.7947C68.6826 55.6005 68.6849 55.3713 68.8745 55.1851C69.0641 54.999 69.2945 55.0002 69.4876 55.0025L72.0435 55.0234C73.6419 55.0362 74.64 55.953 74.6284 57.4071C74.6203 58.3401 74.0339 59.0009 73.4511 59.2266C74.1154 59.4988 74.7401 60.1456 74.7308 61.2357C74.718 62.8225 73.6326 63.6612 72.1063 63.6496L69.4178 63.6275V63.6263ZM71.905 58.674C72.7403 58.681 73.3138 58.2436 73.3196 57.4444C73.3266 56.6393 72.7601 56.1926 71.9248 56.1856L69.9867 56.1693L69.9669 58.6589L71.905 58.6752V58.674ZM69.9576 59.8211L69.9366 62.4677L71.9958 62.4839C72.9043 62.4909 73.4174 61.9325 73.4232 61.1636C73.429 60.4004 72.9253 59.8455 72.0167 59.8373L69.9576 59.8211ZM80.3555 63.7148C80.1612 63.7136 79.9321 63.7113 79.7448 63.5216C79.5586 63.332 79.561 63.1017 79.5621 62.9086L79.6191 55.8832C79.6203 55.6889 79.6226 55.4597 79.8122 55.2736C80.0019 55.0874 80.2322 55.0886 80.4253 55.0909L82.9812 55.1119C84.5796 55.1247 85.5778 56.0414 85.5661 57.4955C85.558 58.4285 84.9717 59.0893 84.3888 59.315C85.0531 59.5872 85.6778 60.234 85.6685 61.3241C85.6557 62.9109 84.5703 63.7497 83.044 63.738L80.3555 63.7159V63.7148ZM82.8427 58.7636C83.678 58.7706 84.2515 58.3331 84.2574 57.5339C84.2643 56.7289 83.6978 56.2822 82.8625 56.2752L80.9244 56.2589L80.9046 58.7485L82.8427 58.7647V58.7636ZM80.8953 59.9106L80.8744 62.5572L82.9335 62.5735C83.8421 62.5805 84.3551 62.0221 84.3609 61.2531C84.3667 60.4842 83.863 59.9351 82.9544 59.9269L80.8953 59.9106ZM88.3954 62.0489L87.9556 63.2017C87.8439 63.4914 87.7893 63.5996 87.6671 63.6961C87.5694 63.7741 87.4484 63.8218 87.3088 63.8206C87.1273 63.8195 86.9458 63.745 86.8318 63.6229C86.5852 63.3669 86.6666 63.0947 86.7969 62.7562L89.4947 55.7459C89.5878 55.4981 89.6553 55.3957 89.7588 55.3003C89.8868 55.1805 90.0333 55.1212 90.2393 55.1223C90.4452 55.1235 90.5906 55.1851 90.7162 55.3073C90.8186 55.405 90.8837 55.5086 90.9733 55.7575L93.5571 62.8097C93.6816 63.1494 93.7584 63.4228 93.5071 63.6752C93.3908 63.795 93.2093 63.866 93.0266 63.8648C92.887 63.8648 92.766 63.8148 92.6706 63.7345C92.5508 63.6368 92.4961 63.5275 92.3903 63.2355L91.9691 62.0756L88.3965 62.0465L88.3954 62.0489ZM90.2218 57.1756L88.8107 60.9379L91.5724 60.96L90.2218 57.1756ZM96.377 63.004C96.3747 63.325 96.3677 63.4274 96.2758 63.5973C96.1781 63.7718 95.9769 63.8916 95.7163 63.8893C95.4557 63.8869 95.2567 63.7648 95.1614 63.588C95.0718 63.4181 95.0671 63.3146 95.0694 62.9935L95.1265 55.9983C95.1288 55.7133 95.173 55.5144 95.3196 55.3701C95.4533 55.2375 95.6185 55.1665 95.8175 55.1689C96.1269 55.1712 96.3189 55.3608 96.576 55.7505L100.274 61.3101L100.316 56.096C100.318 55.775 100.325 55.6726 100.417 55.5027C100.516 55.3282 100.716 55.2084 100.977 55.2107C101.237 55.2131 101.436 55.3352 101.532 55.512C101.621 55.6819 101.626 55.7854 101.624 56.1065L101.567 63.1075C101.564 63.3925 101.52 63.5856 101.374 63.7299C101.24 63.8625 101.075 63.9335 100.876 63.9311C100.567 63.9288 100.374 63.7392 100.117 63.3495L96.4189 57.7899L96.377 63.004ZM105.015 63.6671C104.917 63.8416 104.716 63.9614 104.455 63.9591C104.195 63.9567 103.996 63.8346 103.9 63.6578C103.811 63.4879 103.806 63.3844 103.808 63.0633L103.864 56.1228C103.867 55.8017 103.874 55.6993 103.966 55.5295C104.063 55.355 104.264 55.2352 104.525 55.2375C104.786 55.2398 104.985 55.362 105.08 55.5388C105.17 55.7087 105.174 55.8122 105.172 56.1333L105.144 59.5977L108.441 55.6633C108.655 55.4108 108.802 55.2724 109.043 55.2747C109.195 55.2759 109.334 55.3317 109.448 55.4294C109.598 55.5574 109.682 55.7284 109.681 55.9041C109.68 56.0856 109.6 56.2124 109.386 56.4648L107.532 58.667L109.86 62.8341C110.009 63.1017 110.057 63.211 110.061 63.3751C110.066 63.5868 109.961 63.7799 109.736 63.9114C109.626 63.9765 109.498 63.9998 109.383 63.9998C109.056 63.9975 108.906 63.7659 108.74 63.4612L106.614 59.6466L105.129 61.4032L105.115 63.0749C105.113 63.396 105.106 63.4984 105.014 63.6682L105.015 63.6671Z" fill="#0025DD"></path>
<path d="M8.35058 20.455C8.35058 24.2126 8.4704 26.8359 8.76822 28.5658C9.06603 30.8913 9.78265 32.6806 10.7959 33.9928C12.5851 36.3183 16.1636 37.7504 19.7408 37.7504C21.7092 37.7504 23.4984 37.3327 25.1678 36.6173C28.0901 35.1259 29.9387 32.741 30.7135 29.3418C31.1904 27.1349 31.4894 24.1533 31.6081 20.4562V2.08703C31.6081 0.894609 32.562 0 33.6951 0C34.8282 0 35.7821 0.894609 35.7821 2.08703V20.8133C35.7821 24.5104 35.5437 27.4327 35.126 29.5803C34.4106 32.8609 33.2181 35.3655 31.3684 37.2141C28.2076 40.3749 23.6753 41.9256 17.712 41.9256C10.7343 41.9256 5.72492 39.8979 2.62345 35.9018C1.54969 34.5303 0.834237 32.8609 0.477092 30.9518C0.118783 29.4604 0.00012207 27.3141 0.00012207 24.4511V4.17406C0.00128541 1.90788 1.84983 0 4.17535 0C6.50087 0 8.34941 1.90788 8.34941 4.17406V20.455H8.35058Z" fill="#0025DD"></path>
<path d="M69.8587 40.8517C68.308 40.8517 66.7573 39.9571 66.1011 38.4064L62.582 30.7132H43.7371L39.9202 39.5988C39.5619 40.3736 38.7871 40.8517 38.0123 40.8517C36.5814 40.8517 35.4483 39.3603 36.1044 37.9294L51.1918 2.86285C51.6094 1.84958 52.3249 0.954975 53.458 0.417512C55.545 -0.595757 58.0497 0.358182 59.0036 2.50454L73.6745 34.9466C74.8076 37.5711 72.959 40.8506 69.8576 40.8506L69.8587 40.8517ZM60.6742 26.538L52.9217 9.42176L45.5263 26.538H60.6742Z" fill="#0025DD"></path>
<path d="M110.983 29.5209C110.983 33.2785 109.73 36.2008 107.225 38.2274C105.138 40.0166 102.395 40.8518 99.1144 40.8518H81.4619C79.1364 40.8518 77.2867 39.0033 77.2867 36.6778V4.17406C77.2867 1.90788 79.1352 0 81.4619 0H98.5781C101.441 0 103.767 0.835278 105.615 2.32552C107.822 4.17406 108.955 6.73923 108.955 10.1385C108.955 13.5378 107.822 16.0425 105.615 17.891C105.138 18.3086 104.601 18.6065 104.005 18.9043C105.198 19.3812 106.271 19.978 107.225 20.7528C109.73 22.8399 110.983 25.7028 110.983 29.5198V29.5209ZM85.6371 4.17406V17.1151H94.1051C95.9536 17.1151 97.3857 16.6381 98.5781 15.6237C99.9497 14.4312 100.606 12.8212 100.606 10.6736C100.606 8.52612 99.9497 6.85673 98.5781 5.6643C97.3857 4.65103 95.9536 4.1729 94.1051 4.1729H85.6371V4.17406ZM102.634 28.9835C102.634 26.4195 101.798 24.4511 100.188 23.0795C98.8166 21.8871 97.0867 21.2903 94.9404 21.2903H85.6371V36.6766H94.9404C97.0867 36.6766 98.8166 36.0798 100.188 34.8874C101.798 33.5158 102.634 31.5475 102.634 28.9835Z" fill="#0025DD"></path>
<path d="M112.834 37.0977C111.813 37.0977 110.983 37.9283 110.983 38.9485C110.983 39.9688 111.813 40.7994 112.834 40.7994C113.854 40.7994 114.684 39.9688 114.684 38.9485C114.684 37.9283 113.854 37.0977 112.834 37.0977ZM112.834 40.6668C111.885 40.6668 111.114 39.8955 111.114 38.9474C111.114 37.9992 111.885 37.2279 112.834 37.2279C113.782 37.2279 114.553 37.9992 114.553 38.9474C114.553 39.8955 113.782 40.6668 112.834 40.6668ZM113.607 38.5332C113.607 38.1947 113.376 37.9713 112.949 37.9713H112.236V39.9246H112.379V39.0928H113.059L113.442 39.9246H113.599L113.202 39.0567C113.448 38.9904 113.607 38.7892 113.607 38.5332ZM112.949 38.9602H112.379V38.1063H112.949C113.271 38.1063 113.458 38.2552 113.458 38.5332C113.458 38.8113 113.271 38.9602 112.949 38.9602Z" fill="#0025DD"></path>
</svg>