<svg width="28" height="28" viewBox="0 0 28 28" fill="none" xmlns="http://www.w3.org/2000/svg">
<path d="M14.0102 0C11.5524 0.000408113 9.13812 0.641526 7.01016 1.85885C4.8822 3.07617 3.11567 4.82676 1.88829 6.93449C0.66092 9.04221 0.0159985 11.4327 0.0184169 13.8655C0.0208353 16.2983 0.670507 18.6876 1.90207 20.7929L0 28L7.40116 26.0595C9.27645 27.0537 11.3561 27.6116 13.4819 27.6907C15.6077 27.7698 17.7238 27.368 19.6692 26.516C21.6146 25.664 23.3381 24.3842 24.7087 22.7738C26.0793 21.1634 27.0609 19.2648 27.5789 17.2225C28.0969 15.1802 28.1376 13.0478 27.6979 10.9876C27.2582 8.92735 26.3497 6.99347 25.0415 5.33299C23.7333 3.67252 22.0598 2.32915 20.1483 1.40504C18.2368 0.48093 16.1375 0.000404531 14.0102 0ZM22.239 21.9962C20.3602 23.8549 17.8958 25.0219 15.2548 25.3036C12.6138 25.5853 9.95478 24.9648 7.71902 23.545L3.4195 24.6738L4.51847 20.5168C3.23462 18.7259 2.49465 16.6091 2.38572 14.4158C2.2768 12.2225 2.80347 10.0441 3.90368 8.13724C5.00389 6.23036 6.6318 4.67448 8.5956 3.6529C10.5594 2.63132 12.7773 2.18661 14.9879 2.37116C17.1986 2.55572 19.3099 3.36185 21.0731 4.69459C22.8363 6.02732 24.1779 7.83112 24.9399 9.89346C25.7019 11.9558 25.8525 14.1908 25.374 16.335C24.8955 18.4793 23.8077 20.4435 22.239 21.9962Z" fill="url(#paint0_linear_579_394)"/>
<path d="M21.0217 17.4775C21.0224 17.7053 21.0029 17.9326 20.9633 18.157C20.9262 18.3844 20.8696 18.6084 20.7943 18.8264C20.621 19.3109 19.6742 19.9041 19.6742 19.9041C19.0013 20.3475 18.1974 20.5538 17.3917 20.4899C17.2028 20.4708 17.0151 20.4412 16.8295 20.4012C16.515 20.3317 16.362 20.2874 16.362 20.2874C16.2099 20.243 15.8151 20.12 15.8151 20.12C15.4203 19.9979 15.3315 19.9744 15.3315 19.9744C14.7319 19.796 14.1507 19.5615 13.596 19.2741C12.317 18.5862 10.9238 17.3537 10.9238 17.3537C10.0989 16.6278 9.35321 15.8184 8.6988 14.9388C8.3507 14.4238 8.05077 13.8785 7.80271 13.3096C7.7689 13.2259 7.60236 12.8502 7.60236 12.8502C7.43329 12.4753 7.37411 12.3305 7.37411 12.3305C7.31325 12.1849 7.20504 11.8837 7.20504 11.8837C7.14331 11.706 7.09277 11.5246 7.05372 11.3406C7.02261 11.1747 7.00172 11.007 6.99116 10.8386C6.94213 9.9583 7.38426 9.03199 7.38426 9.03199C7.87034 8.03624 8.34205 7.80864 8.34205 7.80864C8.55303 7.71439 8.77056 7.63525 8.99298 7.57183C9.21315 7.50424 9.43978 7.45937 9.66927 7.43795C9.73798 7.43128 9.80734 7.43724 9.87385 7.45552C10.0514 7.50321 10.4276 8.15422 10.4276 8.15422C10.5442 8.32994 10.7463 8.65628 10.7463 8.65628C10.9492 8.98095 11.1191 9.24202 11.1191 9.24202C11.2881 9.50561 11.4471 9.73655 11.4471 9.73655C11.4784 9.77337 11.6297 9.96667 11.6297 9.96667C11.7128 10.0707 11.7885 10.1803 11.8562 10.2947C11.9027 10.3775 11.9315 10.469 11.9408 10.5633C11.9509 10.7549 11.6922 11.057 11.6922 11.057C11.5165 11.257 11.326 11.4438 11.1225 11.6159C10.9215 11.7846 10.7309 11.9652 10.5518 12.1565C10.2915 12.4393 10.2982 12.6117 10.2982 12.6117C10.3084 12.6849 10.3286 12.7564 10.3582 12.8242C10.414 12.9506 10.4521 13.0159 10.4521 13.0159C10.4893 13.0803 10.6 13.2376 10.6 13.2376C10.7108 13.3949 10.7209 13.4133 10.7209 13.4133C11.2313 14.2028 11.8386 14.9266 12.5291 15.568C13.5292 16.4533 14.8962 17.1068 14.8962 17.1068C14.9165 17.1152 15.0864 17.2064 15.0864 17.2064C15.2554 17.2984 15.3256 17.3277 15.3256 17.3277C15.3949 17.3579 15.5285 17.398 15.5285 17.398C15.5993 17.4219 15.6735 17.434 15.7483 17.434C15.9224 17.4248 16.1777 17.1369 16.1777 17.1369C16.3494 16.9392 16.5092 16.7316 16.6562 16.5152C16.8067 16.2963 16.9731 16.0885 17.1541 15.8935C17.4289 15.6048 17.6225 15.5939 17.6225 15.5939C17.718 15.5931 17.8127 15.6108 17.9014 15.6458C18.0231 15.701 18.1414 15.7633 18.2556 15.8324C18.467 15.9596 18.5092 15.9864 18.5092 15.9864C18.7629 16.1169 19.0435 16.2542 19.0435 16.2542C19.3276 16.3922 19.6758 16.5554 19.6758 16.5554C20.0241 16.7186 20.2135 16.8131 20.2135 16.8131C20.9092 17.111 20.9743 17.28 20.9743 17.28C20.9998 17.3432 21.0157 17.4097 21.0217 17.4775Z" fill="url(#paint1_linear_579_394)"/>
<defs>
<linearGradient id="paint0_linear_579_394" x1="14" y1="28" x2="14" y2="0" gradientUnits="userSpaceOnUse">
<stop stop-color="#00D02D"/>
<stop offset="0.25" stop-color="#10D93A"/>
<stop offset="0.75" stop-color="#3AF15D"/>
<stop offset="1" stop-color="#51FE71"/>
</linearGradient>
<linearGradient id="paint1_linear_579_394" x1="14.0045" y1="20.5013" x2="14.0045" y2="7.4353" gradientUnits="userSpaceOnUse">
<stop stop-color="#00D02D"/>
<stop offset="0.25" stop-color="#10D93A"/>
<stop offset="0.75" stop-color="#3AF15D"/>
<stop offset="1" stop-color="#51FE71"/>
</linearGradient>
</defs>
</svg>
