<svg xmlns="http://www.w3.org/2000/svg" width="28" height="10" viewBox="0 0 28 10" fill="none">
  <g clip-path="url(#clip0_2041_601)">
    <path d="M9.77835 -0.25H10.2641C10.5038 -0.18893 10.6089 -0.133136 10.8342 -0.0402481C11.2756 0.141721 11.7024 0.355695 12.1382 0.547903L13.5865 1.18895C13.8536 1.30832 14.1172 1.40807 14.3754 1.55685L14.3678 1.56421C14.3008 1.62732 14.2185 1.66619 14.1559 1.72109C14.0129 1.8465 13.8816 2.02667 13.7773 2.18368C13.3686 2.03779 12.9508 1.8323 12.5529 1.65263L11.12 1.01948C10.9401 0.938982 10.3032 0.641136 10.1371 0.604014C10.0031 0.575274 9.86335 0.591367 9.73939 0.649817C9.44366 0.791633 9.34959 1.1081 9.23027 1.38767L8.96366 2.0047C8.6975 2.63058 8.41474 3.24926 8.11565 3.86008C8.26148 4.25566 8.29704 4.86562 8.39114 5.29528C8.46878 5.64981 8.45996 6.07323 8.56947 6.4342C8.59866 6.55563 8.59054 6.72219 8.62846 6.82502C8.61237 7.20885 8.61962 7.29306 8.49134 7.66505C8.0543 8.57321 7.36332 8.51633 6.51403 8.64811L4.4562 8.98143C3.70921 9.09621 2.95669 9.27178 2.20451 9.32481C1.71298 9.36828 1.06073 8.97527 0.860291 8.5254C0.607936 7.95901 0.559914 7.0854 0.458637 6.46746L0.171572 4.75896C0.148313 4.6247 0.110339 4.48509 0.0897293 4.35269C0.0550966 4.13021 0.0587353 3.9042 0 3.68352V2.36905C0.457964 1.27582 1.31829 1.43913 2.31105 1.2288C2.49884 1.18901 2.6888 1.17133 2.87779 1.14115L4.92416 0.810066C5.9739 0.641525 7.12135 0.285598 7.6944 1.47085C7.83151 1.75446 7.84517 2.00954 7.87871 2.31625C7.89843 2.29339 7.9708 2.09982 7.9924 2.05072L8.38199 1.17512C8.46035 0.996009 8.53289 0.813374 8.61784 0.638568C8.80117 0.261361 9.10227 -0.0506326 9.51235 -0.170205C9.60067 -0.195958 9.69017 -0.221979 9.77835 -0.25ZM7.29647 3.62948C7.17163 3.41876 7.14231 2.98068 7.11017 2.7262C6.91359 1.17013 6.59007 1.38419 5.16863 1.62676L3.5071 1.90276C3.07536 1.97599 2.64021 2.01463 2.20756 2.10372C1.90595 2.13898 1.58825 2.21347 1.29102 2.26391C1.03254 2.30778 0.805992 2.5156 0.760935 2.78196C0.710944 3.0775 0.874887 3.54593 0.881243 3.86313C0.906451 4.07117 0.953261 4.28341 0.992305 4.48807C1.08975 4.99891 1.14703 5.50577 1.22482 6.01872C1.29063 6.45273 1.39759 6.90255 1.45513 7.34244C1.49013 7.60998 1.51043 7.91913 1.63117 8.16339C1.74441 8.35337 2.0513 8.52794 2.27282 8.49059C2.62178 8.44257 2.96824 8.37841 3.31495 8.31931L5.06488 8.02703L6.28573 7.83196C6.60674 7.78366 6.92704 7.74718 7.24513 7.67424C7.44883 7.62752 7.58128 7.51218 7.70817 7.35392L7.71001 7.33615C7.5363 7.23418 7.3311 7.18744 7.15195 7.06517C6.48183 6.60786 6.33608 5.81771 6.62703 5.08707C6.66842 4.98313 6.74703 4.89392 6.78829 4.7896C6.93259 4.3914 7.12514 4.01677 7.29647 3.62948ZM7.69017 6.39811C7.69216 6.31756 7.65552 6.1875 7.63819 6.09953C7.58986 5.85427 7.5639 5.45891 7.50167 5.23012C7.32946 5.70139 7.15919 6.09034 7.69017 6.39811Z" fill="#6A2135"/>
    <path d="M9.77848 -0.25H10.2642C10.5039 -0.18893 10.609 -0.133136 10.8343 -0.0402481C11.2757 0.141721 11.7025 0.355695 12.1383 0.547903L13.5866 1.18895C13.8538 1.30832 14.1173 1.40807 14.3755 1.55685L14.3679 1.56421C14.301 1.62732 14.2186 1.66619 14.156 1.72109C14.013 1.8465 13.8817 2.02667 13.7774 2.18368C13.3687 2.0378 12.9509 1.8323 12.553 1.65263L11.1202 1.01948C10.9402 0.938982 10.3033 0.641136 10.1372 0.604014C10.0032 0.575274 9.86348 0.591367 9.73952 0.649817C9.44379 0.791633 9.34972 1.1081 9.23039 1.38767L8.96379 2.0047C8.69763 2.63058 8.41486 3.24926 8.11578 3.86008C8.0506 3.94271 7.51805 5.14239 7.5018 5.23013C7.32959 5.70139 7.15932 6.09034 7.6903 6.39811C7.76132 6.60618 7.88536 7.15391 7.71014 7.33615C7.53643 7.23418 7.33123 7.18744 7.15208 7.06518C6.48196 6.60786 6.33621 5.81771 6.62716 5.08707C6.66855 4.98313 6.74716 4.89392 6.78841 4.7896C6.93271 4.3914 7.12526 4.01677 7.2966 3.62948C7.37619 3.5338 7.82683 2.4764 7.87884 2.31625C7.89855 2.29339 7.97092 2.09982 7.99253 2.05072L8.38212 1.17512C8.46048 0.996009 8.53301 0.813374 8.61797 0.638568C8.8013 0.261361 9.1024 -0.0506326 9.51247 -0.170205C9.60079 -0.195958 9.6903 -0.221979 9.77848 -0.25Z" fill="#6A2135"/>
    <path d="M21.2644 1.35689C21.5359 1.32304 21.994 1.33669 22.2847 1.33677L24.0358 1.33756L25.783 1.33718C26.0352 1.33721 26.2893 1.33928 26.5416 1.3393C27.2005 1.33936 27.6445 1.71962 27.9218 2.29917V8.37685C27.7505 8.75042 27.4969 9.04154 27.1134 9.20655C26.7315 9.37084 26.1869 9.32385 25.7743 9.32372L24.1512 9.3228L22.4403 9.32391C22.1139 9.32414 21.7134 9.33472 21.3951 9.31083C21.2416 9.30072 21.0907 9.26613 20.9481 9.20836C20.7093 9.113 20.5005 8.95263 20.3636 8.73459C20.2435 8.76284 19.9764 8.76024 19.8185 8.79197C19.3665 8.88277 18.9019 8.91502 18.4463 8.97749L16.9347 9.19652C16.7306 9.22275 16.5265 9.24769 16.3221 9.27134C15.6955 9.34506 15.1292 9.35363 14.6564 8.83742C14.3439 8.49621 14.2881 8.18066 14.2307 7.7386C14.2484 7.7054 14.2873 7.57867 14.3135 7.5242C14.419 7.30524 14.7645 6.44257 14.8819 6.30464C14.9593 6.61374 14.9844 6.95805 15.0329 7.27518C15.0954 7.67458 15.0421 8.15247 15.4423 8.39099C15.5472 8.45348 15.7325 8.49206 15.852 8.47877C16.5888 8.39686 17.325 8.28437 18.0587 8.17652C18.4501 8.11899 18.846 8.08026 19.2374 8.01464C19.5008 7.97584 19.7781 7.96338 20.039 7.91815C19.997 7.83532 20.0148 7.2357 20.0148 7.09489L20.0145 5.45129V3.63653C20.0147 3.10304 19.9551 2.39816 20.2965 1.93018C20.3397 1.87086 20.4339 1.80376 20.4865 1.74038L20.4927 1.73303C20.7836 1.55055 20.9286 1.45679 21.2644 1.35689ZM21.4644 8.48014C21.5681 8.51435 22.3781 8.50132 22.542 8.50125L24.5002 8.50062L25.7726 8.50122C26.0544 8.50149 26.4621 8.53807 26.7222 8.43619C26.8412 8.38957 27.0421 8.21525 27.0936 8.09927C27.1716 7.92374 27.1761 7.7315 27.1781 7.54252C27.1859 7.1721 27.1832 6.79823 27.1833 6.4272L27.1837 4.48292L27.1832 3.42608C27.1821 2.55756 27.1858 2.1212 26.1514 2.16292C26.1 2.165 26.0355 2.16281 25.9829 2.16279L25.1145 2.16313L22.6502 2.16373C22.302 2.16358 21.8918 2.17623 21.553 2.16639C21.659 2.61721 21.6938 3.22283 21.7601 3.68836L22.0734 5.99346C22.1302 6.42105 22.2306 6.81815 22.2139 7.25378C22.1938 7.78722 21.8777 8.1812 21.4644 8.48014ZM20.8473 7.79428C20.8713 7.78978 20.8952 7.7841 20.9187 7.77725C21.0727 7.73103 21.2412 7.54559 21.3151 7.40644C21.3766 7.29053 21.3809 7.18815 21.3707 7.05788C21.3406 6.67679 21.2579 6.30404 21.2065 5.92299C21.1426 5.4486 21.0868 4.97826 21.0282 4.50363C21.0128 4.37853 20.9348 4.18475 20.9176 4.04604C20.8952 3.86406 20.8939 3.37492 20.8493 3.2282C20.8406 3.32337 20.8601 3.37692 20.8575 3.46277C20.8489 3.73642 20.875 4.00022 20.878 4.27187L20.8848 6.79815C20.8851 7.01818 20.9033 7.61089 20.8473 7.79428Z" fill="#6A2135"/>
    <path d="M20.8493 3.22998C20.8037 2.82204 20.8461 2.3737 21.2954 2.21584C21.4031 2.17802 21.43 2.15402 21.553 2.16817C21.659 2.61899 21.6938 3.2246 21.7601 3.69014L22.0734 5.99524C22.1302 6.42282 22.2306 6.81993 22.2139 7.25556C22.1938 7.789 21.8777 8.18298 21.4644 8.48191C21.3565 8.50512 21.2113 8.5731 21.0916 8.60431C20.9474 8.64193 20.4792 8.68941 20.3636 8.73636C20.2435 8.76462 19.9764 8.76202 19.8185 8.79375C19.3665 8.88454 18.9019 8.91679 18.4463 8.97927L16.9347 9.1983C16.7306 9.22452 16.5265 9.24947 16.3221 9.27311C15.6955 9.34683 15.1292 9.35541 14.6564 8.8392C14.3439 8.49799 14.2881 8.18243 14.2307 7.74038C14.2484 7.70717 14.2873 7.58045 14.3135 7.52598C14.419 7.30701 14.7645 6.44434 14.8819 6.30642C14.9593 6.61551 14.9844 6.95983 15.0329 7.27696C15.0954 7.67635 15.0421 8.15425 15.4423 8.39277C15.5472 8.45525 15.7325 8.49383 15.852 8.48055C16.5888 8.39863 17.325 8.28614 18.0587 8.1783C18.4501 8.12077 18.846 8.08204 19.2374 8.01642C19.5008 7.97762 19.7781 7.96516 20.039 7.91992C20.1186 7.91845 20.7754 7.8162 20.8473 7.79606C20.8713 7.79156 20.8952 7.78587 20.9187 7.77903C21.0727 7.73281 21.2412 7.54736 21.3151 7.40821C21.3766 7.29231 21.3809 7.18993 21.3707 7.05965C21.3406 6.67857 21.2579 6.30582 21.2065 5.92476C21.1426 5.45038 21.0868 4.98004 21.0282 4.50541C21.0128 4.3803 20.9348 4.18652 20.9176 4.04782C20.8952 3.86584 20.8939 3.37669 20.8493 3.22998Z" fill="#6A2135"/>
    <path d="M15.5344 2.13867C16.0215 2.56965 16.168 3.11798 16.0035 3.74543C15.9489 3.95385 15.8429 4.11968 15.7543 4.31299C15.56 4.79035 15.3389 5.2561 15.1307 5.72755C15.0876 5.82503 14.9044 6.22492 14.8818 6.30554C14.7644 6.44346 14.4189 7.30613 14.3134 7.5251C14.2872 7.57956 14.2483 7.70629 14.2306 7.7395C14.1713 7.81914 14.0956 8.06223 14.0492 8.16776C13.9789 8.32707 13.9048 8.49787 13.8125 8.64593C13.6186 8.96126 13.3073 9.18655 12.9472 9.27215C12.2622 9.4316 11.838 9.16807 11.2392 8.90128L9.70724 8.21457C9.43589 8.09237 9.15523 7.98176 8.88525 7.85508C8.76679 7.7995 8.59989 7.73181 8.49121 7.66387C8.61949 7.29188 8.61224 7.20767 8.62833 6.82383C8.92322 6.92806 9.1164 7.04415 9.38099 7.15771L11.2392 7.97546C11.3106 8.00756 11.3929 8.05611 11.4628 8.08121C12.0771 8.30199 12.6439 8.87328 13.1294 8.10289C13.2037 7.98492 13.2294 7.85948 13.2877 7.73987C13.5494 7.20265 13.7971 6.6587 14.0305 6.10859C14.0636 6.07828 14.626 4.82203 14.6689 4.70103C14.7183 4.63903 14.8301 4.30112 14.8709 4.20911C14.922 4.09378 15.0001 3.95121 15.0467 3.83737C15.1599 3.56111 15.2968 3.32095 15.1743 3.02206C15.0458 2.70801 14.8045 2.65741 14.527 2.53635C14.543 2.51403 14.5596 2.49221 14.577 2.47094C14.8148 2.18051 15.1701 2.17566 15.5344 2.13867Z" fill="#6A2135"/>
    <path d="M14.3755 1.55518C14.8617 1.33367 15.1798 1.36257 15.6892 1.2892C16.416 1.18449 17.1481 1.06318 17.879 0.986719C18.1349 0.959933 18.4058 0.893329 18.6511 0.873322C19.2047 0.828162 19.7644 0.65152 20.3159 0.724473C20.6784 0.782212 21.0682 1.05952 21.2645 1.35729C20.9287 1.4572 20.7838 1.55095 20.4929 1.73344C20.3943 1.66941 20.2301 1.5389 20.1076 1.53894C19.8547 1.53905 19.5572 1.61176 19.2975 1.64323L16.5518 2.0036C16.2079 2.04774 15.8853 2.11626 15.5347 2.13818C15.1704 2.17517 14.8151 2.18002 14.5773 2.47045C14.5599 2.49172 14.5432 2.51354 14.5273 2.53586C14.2797 2.88028 14.6917 4.24637 14.6692 4.70054C14.6263 4.82154 14.0639 6.07779 14.0307 6.1081C13.9803 6.00802 13.9378 5.58597 13.921 5.45985L13.7646 4.22838C13.6794 3.56166 13.425 2.80229 13.7774 2.18201C13.8817 2.025 14.013 1.84483 14.156 1.71942C14.2186 1.6655 14.301 1.62663 14.3679 1.56254L14.3755 1.55518Z" fill="#6A2135"/>
  </g>
  <defs>
    <clipPath id="clip0_2041_601">
      <rect width="28" height="10" fill="white"/>
    </clipPath>
  </defs>
</svg>